<svg xmlns="http://www.w3.org/2000/svg" xmlns:xlink="http://www.w3.org/1999/xlink" viewBox="0 0 171.26 428.11"><defs><style>.cls-1{mask:url(#mask);filter:url(#luminosity-noclip-2);}.cls-2,.cls-8{mix-blend-mode:multiply;}.cls-2{fill:url(#linear-gradient);}.cls-3{isolation:isolate;}.cls-4{fill:url(#linear-gradient-2);}.cls-5{fill:#fff;}.cls-6{fill:url(#linear-gradient-3);}.cls-7{mask:url(#mask-2);}.cls-8{fill:url(#linear-gradient-4);}.cls-9{fill:#1b1b75;}.cls-10{fill:#ffd6d6;}.cls-11{fill:url(#linear-gradient-5);}.cls-12{fill:url(#linear-gradient-6);}.cls-13{fill:url(#linear-gradient-7);}.cls-14,.cls-15{fill:#ff5a70;}.cls-14{opacity:0.3;}.cls-16{filter:url(#luminosity-noclip);}</style><filter id="luminosity-noclip" x="73.98" y="-8142.05" width="93" height="32766" filterUnits="userSpaceOnUse" color-interpolation-filters="sRGB"><feFlood flood-color="#fff" result="bg"/><feBlend in="SourceGraphic" in2="bg"/></filter><mask id="mask" x="73.98" y="-8142.05" width="93" height="32766" maskUnits="userSpaceOnUse"><g class="cls-16"/></mask><linearGradient id="linear-gradient" x1="1066.77" y1="125.97" x2="1159.35" y2="125.97" gradientTransform="translate(-990.44 -23.45) rotate(0.89)" gradientUnits="userSpaceOnUse"><stop offset="0" stop-color="#fff"/><stop offset="1"/></linearGradient><linearGradient id="linear-gradient-2" x1="171.26" y1="274.68" x2="0.02" y2="274.68" gradientUnits="userSpaceOnUse"><stop offset="0.4" stop-color="#e5e8fe"/><stop offset="0.61" stop-color="#f3f4ff"/></linearGradient><linearGradient id="linear-gradient-3" y1="120.27" x2="171.26" y2="120.27" gradientUnits="userSpaceOnUse"><stop offset="0" stop-color="#fff"/><stop offset="1" stop-color="#f3f4ff"/></linearGradient><filter id="luminosity-noclip-2" x="73.98" y="96.51" width="93" height="46.58" filterUnits="userSpaceOnUse" color-interpolation-filters="sRGB"><feFlood flood-color="#fff" result="bg"/><feBlend in="SourceGraphic" in2="bg"/></filter><mask id="mask-2" x="73.98" y="96.51" width="93" height="46.58" maskUnits="userSpaceOnUse"><g class="cls-1"><path class="cls-2" d="M81,141.51s31.75-16.84,38.46-20.57l7,1.47-23.86,15.22,1.58,5.46L167,111.51l-15-9-10-6-68,41Z"/></g></mask><linearGradient id="linear-gradient-4" x1="1066.77" y1="125.97" x2="1159.35" y2="125.97" gradientTransform="translate(-990.44 -23.45) rotate(0.89)" gradientUnits="userSpaceOnUse"><stop offset="0" stop-color="#d4d9fe"/><stop offset="1" stop-color="#fff"/></linearGradient><linearGradient id="linear-gradient-5" x1="128.07" y1="43.82" x2="45.1" y2="38.98" gradientUnits="userSpaceOnUse"><stop offset="0" stop-color="#ff5a70"/><stop offset="1" stop-color="#ffae6c"/></linearGradient><linearGradient id="linear-gradient-6" x1="127" y1="62.28" x2="44.02" y2="57.44" xlink:href="#linear-gradient-5"/><linearGradient id="linear-gradient-7" x1="128.3" y1="39.99" x2="45.32" y2="35.15" xlink:href="#linear-gradient-5"/></defs><title>Asset 6</title><g class="cls-3"><g id="Layer_2" data-name="Layer 2"><g id="Layer_1-2" data-name="Layer 1"><path class="cls-4" d="M169.78,428.11l1.48-306.86-51.94,25.23-14.44-7.87c-10.13-5.85-25.45-6.47-34.22-1.41L52,148,0,122.75V426.61Z"/><path class="cls-5" d="M171.24,121.25c-.24-3.73-3.07-7.6-8.36-10.65l-58-33c-10.13-5.84-25.45-6.47-34.22-1.4L5.91,113.65c-4.19,2.42-6.12,5.7-5.89,9.1.24,3.73,3.06,7.6,8.36,10.65l58,33c10.13,5.84,25.44,6.47,34.21,1.4l64.76-37.45C169.53,127.93,171.46,124.65,171.24,121.25Z"/><path class="cls-6" d="M171.24,119.51c-.24-3.72-3.07-7.59-8.36-10.64l-58-33C94.75,70,79.43,69.4,70.66,74.46L5.91,111.92C1.72,114.34-.21,117.62,0,121c.24,3.73,3.06,7.6,8.36,10.65l58,33c10.13,5.84,25.44,6.47,34.21,1.4l64.76-37.45C169.53,126.2,171.46,122.92,171.24,119.51Z"/><g class="cls-7"><path class="cls-8" d="M81,141.51s31.75-16.84,38.46-20.57l7,1.47-23.86,15.22,1.58,5.46L167,111.51l-15-9-10-6-68,41Z"/></g><polygon class="cls-5" points="72.42 42.46 56.54 51.38 38.41 27.7 54.29 18.79 72.42 42.46"/><polygon class="cls-9" points="105.1 65.75 121.33 75.2 121.32 92.4 105.09 82.96 105.1 65.75"/><path class="cls-10" d="M118.52,52.82c-2.29,11.4-1.62,14.6-.4,16.66s.74,4,.93,4.39L115.9,72s-.08,3-.54,3.35-1.58.16-1.64-2.51a16.27,16.27,0,0,0-.85-4.76l-.64-16.66Z"/><path class="cls-11" d="M109.76,20.67c5.61,8,10.61,21.25,10.06,24.95s-1.88,17.42-2.16,19-6.28.15-5.66-2.92S109.76,20.67,109.76,20.67Z"/><path class="cls-9" d="M107.16,137.7s.46,4.62-1.4,5.39c-3.8,1.59-7-1.78-10-7.11-3.54-6.24.55-7.19,4.62-3.49C106.6,138.19,107.16,137.7,107.16,137.7Z"/><path class="cls-10" d="M108.38,107.9c-1.1,7.53-.17,21.26-1.22,29.8-.42,3.39-5.55,2.23-5.92-1.71-.81-8.87-3.2-29.5-3.27-44.39,0-10.77.72-21.1.72-21.1s13.36-9,13.49-5C112.57,77.89,109.88,97.61,108.38,107.9Z"/><path class="cls-9" d="M84.67,139.58c.47,1.39.75,4.32-.26,5.28-3,2.9-8-.66-14.07-5-5.58-4-2.82-6,3.74-4C82.17,138.23,83.73,136.79,84.67,139.58Z"/><path class="cls-10" d="M103.11,58.53C99.67,77.09,86,94.45,85,103.31c-1.11,9.22.7,30.18-.43,37.18-.52,3.2-6,.93-6.51-1.76-.9-5.11-4.75-33.43-3.74-42.5,1-8.78,9.9-23.21,12.1-36.36C87.21,55,104,53.68,103.11,58.53Z"/><path class="cls-12" d="M106,17.77c4.37,2,4.16,2.37,7.1,15.58,4.35,19.52,2,39.82-1.64,62.67-1,6.09-39.18,12.75-37.16.21C77,79.68,86.84,59.15,86.11,50.15s-2.7-14.44-.31-21.66c.91-2.77,3.21-6.42,6.34-7.49C95.75,19.76,103.4,16.61,106,17.77Z"/><path class="cls-10" d="M51.1,49.23c-.34-.58.13-.75.29-.79-.26.06-1.64.34-1.93-.28-.45-.95.63-1.13.86-1.31-.3,0-1.69.29-1.94-.41-.34-.92,2.36-1.37,2.36-1.37s-1.25.21-1.5-.55c-.37-1.1.76-2,4.31-2.16a20.84,20.84,0,0,1,5.12.74c.55,0,1.06-.06,1.55-.07-2.91,2-2.82,5.95-.81,6.84h0a5,5,0,0,0-1.19.08c-1.3.48-1.36.52-3.66.36C52.51,50.58,51.58,50.06,51.1,49.23Z"/><path class="cls-13" d="M58.92,43.22c4.91-1.72,10.66-.77,18.15-2.54,4.9-1.15,6.14-3.59,10.54-14.35,2.45-6,11.1.2,9.47,4.21-6,14.7-11,16.69-16.62,18.14-4.87,1.26-17.25.74-20.18,1.27S55.35,44.05,58.92,43.22Z"/><path class="cls-10" d="M93.41,15.5c0,1.26,1.55,4.26-1.1,5.28A14.84,14.84,0,0,0,104,18.53c-1.91-.18-4.77-.79-5.63-9.23C98,5.83,93.45,13.43,93.41,15.5Z"/><path class="cls-10" d="M98.43,8.48c0,3.77-3.39,8.32-6.52,8.37s-4.51-4.58-4.79-8.2,2.46-6.86,5.59-6.91S98.39,4.71,98.43,8.48Z"/><path class="cls-9" d="M98.49,10.62c-2.64,4.86-5.34,1-5.72.18s0-1.3-2.61-.78-3.65-2.84-2.57-5.24,2.74-6.3,9.7-1.26c0,0,1.74-4.41,5.3-3.36,6.48,1.92,6.21,10.89.36,11.52A6.4,6.4,0,0,1,98.49,10.62Z"/><path class="cls-10" d="M91.25,12.71h0a1.12,1.12,0,0,1-1.1-1.14V10a1.13,1.13,0,0,1,1.12-1.13h0A1.11,1.11,0,0,1,92.38,10v1.55A1.13,1.13,0,0,1,91.25,12.71Z"/><path class="cls-14" d="M36,171.51c3.69-3.16,2.72-10.35-2.18-16.07s-11.85-7.78-15.54-4.62-2.71,10.35,2.19,16.06S32.28,174.67,36,171.51Z"/><path class="cls-15" d="M30.13,164.69c1.26-1.07.92-3.53-.75-5.48s-4-2.66-5.3-1.58-.92,3.53.75,5.48S28.87,165.77,30.13,164.69Z"/></g></g></g></svg>