<svg xmlns="http://www.w3.org/2000/svg" xmlns:xlink="http://www.w3.org/1999/xlink" viewBox="0 0 183.46 951.14"><defs><style>.cls-1,.cls-3{mask:url(#mask);}.cls-1{filter:url(#luminosity-noclip-3);}.cls-13,.cls-2,.cls-4{mix-blend-mode:multiply;}.cls-2{fill:url(#linear-gradient);}.cls-3{filter:url(#luminosity-noclip-4);}.cls-4{fill:url(#linear-gradient-2);}.cls-5{isolation:isolate;}.cls-6{fill:url(#linear-gradient-3);}.cls-7{fill:#fff;}.cls-8{fill:url(#linear-gradient-4);}.cls-9{fill:#e5e8fe;}.cls-10{fill:#f3f4ff;}.cls-11{mask:url(#mask-3);}.cls-12{mask:url(#mask-4);}.cls-13{fill:url(#linear-gradient-5);}.cls-14{fill:#1b1b75;}.cls-15{fill:#4c4aa8;}.cls-16{fill:#ffd6d6;}.cls-17{fill:url(#linear-gradient-6);}.cls-18{fill:#002c95;}.cls-19,.cls-22{fill:#ffae6c;}.cls-20{opacity:0.2;}.cls-21{fill:#c0c5f0;}.cls-22{opacity:0.3;}.cls-23{filter:url(#luminosity-noclip);}</style><filter id="luminosity-noclip" x="70.16" y="-8674.42" width="96.23" height="32766" filterUnits="userSpaceOnUse" color-interpolation-filters="sRGB"><feFlood flood-color="#fff" result="bg"/><feBlend in="SourceGraphic" in2="bg"/></filter><mask id="mask" x="70.16" y="-8674.42" width="96.23" height="32766" maskUnits="userSpaceOnUse"><g class="cls-23"/></mask><linearGradient id="linear-gradient" x1="70.16" y1="207.93" x2="166.39" y2="207.93" gradientUnits="userSpaceOnUse"><stop offset="0" stop-color="#fff"/><stop offset="0.8" stop-color="#343434"/><stop offset="1"/></linearGradient><linearGradient id="linear-gradient-2" x1="70.16" y1="208.67" x2="166.39" y2="208.67" gradientUnits="userSpaceOnUse"><stop offset="0" stop-color="#fff"/><stop offset="1"/></linearGradient><linearGradient id="linear-gradient-3" x1="115.79" y1="584.97" x2="89.11" y2="585.34" gradientUnits="userSpaceOnUse"><stop offset="0" stop-color="#e5e8fe"/><stop offset="1" stop-color="#f3f4ff"/></linearGradient><linearGradient id="linear-gradient-4" x1="12.21" y1="218.3" x2="183.46" y2="218.3" gradientUnits="userSpaceOnUse"><stop offset="0" stop-color="#fff"/><stop offset="1" stop-color="#f3f4ff"/></linearGradient><filter id="luminosity-noclip-3" x="70.16" y="182.88" width="96.23" height="50.11" filterUnits="userSpaceOnUse" color-interpolation-filters="sRGB"><feFlood flood-color="#fff" result="bg"/><feBlend in="SourceGraphic" in2="bg"/></filter><mask id="mask-3" x="70.16" y="182.88" width="96.23" height="50.11" maskUnits="userSpaceOnUse"><g class="cls-1"><polygon class="cls-2" points="70.16 224.03 132.34 182.88 140.37 187.33 166.39 202 111.33 232.99 105.87 229.39 126.48 214.88 116.6 207.93 77.95 228.41 70.16 224.03"/></g></mask><filter id="luminosity-noclip-4" x="70.16" y="182.88" width="96.23" height="51.59" filterUnits="userSpaceOnUse" color-interpolation-filters="sRGB"><feFlood flood-color="#fff" result="bg"/><feBlend in="SourceGraphic" in2="bg"/></filter><mask id="mask-4" x="70.16" y="182.88" width="96.23" height="51.59" maskUnits="userSpaceOnUse"><g class="cls-3"><polygon class="cls-4" points="70.16 224.03 132.34 182.88 140.37 187.33 166.39 202 91.54 234.46 86.07 230.87 118.28 212.84 116.6 207.93 77.95 228.41 70.16 224.03"/></g></mask><linearGradient id="linear-gradient-5" x1="70.16" y1="208.67" x2="166.39" y2="208.67" gradientUnits="userSpaceOnUse"><stop offset="0" stop-color="#d4d9fe"/><stop offset="1" stop-color="#fff"/></linearGradient><linearGradient id="linear-gradient-6" x1="68.16" y1="162.13" x2="121.45" y2="162.13" gradientUnits="userSpaceOnUse"><stop offset="0" stop-color="#353395"/><stop offset="1" stop-color="#1b1b75"/></linearGradient></defs><title>Asset 3</title><g class="cls-5"><g id="Layer_2" data-name="Layer 2"><g id="Layer_1-2" data-name="Layer 1"><path class="cls-6" d="M183.45,949.65h0V219.28l-51.93,25.24-14.44-7.88c-10.13-5.84-25.45-6.47-34.22-1.4L64.21,246.05l-52-25.26V951.14Z"/><path class="cls-7" d="M183.45,219.28c-.25-3.72-3.07-7.59-8.36-10.65l-58-33c-10.13-5.84-25.45-6.47-34.22-1.41L18.12,211.69c-4.19,2.42-6.12,5.7-5.9,9.1.25,3.72,3.07,7.6,8.36,10.65l58,33c10.13,5.84,25.45,6.47,34.22,1.4l64.75-37.45C181.74,226,183.67,222.69,183.45,219.28Z"/><path class="cls-8" d="M183.45,217.55c-.25-3.72-3.07-7.6-8.36-10.65l-58-33c-10.13-5.85-25.45-6.47-34.22-1.41L18.12,210c-4.19,2.42-6.12,5.7-5.9,9.11.25,3.72,3.07,7.59,8.36,10.65l58,33c10.13,5.85,25.45,6.47,34.22,1.41l64.75-37.45C181.74,224.24,183.67,221,183.45,217.55Z"/><path class="cls-9" d="M123.69,182.54a.66.66,0,0,0-.65.66v24.23a7.84,7.84,0,0,1-5.31,7.42l-26.24,9-11.6-6.7,12-15.5a10.11,10.11,0,0,0,2.09-6.1v-9.32a.65.65,0,0,0-.65-.65h0a.65.65,0,0,0-.65.65v9.32a8.7,8.7,0,0,1-1.82,5.3L78.39,216.9a.66.66,0,0,0-.12.53.7.7,0,0,0,.31.44l12.52,7.22a.62.62,0,0,0,.32.09.49.49,0,0,0,.21,0l26.52-9a9.13,9.13,0,0,0,6.19-8.66V183.2A.66.66,0,0,0,123.69,182.54Z"/><polygon class="cls-10" points="71.18 181.63 98.34 197.31 125.5 181.63 98.34 165.94 71.18 181.63"/><polygon class="cls-10" points="71.18 184.52 98.34 200.2 98.34 197.31 71.18 181.63 71.18 184.52"/><polygon class="cls-9" points="98.34 200.2 125.5 184.52 125.5 181.63 98.34 197.31 98.34 200.2"/><path class="cls-9" d="M127.52,155.77a.66.66,0,0,0-.8.46l-3.23,12.12a13.54,13.54,0,0,0-.45,3.47v9.6a.65.65,0,1,0,1.3,0v-9.6a12.36,12.36,0,0,1,.41-3.14L128,156.57A.64.64,0,0,0,127.52,155.77Z"/><path class="cls-9" d="M102.93,142a.67.67,0,0,0-.8.47l-3.22,12.11a13.55,13.55,0,0,0-.46,3.47v9.6a.66.66,0,1,0,1.31,0v-9.6a12.36,12.36,0,0,1,.41-3.14l3.23-12.11A.66.66,0,0,0,102.93,142Z"/><polygon class="cls-10" points="103.42 131.21 131.3 147.33 133.13 146.29 105.25 130.17 103.42 131.21"/><polygon class="cls-9" points="126.99 164.67 128.82 163.63 133.13 146.29 131.3 147.33 126.99 164.67"/><polygon class="cls-10" points="99.11 148.55 126.99 164.67 131.3 147.33 103.42 131.21 99.11 148.55"/><g class="cls-11"><g class="cls-12"><polygon class="cls-13" points="70.16 224.03 132.34 182.88 140.37 187.33 166.39 202 91.54 234.46 86.07 230.87 118.28 212.84 116.6 207.93 77.95 228.41 70.16 224.03"/></g></g><path class="cls-14" d="M73.9,221.81c-2.78,1.93-13,10.73-9.09,12.26,3.24,1.28,10-3.38,13.44-6.16,2.9-2.33,3.91-4.54,2.07-7.7C79,218,76,220.36,73.9,221.81Z"/><path class="cls-15" d="M73.91,221a44.43,44.43,0,0,0-4.06,3.33c-3.67,3.34-7.72,7.87-5,8.93,3.24,1.28,10-3.38,13.44-6.17,2.91-2.32,3.91-4.53,2.07-7.69C79.06,217.15,76,219.5,73.91,221Z"/><path class="cls-16" d="M93.05,173.66c-8-2.84-28.16-2-27.19,10.74.84,11,7.14,31.08,7.68,39.68.16,2.61,6.75-.26,6.22-2.37-.64-2.54.71-23.87-1.38-35.09-1.48-7.93,30.3-12.19,27-16.73C103.78,167.68,97,175.06,93.05,173.66Z"/><path class="cls-14" d="M88.31,228.54c-2.78,1.93-13,10.73-9.09,12.26,3.24,1.28,10-3.38,13.44-6.16,2.91-2.33,3.91-4.54,2.07-7.7C93.45,224.74,90.4,227.09,88.31,228.54Z"/><path class="cls-15" d="M88.33,227.67c-2.79,1.93-13,10.74-9.1,12.27,3.25,1.28,10-3.38,13.45-6.17,2.9-2.32,3.9-4.53,2.06-7.7C93.47,223.88,90.41,226.23,88.33,227.67Z"/><path class="cls-16" d="M101.06,174.11c-12.08,1.06-26.12,2.6-24.62,13.25,1.54,10.92,11,34.85,11.51,43.45.17,2.61,6.75-.27,6.22-2.37-.64-2.54-1-20.14-3.14-31.36-1.48-7.93,16.18-8,24.39-15.35C132.16,166.69,105.22,173.75,101.06,174.11Z"/><path class="cls-17" d="M105.07,132.79c-2.29-1.52-3.84-3-6.84-2.92a5.13,5.13,0,0,0-2.34.44c-1.72.63-3.94,2.13-6.12,10.87-1.77,7.07.43,11.69,1.09,12.74.93,1.48,4,5.58-.69,10.74-3.1,3.41-15.11,4.36-22,12.73,5.23-.71,14.55,5.38,23.68,17,27.38-7.42,28.32-11.28,29.27-20.11,1.63-15.22-2.83-28.13-7.6-34.67C112,137.48,107.67,134.5,105.07,132.79Z"/><path class="cls-18" d="M96.68,139.9c-.31-.16-.75.09-1,.54s-.14.94.17,1.09.75-.08,1-.54S97,140.05,96.68,139.9Z"/><path class="cls-16" d="M105.19,131.05c-.22-1-1.54-9.07-1.54-9.07s-8.35,4.6-6,6.59c1.67,1.4,1.31,2.41-.88,4.91-1.08,1.24-5.66,9.16,2.78,9.32,4.87.09,12-5.22,11.27-5.84C109.4,135.81,105.42,132.09,105.19,131.05Z"/><path class="cls-16" d="M98.47,115.65c-2.91,0-5.55,2.72-5.37,6.16s1.36,7.59,4.27,7.64,6.23-4,6.28-7.47S101.39,115.7,98.47,115.65Z"/><path class="cls-19" d="M108.07,118c2.08-3.4-1.8-8.65-5.78-5.54-1.37,1.06-1.3.91-4.11.06s-5,2.5-3.87,4.12c.67,1-3.59,2.82-2.63,4.5s3.25,2,6.14,1.37,1.75,2.84,6.42,3c0,0,4.38,2.38,4.63-2.42C109,120.55,106,121.45,108.07,118Z"/><path class="cls-16" d="M101.73,122.26a1,1,0,0,0-1.38.48L99.73,124a1,1,0,1,0,1.86.9l.62-1.27A1,1,0,0,0,101.73,122.26Z"/><path class="cls-15" d="M74.78,169.55a1.87,1.87,0,0,0-1.86,0l-17.25,9.5s-.36,1,1.21,1.92L79.52,194a1.85,1.85,0,0,0,1.85,0l16.23-9.35c1.39-.8,1-1.86,1-1.86Z"/><path class="cls-14" d="M98.29,182.16,74.78,168.62a1.87,1.87,0,0,0-1.86,0L56,178.36a.68.68,0,0,0,0,1.17l23.51,13.55a1.85,1.85,0,0,0,1.85,0l16.92-9.75A.68.68,0,0,0,98.29,182.16Z"/><path class="cls-15" d="M71.5,179.35a.59.59,0,0,0-.6,0l-6,3.45a.22.22,0,0,0,0,.38l8,4.59a.59.59,0,0,0,.6,0l6-3.45a.23.23,0,0,0,0-.39Z"/><path class="cls-15" d="M74.66,170.71a1.82,1.82,0,0,0-1.83,0l-5.9,3.4a.49.49,0,0,0,0,.85l20.39,11.72a1.82,1.82,0,0,0,1.83,0l5.9-3.4a.49.49,0,0,0,0-.85Z"/><path class="cls-16" d="M111.69,141c-5.7-.44.33,18.13-1.2,21.41-3.66,7.88-10.51,9.67-14.44,12.87,0,0-3.49.57-5,1.77-2.72,2.13-7.29,7.14-6.34,7.81.65.46,1.52-.4,1.52-.4s-1.89,1.86-1.07,2.41c.62.42,1.58-.56,1.79-.75-.08.27-.83,1,.1,1.53.59.32,1.53-.67,1.7-.86-.1.12-.38.52.24.79.87.4,3.89-2.24,5.37-3.61,1.93-1.16,4-2.37,4.79-3.48s12.77-5.49,14.55-6.85c4.51-3.44,7.11-11.32,5.72-19.16C118.34,148.55,113.62,141.1,111.69,141Z"/><path class="cls-16" d="M81.34,150.9C78.12,157.21,75,160,73,163.64c0,0-2.84,1.65-3.65,3-1.43,2.47-3.16,7.6-2,7.73.79.09,1.17-.83,1.17-.83s-.81,2,.16,2.07c.74.07,1.15-.95,1.25-1.17,0,.22-.27,1,.79,1,.68,0,1.05-1,1.11-1.21,0,.12-.09.5.57.47,1,0,2.42-3,3.1-4.45,1.18-1.49,2.47-3.09,2.63-4.13s8.79-8.41,9.73-10c1.31-2.19,2.08-3.3,2.2-4.06a29.51,29.51,0,0,1-.85-5.29c0-8.14,4.87-15.46,4.87-15.46C88.85,133.13,85.25,143.22,81.34,150.9Z"/><path class="cls-15" d="M72.52,174.79a5.53,5.53,0,0,0-1.8-2.43L47.41,158.93c-.37-.21-.82,0-.56.61l7.8,19.06A5.46,5.46,0,0,0,56.46,181l23,13.28c.58.33,1.32,0,1.06-.59Z"/><path class="cls-14" d="M72.36,175a5.35,5.35,0,0,0-1.81-2.43L47.24,159.1c-.37-.22-.82,0-.56.6l7.81,19.06a5.34,5.34,0,0,0,1.8,2.43l23.05,13.28c.58.33,1.31.05,1-.58Z"/><g class="cls-20"><path class="cls-21" d="M36,217.79a1.19,1.19,0,0,1,0,2.26,4.28,4.28,0,0,1-3.91,0,1.19,1.19,0,0,1,0-2.26A4.34,4.34,0,0,1,36,217.79Z"/><path class="cls-21" d="M57,205.68a1.19,1.19,0,0,1,0,2.26,4.3,4.3,0,0,1-3.92,0,1.19,1.19,0,0,1,0-2.26A4.36,4.36,0,0,1,57,205.68Z"/><path class="cls-21" d="M77.93,193.57a1.19,1.19,0,0,1,0,2.26,4.28,4.28,0,0,1-3.91,0,1.19,1.19,0,0,1,0-2.26A4.34,4.34,0,0,1,77.93,193.57Z"/><path class="cls-21" d="M98.91,181.46a1.19,1.19,0,0,1,0,2.26,4.3,4.3,0,0,1-3.92,0,1.19,1.19,0,0,1,0-2.26A4.36,4.36,0,0,1,98.91,181.46Z"/><path class="cls-21" d="M57,229.9a1.19,1.19,0,0,1,0,2.26,4.3,4.3,0,0,1-3.92,0,1.19,1.19,0,0,1,0-2.26A4.36,4.36,0,0,1,57,229.9Z"/><path class="cls-21" d="M77.93,217.79a1.19,1.19,0,0,1,0,2.26,4.28,4.28,0,0,1-3.91,0,1.19,1.19,0,0,1,0-2.26A4.34,4.34,0,0,1,77.93,217.79Z"/><path class="cls-21" d="M98.91,205.68a1.19,1.19,0,0,1,0,2.26,4.3,4.3,0,0,1-3.92,0,1.19,1.19,0,0,1,0-2.26A4.36,4.36,0,0,1,98.91,205.68Z"/><path class="cls-21" d="M119.88,193.57a1.19,1.19,0,0,1,0,2.26,4.28,4.28,0,0,1-3.91,0c-1.09-.62-1.09-1.63,0-2.26A4.34,4.34,0,0,1,119.88,193.57Z"/><path class="cls-21" d="M77.93,242a1.19,1.19,0,0,1,0,2.26,4.28,4.28,0,0,1-3.91,0A1.19,1.19,0,0,1,74,242,4.34,4.34,0,0,1,77.93,242Z"/><path class="cls-21" d="M98.91,229.9a1.19,1.19,0,0,1,0,2.26,4.3,4.3,0,0,1-3.92,0,1.19,1.19,0,0,1,0-2.26A4.36,4.36,0,0,1,98.91,229.9Z"/><path class="cls-21" d="M119.88,217.79a1.19,1.19,0,0,1,0,2.26,4.28,4.28,0,0,1-3.91,0,1.19,1.19,0,0,1,0-2.26A4.34,4.34,0,0,1,119.88,217.79Z"/><path class="cls-21" d="M140.86,205.68a1.19,1.19,0,0,1,0,2.26,4.3,4.3,0,0,1-3.92,0,1.19,1.19,0,0,1,0-2.26A4.36,4.36,0,0,1,140.86,205.68Z"/><ellipse class="cls-21" cx="96.95" cy="255.25" rx="2.77" ry="1.6"/><path class="cls-21" d="M119.88,242a1.19,1.19,0,0,1,0,2.26,4.28,4.28,0,0,1-3.91,0,1.19,1.19,0,0,1,0-2.26A4.34,4.34,0,0,1,119.88,242Z"/><path class="cls-21" d="M140.86,229.9a1.19,1.19,0,0,1,0,2.26,4.3,4.3,0,0,1-3.92,0,1.19,1.19,0,0,1,0-2.26A4.36,4.36,0,0,1,140.86,229.9Z"/><path class="cls-21" d="M161.83,217.79a1.19,1.19,0,0,1,0,2.26,4.28,4.28,0,0,1-3.91,0c-1.09-.62-1.09-1.63,0-2.26A4.34,4.34,0,0,1,161.83,217.79Z"/></g><path class="cls-9" d="M58.5,95.41l-51.35-30A14.42,14.42,0,0,1,0,52.92L.22,5.78A5.8,5.8,0,0,1,9,.8l51.35,30a14.42,14.42,0,0,1,7.15,12.52l-.22,47.14A5.8,5.8,0,0,1,58.5,95.41Z"/><polygon class="cls-21" points="7.25 16.95 7.24 20.16 54.61 47.61 54.62 44.4 7.25 16.95"/><polygon class="cls-21" points="57.52 46.09 57.5 49.3 61.17 51.44 61.18 48.23 57.52 46.09"/><polygon class="cls-21" points="7.18 32.59 7.17 35.8 23.25 45.19 23.27 41.98 7.18 32.59"/><polygon class="cls-21" points="25.71 43.44 25.69 46.65 61.17 67.35 61.18 64.14 25.71 43.44"/><polygon class="cls-21" points="7.18 49.1 7.17 52.31 23.25 61.7 23.27 58.49 7.18 49.1"/><polygon class="cls-9" points="42.45 85.95 54.75 108.32 54.82 93.17 42.45 85.95"/><path class="cls-22" d="M112.92,294.83c-3.54-2.52-2.87-9.53,1.49-15.66s10.76-9.06,14.3-6.54,2.87,9.53-1.49,15.66S116.46,297.34,112.92,294.83Z"/><path class="cls-19" d="M118.37,287.69c-1.33-.95-1.08-3.58.56-5.89s4-3.41,5.38-2.46,1.08,3.59-.56,5.89S119.7,288.64,118.37,287.69Z"/><path class="cls-22" d="M137.92,280.83c-3.54-2.52-2.87-9.53,1.49-15.66s10.76-9.06,14.3-6.54,2.87,9.53-1.49,15.66S141.46,283.34,137.92,280.83Z"/><path class="cls-19" d="M143.37,273.69c-1.33-.95-1.08-3.58.56-5.89s4-3.41,5.38-2.46,1.08,3.59-.56,5.89S144.7,274.64,143.37,273.69Z"/></g></g></g></svg>