<svg xmlns="http://www.w3.org/2000/svg" xmlns:xlink="http://www.w3.org/1999/xlink" viewBox="0 0 178.8 186.63"><defs><style>.cls-1{opacity:0.5;fill:url(#linear-gradient);}.cls-2{fill:#ff5a70;}.cls-3{fill:#e0007b;}.cls-4{fill:#fff;}</style><linearGradient id="linear-gradient" x1="15.83" y1="85.17" x2="166.55" y2="85.17" gradientUnits="userSpaceOnUse"><stop offset="0" stop-color="#ff386e"/><stop offset="1" stop-color="#ffa883"/></linearGradient></defs><title>Asset 2</title><g id="Layer_2" data-name="Layer 2"><g id="Layer_1-2" data-name="Layer 1"><path class="cls-1" d="M15.83,37.31,96.88,153.6,166.55,16.74ZM96.48,147.85,21,39.6,161.34,20.44Z"/><polygon class="cls-2" points="149.9 8.34 149.9 24.93 164.35 33.27 164.35 16.68 149.9 8.34"/><polygon class="cls-3" points="178.8 8.34 178.8 24.93 164.35 33.27 164.35 16.68 178.8 8.34"/><polygon class="cls-4" points="149.9 8.34 164.35 0 178.8 8.34 164.35 16.68 149.9 8.34"/><polygon class="cls-2" points="71.7 145.21 71.7 172.77 95.7 186.63 95.7 159.06 71.7 145.21"/><polygon class="cls-3" points="119.7 145.21 119.7 172.77 95.7 186.63 95.7 159.06 119.7 145.21"/><polygon class="cls-4" points="71.7 145.21 95.7 131.35 119.7 145.21 95.7 159.06 71.7 145.21"/><polygon class="cls-2" points="0 29.82 0 47.45 15.35 56.31 15.35 38.68 0 29.82"/><polygon class="cls-3" points="30.7 29.82 30.7 47.45 15.35 56.31 15.35 38.68 30.7 29.82"/><polygon class="cls-4" points="0 29.82 15.35 20.96 30.7 29.82 15.35 38.68 0 29.82"/></g></g></svg>