<svg xmlns="http://www.w3.org/2000/svg" xmlns:xlink="http://www.w3.org/1999/xlink" viewBox="0 0 331.37 661.97"><defs><style>.cls-1,.cls-11,.cls-23,.cls-3,.cls-33,.cls-41,.cls-53{mask:url(#mask);}.cls-1{filter:url(#luminosity-noclip-32);}.cls-10,.cls-12,.cls-14,.cls-16,.cls-18,.cls-2,.cls-20,.cls-22,.cls-24,.cls-26,.cls-28,.cls-30,.cls-32,.cls-34,.cls-36,.cls-38,.cls-4,.cls-40,.cls-42,.cls-44,.cls-46,.cls-48,.cls-50,.cls-52,.cls-54,.cls-56,.cls-58,.cls-6,.cls-60,.cls-62,.cls-78,.cls-8{mix-blend-mode:multiply;}.cls-2{fill:url(#linear-gradient);}.cls-3{filter:url(#luminosity-noclip-37);}.cls-4{fill:url(#linear-gradient-2);}.cls-15,.cls-25,.cls-5{mask:url(#mask-3);}.cls-5{filter:url(#luminosity-noclip-38);}.cls-6{fill:url(#linear-gradient-3);}.cls-19,.cls-29,.cls-35,.cls-7{mask:url(#mask-4);}.cls-7{filter:url(#luminosity-noclip-39);}.cls-8{fill:url(#linear-gradient-4);}.cls-51,.cls-57,.cls-59,.cls-9{mask:url(#mask-5);}.cls-9{filter:url(#luminosity-noclip-40);}.cls-10{fill:url(#linear-gradient-5);}.cls-11{filter:url(#luminosity-noclip-41);}.cls-12{fill:url(#linear-gradient-6);}.cls-13,.cls-17,.cls-27,.cls-37,.cls-43,.cls-47,.cls-55{mask:url(#mask-7);}.cls-13{filter:url(#luminosity-noclip-33);}.cls-14{fill:url(#linear-gradient-7);}.cls-15{filter:url(#luminosity-noclip-42);}.cls-16{fill:url(#linear-gradient-8);}.cls-17{filter:url(#luminosity-noclip-43);}.cls-18{fill:url(#linear-gradient-9);}.cls-19{filter:url(#luminosity-noclip-44);}.cls-20{fill:url(#linear-gradient-10);}.cls-21,.cls-31,.cls-39,.cls-61{mask:url(#mask-11);}.cls-21{filter:url(#luminosity-noclip-45);}.cls-22{fill:url(#linear-gradient-11);}.cls-23{filter:url(#luminosity-noclip-46);}.cls-24{fill:url(#linear-gradient-12);}.cls-25{filter:url(#luminosity-noclip-47);}.cls-26{fill:url(#linear-gradient-13);}.cls-27{filter:url(#luminosity-noclip-48);}.cls-28{fill:url(#linear-gradient-14);}.cls-29{filter:url(#luminosity-noclip-49);}.cls-30{fill:url(#linear-gradient-15);}.cls-31{filter:url(#luminosity-noclip-50);}.cls-32{fill:url(#linear-gradient-16);}.cls-33{filter:url(#luminosity-noclip-51);}.cls-34{fill:url(#linear-gradient-17);}.cls-35{filter:url(#luminosity-noclip-34);}.cls-36{fill:url(#linear-gradient-18);}.cls-37{filter:url(#luminosity-noclip-52);}.cls-38{fill:url(#linear-gradient-19);}.cls-39{filter:url(#luminosity-noclip-53);}.cls-40{fill:url(#linear-gradient-20);}.cls-41{filter:url(#luminosity-noclip-54);}.cls-42{fill:url(#linear-gradient-21);}.cls-43{filter:url(#luminosity-noclip-55);}.cls-44{fill:url(#linear-gradient-22);}.cls-45,.cls-49{mask:url(#mask-23);}.cls-45{filter:url(#luminosity-noclip-56);}.cls-46{fill:url(#linear-gradient-23);}.cls-47{filter:url(#luminosity-noclip-57);}.cls-48{fill:url(#linear-gradient-24);}.cls-49{filter:url(#luminosity-noclip-58);}.cls-50{fill:url(#linear-gradient-25);}.cls-51{filter:url(#luminosity-noclip-59);}.cls-52{fill:url(#linear-gradient-26);}.cls-53{filter:url(#luminosity-noclip-60);}.cls-54{fill:url(#linear-gradient-27);}.cls-55{filter:url(#luminosity-noclip-61);}.cls-56{fill:url(#linear-gradient-28);}.cls-57{filter:url(#luminosity-noclip-35);}.cls-58{fill:url(#linear-gradient-29);}.cls-59{filter:url(#luminosity-noclip-62);}.cls-60{fill:url(#linear-gradient-30);}.cls-61{filter:url(#luminosity-noclip-36);}.cls-62{fill:url(#linear-gradient-31);}.cls-63{isolation:isolate;}.cls-64{fill:url(#linear-gradient-32);}.cls-65{fill:#fff;}.cls-66{fill:url(#linear-gradient-33);}.cls-67{opacity:0.2;}.cls-68{fill:#c0c5f0;}.cls-69{fill:url(#linear-gradient-34);}.cls-70{fill:url(#linear-gradient-35);}.cls-71,.cls-97{fill:#e5e8fe;}.cls-72{fill:#1b1b75;}.cls-73{fill:#4c4aa8;}.cls-74{fill:#f3f4ff;}.cls-75{fill:url(#linear-gradient-36);}.cls-76{fill:#ffd6d6;}.cls-77{fill:url(#linear-gradient-37);}.cls-78{fill:#d4d9fe;}.cls-79{fill:#353395;}.cls-80{fill:url(#linear-gradient-38);}.cls-81{fill:url(#linear-gradient-39);}.cls-82{fill:url(#linear-gradient-40);}.cls-83{fill:url(#linear-gradient-41);}.cls-84{opacity:0.1;}.cls-85{fill:#ff5a70;}.cls-86{fill:#ffae6c;}.cls-87{fill:url(#linear-gradient-42);}.cls-88{fill:url(#linear-gradient-43);}.cls-89{fill:url(#linear-gradient-44);}.cls-90{fill:url(#linear-gradient-45);}.cls-91{fill:url(#linear-gradient-46);}.cls-92{fill:url(#linear-gradient-47);}.cls-93{fill:url(#linear-gradient-48);}.cls-94{fill:url(#linear-gradient-49);}.cls-95{fill:url(#linear-gradient-50);}.cls-96{mask:url(#mask-32);}.cls-97{opacity:0.5;}.cls-98{mask:url(#mask-33);}.cls-99{mask:url(#mask-34);}.cls-100{mask:url(#mask-35);}.cls-101{mask:url(#mask-36);}.cls-102{mask:url(#mask-37);}.cls-103{mask:url(#mask-38);}.cls-104{mask:url(#mask-39);}.cls-105{mask:url(#mask-40);}.cls-106{mask:url(#mask-41);}.cls-107{mask:url(#mask-42);}.cls-108{mask:url(#mask-43);}.cls-109{mask:url(#mask-44);}.cls-110{mask:url(#mask-45);}.cls-111{mask:url(#mask-46);}.cls-112{mask:url(#mask-47);}.cls-113{mask:url(#mask-48);}.cls-114{mask:url(#mask-49);}.cls-115{mask:url(#mask-50);}.cls-116{mask:url(#mask-51);}.cls-117{mask:url(#mask-52);}.cls-118{mask:url(#mask-53);}.cls-119{mask:url(#mask-54);}.cls-120{mask:url(#mask-55);}.cls-121{mask:url(#mask-56);}.cls-122{mask:url(#mask-57);}.cls-123{mask:url(#mask-58);}.cls-124{mask:url(#mask-59);}.cls-125{mask:url(#mask-60);}.cls-126{mask:url(#mask-61);}.cls-127{mask:url(#mask-62);}.cls-128{filter:url(#luminosity-noclip-23);}.cls-129{filter:url(#luminosity-noclip-11);}.cls-130{filter:url(#luminosity-noclip-7);}.cls-131{filter:url(#luminosity-noclip-5);}.cls-132{filter:url(#luminosity-noclip-4);}.cls-133{filter:url(#luminosity-noclip-3);}.cls-134{filter:url(#luminosity-noclip);}</style><filter id="luminosity-noclip" x="133.77" y="-8445.45" width="6.59" height="32766" filterUnits="userSpaceOnUse" color-interpolation-filters="sRGB"><feFlood flood-color="#fff" result="bg"/><feBlend in="SourceGraphic" in2="bg"/></filter><mask id="mask" x="133.77" y="-8445.45" width="6.59" height="32766" maskUnits="userSpaceOnUse"><g class="cls-134"/></mask><linearGradient id="linear-gradient" x1="139.49" y1="384.14" x2="100.48" y2="501.17" gradientTransform="matrix(1, 0.19, 0, 1, 0, -18.3)" gradientUnits="userSpaceOnUse"><stop offset="0" stop-color="#fff"/><stop offset="0.05" stop-color="#f1f1f1"/><stop offset="0.41" stop-color="#8b8b8b"/><stop offset="0.69" stop-color="#404040"/><stop offset="0.9" stop-color="#121212"/><stop offset="1"/></linearGradient><linearGradient id="linear-gradient-2" x1="144.39" y1="385.78" x2="105.38" y2="502.81" xlink:href="#linear-gradient"/><filter id="luminosity-noclip-3" x="120.94" y="-8445.45" width="6.59" height="32766" filterUnits="userSpaceOnUse" color-interpolation-filters="sRGB"><feFlood flood-color="#fff" result="bg"/><feBlend in="SourceGraphic" in2="bg"/></filter><mask id="mask-3" x="120.94" y="-8445.45" width="6.59" height="32766" maskUnits="userSpaceOnUse"><g class="cls-133"/></mask><linearGradient id="linear-gradient-3" x1="131.45" y1="381.46" x2="92.44" y2="498.5" xlink:href="#linear-gradient"/><filter id="luminosity-noclip-4" x="56.81" y="-8445.45" width="6.59" height="32766" filterUnits="userSpaceOnUse" color-interpolation-filters="sRGB"><feFlood flood-color="#fff" result="bg"/><feBlend in="SourceGraphic" in2="bg"/></filter><mask id="mask-4" x="56.81" y="-8445.45" width="6.59" height="32766" maskUnits="userSpaceOnUse"><g class="cls-132"/></mask><linearGradient id="linear-gradient-4" x1="66.72" y1="359.89" x2="27.72" y2="476.92" xlink:href="#linear-gradient"/><filter id="luminosity-noclip-5" x="18.33" y="-8445.45" width="6.59" height="32766" filterUnits="userSpaceOnUse" color-interpolation-filters="sRGB"><feFlood flood-color="#fff" result="bg"/><feBlend in="SourceGraphic" in2="bg"/></filter><mask id="mask-5" x="18.33" y="-8445.45" width="6.59" height="32766" maskUnits="userSpaceOnUse"><g class="cls-131"/></mask><linearGradient id="linear-gradient-5" x1="27.89" y1="346.95" x2="-11.12" y2="463.98" xlink:href="#linear-gradient"/><linearGradient id="linear-gradient-6" x1="149.3" y1="387.41" x2="110.29" y2="504.44" xlink:href="#linear-gradient"/><filter id="luminosity-noclip-7" x="82.46" y="-8445.45" width="6.59" height="32766" filterUnits="userSpaceOnUse" color-interpolation-filters="sRGB"><feFlood flood-color="#fff" result="bg"/><feBlend in="SourceGraphic" in2="bg"/></filter><mask id="mask-7" x="82.46" y="-8445.45" width="6.59" height="32766" maskUnits="userSpaceOnUse"><g class="cls-130"/></mask><linearGradient id="linear-gradient-7" x1="87.71" y1="366.89" x2="48.7" y2="483.92" xlink:href="#linear-gradient"/><linearGradient id="linear-gradient-8" x1="136.35" y1="383.1" x2="97.34" y2="500.13" xlink:href="#linear-gradient"/><linearGradient id="linear-gradient-9" x1="97.52" y1="370.15" x2="58.51" y2="487.19" xlink:href="#linear-gradient"/><linearGradient id="linear-gradient-10" x1="71.63" y1="361.53" x2="32.62" y2="478.56" xlink:href="#linear-gradient"/><filter id="luminosity-noclip-11" x="5.5" y="-8445.45" width="6.59" height="32766" filterUnits="userSpaceOnUse" color-interpolation-filters="sRGB"><feFlood flood-color="#fff" result="bg"/><feBlend in="SourceGraphic" in2="bg"/></filter><mask id="mask-11" x="5.5" y="-8445.45" width="6.59" height="32766" maskUnits="userSpaceOnUse"><g class="cls-129"/></mask><linearGradient id="linear-gradient-11" x1="19.85" y1="344.27" x2="-19.16" y2="461.3" xlink:href="#linear-gradient"/><linearGradient id="linear-gradient-12" x1="154.2" y1="389.05" x2="115.19" y2="506.08" xlink:href="#linear-gradient"/><linearGradient id="linear-gradient-13" x1="141.25" y1="384.73" x2="102.24" y2="501.76" xlink:href="#linear-gradient"/><linearGradient id="linear-gradient-14" x1="102.42" y1="371.79" x2="63.41" y2="488.82" xlink:href="#linear-gradient"/><linearGradient id="linear-gradient-15" x1="76.53" y1="363.16" x2="37.52" y2="480.19" xlink:href="#linear-gradient"/><linearGradient id="linear-gradient-16" x1="24.75" y1="345.9" x2="-14.26" y2="462.93" xlink:href="#linear-gradient"/><linearGradient id="linear-gradient-17" x1="159.1" y1="390.68" x2="120.09" y2="507.71" xlink:href="#linear-gradient"/><linearGradient id="linear-gradient-18" x1="61.82" y1="358.26" x2="22.81" y2="475.29" xlink:href="#linear-gradient"/><linearGradient id="linear-gradient-19" x1="107.32" y1="373.42" x2="68.31" y2="490.46" xlink:href="#linear-gradient"/><linearGradient id="linear-gradient-20" x1="29.65" y1="347.54" x2="-9.36" y2="464.57" xlink:href="#linear-gradient"/><linearGradient id="linear-gradient-21" x1="164" y1="392.32" x2="124.99" y2="509.35" xlink:href="#linear-gradient"/><linearGradient id="linear-gradient-22" x1="112.22" y1="375.06" x2="73.21" y2="492.09" xlink:href="#linear-gradient"/><filter id="luminosity-noclip-23" x="43.98" y="-8445.45" width="6.59" height="32766" filterUnits="userSpaceOnUse" color-interpolation-filters="sRGB"><feFlood flood-color="#fff" result="bg"/><feBlend in="SourceGraphic" in2="bg"/></filter><mask id="mask-23" x="43.98" y="-8445.45" width="6.59" height="32766" maskUnits="userSpaceOnUse"><g class="cls-128"/></mask><linearGradient id="linear-gradient-23" x1="73.39" y1="362.11" x2="34.38" y2="479.15" xlink:href="#linear-gradient"/><linearGradient id="linear-gradient-24" x1="117.12" y1="376.69" x2="78.11" y2="493.72" xlink:href="#linear-gradient"/><linearGradient id="linear-gradient-25" x1="78.29" y1="363.75" x2="39.28" y2="480.78" xlink:href="#linear-gradient"/><linearGradient id="linear-gradient-26" x1="52.4" y1="355.12" x2="13.39" y2="472.15" xlink:href="#linear-gradient"/><linearGradient id="linear-gradient-27" x1="173.8" y1="395.59" x2="134.79" y2="512.62" xlink:href="#linear-gradient"/><linearGradient id="linear-gradient-28" x1="122.03" y1="378.33" x2="83.02" y2="495.36" xlink:href="#linear-gradient"/><linearGradient id="linear-gradient-29" x1="22.99" y1="345.31" x2="-16.02" y2="462.34" xlink:href="#linear-gradient"/><linearGradient id="linear-gradient-30" x1="57.3" y1="356.76" x2="18.29" y2="473.79" xlink:href="#linear-gradient"/><linearGradient id="linear-gradient-31" x1="10.04" y1="341.01" x2="-28.97" y2="458.04" xlink:href="#linear-gradient"/><linearGradient id="linear-gradient-32" x1="187.7" y1="465.03" x2="149.73" y2="465.03" gradientUnits="userSpaceOnUse"><stop offset="0" stop-color="#e5e8fe"/><stop offset="1" stop-color="#f3f4ff"/></linearGradient><linearGradient id="linear-gradient-33" y1="296.53" x2="331.37" y2="296.53" gradientUnits="userSpaceOnUse"><stop offset="0" stop-color="#fff"/><stop offset="1" stop-color="#f3f4ff"/></linearGradient><linearGradient id="linear-gradient-34" x1="-325.81" y1="240.11" x2="-442.28" y2="240.11" gradientTransform="matrix(-1, 0, 0, 1, -121.97, 0)" gradientUnits="userSpaceOnUse"><stop offset="0.39" stop-color="#f3f4ff"/><stop offset="0.6" stop-color="#e5e8fe"/></linearGradient><linearGradient id="linear-gradient-35" x1="-432.39" y1="191" x2="-214.55" y2="191" gradientTransform="matrix(-1, 0, 0, 1, -121.97, 0)" xlink:href="#linear-gradient-33"/><linearGradient id="linear-gradient-36" x1="-224.9" y1="187.24" x2="-253.53" y2="170.86" gradientTransform="matrix(-1, 0, 0, 1, -121.97, 0)" gradientUnits="userSpaceOnUse"><stop offset="0" stop-color="#ff5a70"/><stop offset="1" stop-color="#ffae6c"/></linearGradient><linearGradient id="linear-gradient-37" x1="-220.43" y1="207.26" x2="-293.34" y2="171.26" xlink:href="#linear-gradient-36"/><linearGradient id="linear-gradient-38" x1="-219.32" y1="205.01" x2="-292.22" y2="169.01" xlink:href="#linear-gradient-36"/><linearGradient id="linear-gradient-39" x1="-360.25" y1="108.63" x2="-370.32" y2="126.39" gradientTransform="matrix(-1, 0, 0, 1, -122.33, 0.1)" gradientUnits="userSpaceOnUse"><stop offset="0" stop-color="#4c4aa8"/><stop offset="1" stop-color="#353395"/></linearGradient><linearGradient id="linear-gradient-40" x1="-353.57" y1="99.85" x2="-245.74" y2="98.58" gradientTransform="matrix(-1, 0, 0, 1, -122.33, 0.1)" gradientUnits="userSpaceOnUse"><stop offset="0" stop-color="#1b1b75"/><stop offset="1" stop-color="#353395"/></linearGradient><linearGradient id="linear-gradient-41" x1="-482.37" y1="106.12" x2="36.86" y2="81.75" gradientTransform="matrix(-1, 0, 0, 1, -122.33, 0.1)" gradientUnits="userSpaceOnUse"><stop offset="0" stop-color="#1b1b75"/><stop offset="1" stop-color="#5468f9"/></linearGradient><linearGradient id="linear-gradient-42" x1="1393.31" y1="124.14" x2="1380.93" y2="145.85" gradientTransform="translate(-1126.9 -3.77) rotate(0.19)" xlink:href="#linear-gradient-36"/><linearGradient id="linear-gradient-43" x1="1388.77" y1="125.44" x2="1376.38" y2="147.15" gradientTransform="translate(-1126.9 -3.77) rotate(0.19)" xlink:href="#linear-gradient-36"/><linearGradient id="linear-gradient-44" x1="-350.16" y1="212.06" x2="-280.02" y2="207.67" gradientTransform="matrix(-1, 0, 0, 1, -121.97, 0)" gradientUnits="userSpaceOnUse"><stop offset="0" stop-color="#353395"/><stop offset="1" stop-color="#1b1b75"/></linearGradient><linearGradient id="linear-gradient-45" x1="-349.03" y1="230.11" x2="-278.9" y2="225.72" xlink:href="#linear-gradient-44"/><linearGradient id="linear-gradient-46" x1="-352.27" y1="178.32" x2="-282.13" y2="173.94" xlink:href="#linear-gradient-44"/><linearGradient id="linear-gradient-47" x1="173.87" y1="101.35" x2="204.23" y2="101.35" gradientTransform="matrix(1, 0, 0, 1, 0, 0)" xlink:href="#linear-gradient-36"/><linearGradient id="linear-gradient-48" x1="174.64" y1="60.53" x2="205" y2="60.53" gradientTransform="matrix(1, 0, 0, 1, 0, 0)" xlink:href="#linear-gradient-36"/><linearGradient id="linear-gradient-49" x1="177.87" y1="99.35" x2="208.23" y2="99.35" gradientTransform="matrix(1, 0, 0, 1, 0, 0)" xlink:href="#linear-gradient-36"/><linearGradient id="linear-gradient-50" x1="178.64" y1="58.53" x2="209" y2="58.53" gradientTransform="matrix(1, 0, 0, 1, 0, 0)" xlink:href="#linear-gradient-36"/><filter id="luminosity-noclip-32" x="133.77" y="392.88" width="6.59" height="11.72" filterUnits="userSpaceOnUse" color-interpolation-filters="sRGB"><feFlood flood-color="#fff" result="bg"/><feBlend in="SourceGraphic" in2="bg"/></filter><mask id="mask-32" x="133.77" y="392.88" width="6.59" height="11.72" maskUnits="userSpaceOnUse"><g class="cls-1"><polygon class="cls-2" points="133.77 392.88 133.77 400.98 140.37 404.61 140.37 396.52 133.77 392.88"/></g></mask><filter id="luminosity-noclip-33" x="82.46" y="364.62" width="6.59" height="11.72" filterUnits="userSpaceOnUse" color-interpolation-filters="sRGB"><feFlood flood-color="#fff" result="bg"/><feBlend in="SourceGraphic" in2="bg"/></filter><mask id="mask-33" x="82.46" y="364.62" width="6.59" height="11.72" maskUnits="userSpaceOnUse"><g class="cls-13"><polygon class="cls-14" points="82.46 364.62 82.46 372.71 89.06 376.34 89.06 368.25 82.46 364.62"/></g></mask><filter id="luminosity-noclip-34" x="56.81" y="350.48" width="6.59" height="11.72" filterUnits="userSpaceOnUse" color-interpolation-filters="sRGB"><feFlood flood-color="#fff" result="bg"/><feBlend in="SourceGraphic" in2="bg"/></filter><mask id="mask-34" x="56.81" y="350.48" width="6.59" height="11.72" maskUnits="userSpaceOnUse"><g class="cls-35"><polygon class="cls-36" points="56.81 350.48 56.81 358.57 63.4 362.21 63.4 354.12 56.81 350.48"/></g></mask><filter id="luminosity-noclip-35" x="18.33" y="329.28" width="6.59" height="11.72" filterUnits="userSpaceOnUse" color-interpolation-filters="sRGB"><feFlood flood-color="#fff" result="bg"/><feBlend in="SourceGraphic" in2="bg"/></filter><mask id="mask-35" x="18.33" y="329.28" width="6.59" height="11.72" maskUnits="userSpaceOnUse"><g class="cls-57"><polygon class="cls-58" points="18.33 329.28 18.33 337.37 24.92 341.01 24.92 332.92 18.33 329.28"/></g></mask><filter id="luminosity-noclip-36" x="5.5" y="322.22" width="6.59" height="11.72" filterUnits="userSpaceOnUse" color-interpolation-filters="sRGB"><feFlood flood-color="#fff" result="bg"/><feBlend in="SourceGraphic" in2="bg"/></filter><mask id="mask-36" x="5.5" y="322.22" width="6.59" height="11.72" maskUnits="userSpaceOnUse"><g class="cls-61"><polygon class="cls-62" points="5.5 322.22 5.5 330.31 12.1 333.94 12.1 325.85 5.5 322.22"/></g></mask><filter id="luminosity-noclip-37" x="133.77" y="409.22" width="6.59" height="11.72" filterUnits="userSpaceOnUse" color-interpolation-filters="sRGB"><feFlood flood-color="#fff" result="bg"/><feBlend in="SourceGraphic" in2="bg"/></filter><mask id="mask-37" x="133.77" y="409.22" width="6.59" height="11.72" maskUnits="userSpaceOnUse"><g class="cls-3"><polygon class="cls-4" points="133.77 409.22 133.77 417.31 140.37 420.95 140.37 412.86 133.77 409.22"/></g></mask><filter id="luminosity-noclip-38" x="120.94" y="402.16" width="6.59" height="11.72" filterUnits="userSpaceOnUse" color-interpolation-filters="sRGB"><feFlood flood-color="#fff" result="bg"/><feBlend in="SourceGraphic" in2="bg"/></filter><mask id="mask-38" x="120.94" y="402.16" width="6.59" height="11.72" maskUnits="userSpaceOnUse"><g class="cls-5"><polygon class="cls-6" points="120.94 402.16 120.94 410.25 127.54 413.88 127.54 405.79 120.94 402.16"/></g></mask><filter id="luminosity-noclip-39" x="56.81" y="366.82" width="6.59" height="11.72" filterUnits="userSpaceOnUse" color-interpolation-filters="sRGB"><feFlood flood-color="#fff" result="bg"/><feBlend in="SourceGraphic" in2="bg"/></filter><mask id="mask-39" x="56.81" y="366.82" width="6.59" height="11.72" maskUnits="userSpaceOnUse"><g class="cls-7"><polygon class="cls-8" points="56.81 366.82 56.81 374.91 63.4 378.55 63.4 370.46 56.81 366.82"/></g></mask><filter id="luminosity-noclip-40" x="18.33" y="345.62" width="6.59" height="11.72" filterUnits="userSpaceOnUse" color-interpolation-filters="sRGB"><feFlood flood-color="#fff" result="bg"/><feBlend in="SourceGraphic" in2="bg"/></filter><mask id="mask-40" x="18.33" y="345.62" width="6.59" height="11.72" maskUnits="userSpaceOnUse"><g class="cls-9"><polygon class="cls-10" points="18.33 345.62 18.33 353.71 24.92 357.35 24.92 349.25 18.33 345.62"/></g></mask><filter id="luminosity-noclip-41" x="133.77" y="425.56" width="6.59" height="11.72" filterUnits="userSpaceOnUse" color-interpolation-filters="sRGB"><feFlood flood-color="#fff" result="bg"/><feBlend in="SourceGraphic" in2="bg"/></filter><mask id="mask-41" x="133.77" y="425.56" width="6.59" height="11.72" maskUnits="userSpaceOnUse"><g class="cls-11"><polygon class="cls-12" points="133.77 425.56 133.77 433.65 140.37 437.29 140.37 429.2 133.77 425.56"/></g></mask><filter id="luminosity-noclip-42" x="120.94" y="418.5" width="6.59" height="11.72" filterUnits="userSpaceOnUse" color-interpolation-filters="sRGB"><feFlood flood-color="#fff" result="bg"/><feBlend in="SourceGraphic" in2="bg"/></filter><mask id="mask-42" x="120.94" y="418.5" width="6.59" height="11.72" maskUnits="userSpaceOnUse"><g class="cls-15"><polygon class="cls-16" points="120.94 418.5 120.94 426.59 127.54 430.22 127.54 422.13 120.94 418.5"/></g></mask><filter id="luminosity-noclip-43" x="82.46" y="397.3" width="6.59" height="11.72" filterUnits="userSpaceOnUse" color-interpolation-filters="sRGB"><feFlood flood-color="#fff" result="bg"/><feBlend in="SourceGraphic" in2="bg"/></filter><mask id="mask-43" x="82.46" y="397.3" width="6.59" height="11.72" maskUnits="userSpaceOnUse"><g class="cls-17"><polygon class="cls-18" points="82.46 397.3 82.46 405.39 89.06 409.02 89.06 400.93 82.46 397.3"/></g></mask><filter id="luminosity-noclip-44" x="56.81" y="383.16" width="6.59" height="11.72" filterUnits="userSpaceOnUse" color-interpolation-filters="sRGB"><feFlood flood-color="#fff" result="bg"/><feBlend in="SourceGraphic" in2="bg"/></filter><mask id="mask-44" x="56.81" y="383.16" width="6.59" height="11.72" maskUnits="userSpaceOnUse"><g class="cls-19"><polygon class="cls-20" points="56.81 383.16 56.81 391.25 63.4 394.89 63.4 386.8 56.81 383.16"/></g></mask><filter id="luminosity-noclip-45" x="5.5" y="354.9" width="6.59" height="11.72" filterUnits="userSpaceOnUse" color-interpolation-filters="sRGB"><feFlood flood-color="#fff" result="bg"/><feBlend in="SourceGraphic" in2="bg"/></filter><mask id="mask-45" x="5.5" y="354.9" width="6.59" height="11.72" maskUnits="userSpaceOnUse"><g class="cls-21"><polygon class="cls-22" points="5.5 354.9 5.5 362.99 12.1 366.62 12.1 358.53 5.5 354.9"/></g></mask><filter id="luminosity-noclip-46" x="133.77" y="441.9" width="6.59" height="11.72" filterUnits="userSpaceOnUse" color-interpolation-filters="sRGB"><feFlood flood-color="#fff" result="bg"/><feBlend in="SourceGraphic" in2="bg"/></filter><mask id="mask-46" x="133.77" y="441.9" width="6.59" height="11.72" maskUnits="userSpaceOnUse"><g class="cls-23"><polygon class="cls-24" points="133.77 441.9 133.77 449.99 140.37 453.63 140.37 445.54 133.77 441.9"/></g></mask><filter id="luminosity-noclip-47" x="120.94" y="434.84" width="6.59" height="11.72" filterUnits="userSpaceOnUse" color-interpolation-filters="sRGB"><feFlood flood-color="#fff" result="bg"/><feBlend in="SourceGraphic" in2="bg"/></filter><mask id="mask-47" x="120.94" y="434.84" width="6.59" height="11.72" maskUnits="userSpaceOnUse"><g class="cls-25"><polygon class="cls-26" points="120.94 434.84 120.94 442.93 127.54 446.56 127.54 438.47 120.94 434.84"/></g></mask><filter id="luminosity-noclip-48" x="82.46" y="413.64" width="6.59" height="11.72" filterUnits="userSpaceOnUse" color-interpolation-filters="sRGB"><feFlood flood-color="#fff" result="bg"/><feBlend in="SourceGraphic" in2="bg"/></filter><mask id="mask-48" x="82.46" y="413.64" width="6.59" height="11.72" maskUnits="userSpaceOnUse"><g class="cls-27"><polygon class="cls-28" points="82.46 413.64 82.46 421.73 89.06 425.36 89.06 417.27 82.46 413.64"/></g></mask><filter id="luminosity-noclip-49" x="56.81" y="399.5" width="6.59" height="11.72" filterUnits="userSpaceOnUse" color-interpolation-filters="sRGB"><feFlood flood-color="#fff" result="bg"/><feBlend in="SourceGraphic" in2="bg"/></filter><mask id="mask-49" x="56.81" y="399.5" width="6.59" height="11.72" maskUnits="userSpaceOnUse"><g class="cls-29"><polygon class="cls-30" points="56.81 399.5 56.81 407.59 63.4 411.23 63.4 403.13 56.81 399.5"/></g></mask><filter id="luminosity-noclip-50" x="5.5" y="371.24" width="6.59" height="11.72" filterUnits="userSpaceOnUse" color-interpolation-filters="sRGB"><feFlood flood-color="#fff" result="bg"/><feBlend in="SourceGraphic" in2="bg"/></filter><mask id="mask-50" x="5.5" y="371.24" width="6.59" height="11.72" maskUnits="userSpaceOnUse"><g class="cls-31"><polygon class="cls-32" points="5.5 371.24 5.5 379.33 12.1 382.96 12.1 374.87 5.5 371.24"/></g></mask><filter id="luminosity-noclip-51" x="133.77" y="458.24" width="6.59" height="11.72" filterUnits="userSpaceOnUse" color-interpolation-filters="sRGB"><feFlood flood-color="#fff" result="bg"/><feBlend in="SourceGraphic" in2="bg"/></filter><mask id="mask-51" x="133.77" y="458.24" width="6.59" height="11.72" maskUnits="userSpaceOnUse"><g class="cls-33"><polygon class="cls-34" points="133.77 458.24 133.77 466.33 140.37 469.97 140.37 461.88 133.77 458.24"/></g></mask><filter id="luminosity-noclip-52" x="82.46" y="429.98" width="6.59" height="11.72" filterUnits="userSpaceOnUse" color-interpolation-filters="sRGB"><feFlood flood-color="#fff" result="bg"/><feBlend in="SourceGraphic" in2="bg"/></filter><mask id="mask-52" x="82.46" y="429.98" width="6.59" height="11.72" maskUnits="userSpaceOnUse"><g class="cls-37"><polygon class="cls-38" points="82.46 429.98 82.46 438.07 89.06 441.7 89.06 433.61 82.46 429.98"/></g></mask><filter id="luminosity-noclip-53" x="5.5" y="387.58" width="6.59" height="11.72" filterUnits="userSpaceOnUse" color-interpolation-filters="sRGB"><feFlood flood-color="#fff" result="bg"/><feBlend in="SourceGraphic" in2="bg"/></filter><mask id="mask-53" x="5.5" y="387.58" width="6.59" height="11.72" maskUnits="userSpaceOnUse"><g class="cls-39"><polygon class="cls-40" points="5.5 387.57 5.5 395.67 12.1 399.3 12.1 391.21 5.5 387.57"/></g></mask><filter id="luminosity-noclip-54" x="133.77" y="474.58" width="6.59" height="11.72" filterUnits="userSpaceOnUse" color-interpolation-filters="sRGB"><feFlood flood-color="#fff" result="bg"/><feBlend in="SourceGraphic" in2="bg"/></filter><mask id="mask-54" x="133.77" y="474.58" width="6.59" height="11.72" maskUnits="userSpaceOnUse"><g class="cls-41"><polygon class="cls-42" points="133.77 474.58 133.77 482.67 140.37 486.31 140.37 478.22 133.77 474.58"/></g></mask><filter id="luminosity-noclip-55" x="82.46" y="446.32" width="6.59" height="11.72" filterUnits="userSpaceOnUse" color-interpolation-filters="sRGB"><feFlood flood-color="#fff" result="bg"/><feBlend in="SourceGraphic" in2="bg"/></filter><mask id="mask-55" x="82.46" y="446.32" width="6.59" height="11.72" maskUnits="userSpaceOnUse"><g class="cls-43"><polygon class="cls-44" points="82.46 446.32 82.46 454.41 89.06 458.04 89.06 449.95 82.46 446.32"/></g></mask><filter id="luminosity-noclip-56" x="43.98" y="425.12" width="6.59" height="11.72" filterUnits="userSpaceOnUse" color-interpolation-filters="sRGB"><feFlood flood-color="#fff" result="bg"/><feBlend in="SourceGraphic" in2="bg"/></filter><mask id="mask-56" x="43.98" y="425.12" width="6.59" height="11.72" maskUnits="userSpaceOnUse"><g class="cls-45"><polygon class="cls-46" points="43.98 425.12 43.98 433.21 50.58 436.84 50.58 428.75 43.98 425.12"/></g></mask><filter id="luminosity-noclip-57" x="82.46" y="462.66" width="6.59" height="11.72" filterUnits="userSpaceOnUse" color-interpolation-filters="sRGB"><feFlood flood-color="#fff" result="bg"/><feBlend in="SourceGraphic" in2="bg"/></filter><mask id="mask-57" x="82.46" y="462.66" width="6.59" height="11.72" maskUnits="userSpaceOnUse"><g class="cls-47"><polygon class="cls-48" points="82.46 462.65 82.46 470.75 89.06 474.38 89.06 466.29 82.46 462.65"/></g></mask><filter id="luminosity-noclip-58" x="43.98" y="441.45" width="6.59" height="11.72" filterUnits="userSpaceOnUse" color-interpolation-filters="sRGB"><feFlood flood-color="#fff" result="bg"/><feBlend in="SourceGraphic" in2="bg"/></filter><mask id="mask-58" x="43.98" y="441.45" width="6.59" height="11.72" maskUnits="userSpaceOnUse"><g class="cls-49"><polygon class="cls-50" points="43.98 441.45 43.98 449.55 50.58 453.18 50.58 445.09 43.98 441.45"/></g></mask><filter id="luminosity-noclip-59" x="18.33" y="427.32" width="6.59" height="11.72" filterUnits="userSpaceOnUse" color-interpolation-filters="sRGB"><feFlood flood-color="#fff" result="bg"/><feBlend in="SourceGraphic" in2="bg"/></filter><mask id="mask-59" x="18.33" y="427.32" width="6.59" height="11.72" maskUnits="userSpaceOnUse"><g class="cls-51"><polygon class="cls-52" points="18.33 427.32 18.33 435.41 24.92 439.05 24.92 430.95 18.33 427.32"/></g></mask><filter id="luminosity-noclip-60" x="133.77" y="507.26" width="6.59" height="11.72" filterUnits="userSpaceOnUse" color-interpolation-filters="sRGB"><feFlood flood-color="#fff" result="bg"/><feBlend in="SourceGraphic" in2="bg"/></filter><mask id="mask-60" x="133.77" y="507.26" width="6.59" height="11.72" maskUnits="userSpaceOnUse"><g class="cls-53"><polygon class="cls-54" points="133.77 507.26 133.77 515.35 140.37 518.99 140.37 510.89 133.77 507.26"/></g></mask><filter id="luminosity-noclip-61" x="82.46" y="479" width="6.59" height="11.72" filterUnits="userSpaceOnUse" color-interpolation-filters="sRGB"><feFlood flood-color="#fff" result="bg"/><feBlend in="SourceGraphic" in2="bg"/></filter><mask id="mask-61" x="82.46" y="479" width="6.59" height="11.72" maskUnits="userSpaceOnUse"><g class="cls-55"><polygon class="cls-56" points="82.46 479 82.46 487.09 89.06 490.72 89.06 482.63 82.46 479"/></g></mask><filter id="luminosity-noclip-62" x="18.33" y="443.66" width="6.59" height="11.72" filterUnits="userSpaceOnUse" color-interpolation-filters="sRGB"><feFlood flood-color="#fff" result="bg"/><feBlend in="SourceGraphic" in2="bg"/></filter><mask id="mask-62" x="18.33" y="443.66" width="6.59" height="11.72" maskUnits="userSpaceOnUse"><g class="cls-59"><polygon class="cls-60" points="18.33 443.66 18.33 451.75 24.92 455.38 24.92 447.29 18.33 443.66"/></g></mask></defs><title>Asset 4</title><g class="cls-63"><g id="Layer_2" data-name="Layer 2"><g id="Layer_1-2" data-name="Layer 1"><path class="cls-64" d="M331.35,662h0V298.38l-55.64,27L185.3,273.25c-10.86-6.26-27.27-6.93-36.66-1.5l-92.92,53.7L0,298.38V662Z"/><path class="cls-65" d="M331.35,298.38c-.26-4-3.28-8.14-9-11.41L185.3,207.89c-10.86-6.26-27.27-6.93-36.66-1.5L6.33,288.63c-4.48,2.59-6.55,6.1-6.31,9.75.26,4,3.28,8.14,9,11.41l137.11,79.08c10.85,6.26,27.26,6.93,36.65,1.5L325,308.14C329.52,305.54,331.59,302,331.35,298.38Z"/><path class="cls-66" d="M331.35,296.53c-.26-4-3.28-8.14-9-11.41L185.3,206c-10.86-6.26-27.27-6.94-36.66-1.51L6.33,286.77c-4.48,2.59-6.55,6.11-6.31,9.76.26,4,3.28,8.13,9,11.4L146.08,387c10.85,6.26,27.26,6.94,36.65,1.51L325,306.28C329.52,303.69,331.59,300.17,331.35,296.53Z"/><g class="cls-67"><path class="cls-68" d="M42.29,296.61c1.09.62,1.09,1.63,0,2.26a4.34,4.34,0,0,1-3.91,0,1.19,1.19,0,0,1,0-2.26A4.28,4.28,0,0,1,42.29,296.61Z"/><path class="cls-68" d="M63.27,284.5a1.19,1.19,0,0,1,0,2.26,4.36,4.36,0,0,1-3.92,0,1.19,1.19,0,0,1,0-2.26A4.3,4.3,0,0,1,63.27,284.5Z"/><path class="cls-68" d="M84.24,272.39a1.19,1.19,0,0,1,0,2.26,4.34,4.34,0,0,1-3.91,0,1.19,1.19,0,0,1,0-2.26A4.28,4.28,0,0,1,84.24,272.39Z"/><path class="cls-68" d="M105.22,260.28a1.19,1.19,0,0,1,0,2.26,4.36,4.36,0,0,1-3.92,0,1.19,1.19,0,0,1,0-2.26A4.3,4.3,0,0,1,105.22,260.28Z"/><path class="cls-68" d="M63.27,308.72a1.19,1.19,0,0,1,0,2.26,4.36,4.36,0,0,1-3.92,0,1.19,1.19,0,0,1,0-2.26A4.3,4.3,0,0,1,63.27,308.72Z"/><path class="cls-68" d="M84.24,296.61a1.19,1.19,0,0,1,0,2.26,4.34,4.34,0,0,1-3.91,0,1.19,1.19,0,0,1,0-2.26A4.28,4.28,0,0,1,84.24,296.61Z"/><path class="cls-68" d="M105.22,284.5a1.19,1.19,0,0,1,0,2.26,4.36,4.36,0,0,1-3.92,0,1.19,1.19,0,0,1,0-2.26A4.3,4.3,0,0,1,105.22,284.5Z"/><path class="cls-68" d="M126.19,272.39a1.19,1.19,0,0,1,0,2.26,4.34,4.34,0,0,1-3.91,0,1.19,1.19,0,0,1,0-2.26A4.28,4.28,0,0,1,126.19,272.39Z"/><path class="cls-68" d="M84.24,320.83c1.09.62,1.09,1.63,0,2.26a4.34,4.34,0,0,1-3.91,0,1.19,1.19,0,0,1,0-2.26A4.28,4.28,0,0,1,84.24,320.83Z"/><path class="cls-68" d="M105.22,308.72a1.19,1.19,0,0,1,0,2.26,4.36,4.36,0,0,1-3.92,0,1.19,1.19,0,0,1,0-2.26A4.3,4.3,0,0,1,105.22,308.72Z"/><path class="cls-68" d="M126.19,296.61a1.19,1.19,0,0,1,0,2.26,4.34,4.34,0,0,1-3.91,0,1.19,1.19,0,0,1,0-2.26A4.28,4.28,0,0,1,126.19,296.61Z"/><path class="cls-68" d="M147.17,284.5a1.19,1.19,0,0,1,0,2.26,4.36,4.36,0,0,1-3.92,0,1.19,1.19,0,0,1,0-2.26A4.3,4.3,0,0,1,147.17,284.5Z"/><ellipse class="cls-68" cx="103.26" cy="334.07" rx="2.77" ry="1.6"/><path class="cls-68" d="M126.19,320.83a1.19,1.19,0,0,1,0,2.26,4.34,4.34,0,0,1-3.91,0,1.19,1.19,0,0,1,0-2.26A4.28,4.28,0,0,1,126.19,320.83Z"/><path class="cls-68" d="M147.17,308.72a1.19,1.19,0,0,1,0,2.26,4.36,4.36,0,0,1-3.92,0,1.19,1.19,0,0,1,0-2.26A4.3,4.3,0,0,1,147.17,308.72Z"/><path class="cls-68" d="M168.14,296.61a1.19,1.19,0,0,1,0,2.26,4.34,4.34,0,0,1-3.91,0,1.19,1.19,0,0,1,0-2.26A4.28,4.28,0,0,1,168.14,296.61Z"/><path class="cls-68" d="M126.19,345.05a1.19,1.19,0,0,1,0,2.26,4.34,4.34,0,0,1-3.91,0,1.19,1.19,0,0,1,0-2.26A4.28,4.28,0,0,1,126.19,345.05Z"/><path class="cls-68" d="M147.17,332.94a1.19,1.19,0,0,1,0,2.26,4.36,4.36,0,0,1-3.92,0,1.19,1.19,0,0,1,0-2.26A4.3,4.3,0,0,1,147.17,332.94Z"/><path class="cls-68" d="M168.14,320.83a1.19,1.19,0,0,1,0,2.26,4.34,4.34,0,0,1-3.91,0,1.19,1.19,0,0,1,0-2.26A4.28,4.28,0,0,1,168.14,320.83Z"/><path class="cls-68" d="M189.12,308.72a1.19,1.19,0,0,1,0,2.26,4.36,4.36,0,0,1-3.92,0,1.19,1.19,0,0,1,0-2.26A4.3,4.3,0,0,1,189.12,308.72Z"/><path class="cls-68" d="M189.12,308.72a1.19,1.19,0,0,1,0,2.26,4.36,4.36,0,0,1-3.92,0,1.19,1.19,0,0,1,0-2.26A4.3,4.3,0,0,1,189.12,308.72Z"/><path class="cls-68" d="M126.19,248.17a1.19,1.19,0,0,1,0,2.26,4.34,4.34,0,0,1-3.91,0c-1.09-.63-1.09-1.64,0-2.26A4.28,4.28,0,0,1,126.19,248.17Z"/><path class="cls-68" d="M147.17,236.06a1.19,1.19,0,0,1,0,2.26,4.36,4.36,0,0,1-3.92,0,1.19,1.19,0,0,1,0-2.26A4.3,4.3,0,0,1,147.17,236.06Z"/><path class="cls-68" d="M168.14,224a1.19,1.19,0,0,1,0,2.26,4.36,4.36,0,0,1-3.92,0,1.19,1.19,0,0,1,0-2.26A4.3,4.3,0,0,1,168.14,224Z"/><path class="cls-68" d="M147.17,260.28a1.19,1.19,0,0,1,0,2.26,4.36,4.36,0,0,1-3.92,0,1.19,1.19,0,0,1,0-2.26A4.3,4.3,0,0,1,147.17,260.28Z"/><path class="cls-68" d="M168.14,248.17a1.19,1.19,0,0,1,0,2.26,4.34,4.34,0,0,1-3.91,0c-1.09-.63-1.09-1.64,0-2.26A4.28,4.28,0,0,1,168.14,248.17Z"/><path class="cls-68" d="M189.11,236.06a1.19,1.19,0,0,1,0,2.26,4.34,4.34,0,0,1-3.91,0,1.19,1.19,0,0,1,0-2.26A4.28,4.28,0,0,1,189.11,236.06Z"/><path class="cls-68" d="M168.14,272.39a1.19,1.19,0,0,1,0,2.26,4.34,4.34,0,0,1-3.91,0c-1.09-.63-1.09-1.64,0-2.26A4.28,4.28,0,0,1,168.14,272.39Z"/><path class="cls-68" d="M189.12,260.28a1.19,1.19,0,0,1,0,2.26,4.36,4.36,0,0,1-3.92,0,1.19,1.19,0,0,1,0-2.26A4.3,4.3,0,0,1,189.12,260.28Z"/><path class="cls-68" d="M210.09,248.17a1.19,1.19,0,0,1,0,2.26,4.36,4.36,0,0,1-3.92,0,1.19,1.19,0,0,1,0-2.26A4.3,4.3,0,0,1,210.09,248.17Z"/><path class="cls-68" d="M189.12,284.5a1.19,1.19,0,0,1,0,2.26,4.36,4.36,0,0,1-3.92,0,1.19,1.19,0,0,1,0-2.26A4.3,4.3,0,0,1,189.12,284.5Z"/><path class="cls-68" d="M210.09,272.39a1.19,1.19,0,0,1,0,2.26,4.34,4.34,0,0,1-3.91,0c-1.09-.63-1.09-1.64,0-2.26A4.28,4.28,0,0,1,210.09,272.39Z"/><path class="cls-68" d="M231.06,260.28a1.19,1.19,0,0,1,0,2.26,4.34,4.34,0,0,1-3.91,0,1.19,1.19,0,0,1,0-2.26A4.28,4.28,0,0,1,231.06,260.28Z"/><path class="cls-68" d="M210.09,296.61a1.19,1.19,0,0,1,0,2.26,4.34,4.34,0,0,1-3.91,0c-1.09-.63-1.09-1.64,0-2.26A4.28,4.28,0,0,1,210.09,296.61Z"/><path class="cls-68" d="M231.07,284.5a1.19,1.19,0,0,1,0,2.26,4.36,4.36,0,0,1-3.92,0,1.19,1.19,0,0,1,0-2.26A4.3,4.3,0,0,1,231.07,284.5Z"/><path class="cls-68" d="M252,272.39a1.19,1.19,0,0,1,0,2.26,4.36,4.36,0,0,1-3.92,0,1.19,1.19,0,0,1,0-2.26A4.3,4.3,0,0,1,252,272.39Z"/><path class="cls-68" d="M147.17,357.16a1.19,1.19,0,0,1,0,2.26,4.36,4.36,0,0,1-3.92,0,1.19,1.19,0,0,1,0-2.26A4.3,4.3,0,0,1,147.17,357.16Z"/><path class="cls-68" d="M168.14,345.05a1.19,1.19,0,0,1,0,2.26,4.34,4.34,0,0,1-3.91,0,1.19,1.19,0,0,1,0-2.26A4.28,4.28,0,0,1,168.14,345.05Z"/><path class="cls-68" d="M189.12,332.94a1.19,1.19,0,0,1,0,2.26,4.36,4.36,0,0,1-3.92,0,1.19,1.19,0,0,1,0-2.26A4.3,4.3,0,0,1,189.12,332.94Z"/><path class="cls-68" d="M210.09,320.83a1.19,1.19,0,0,1,0,2.26,4.34,4.34,0,0,1-3.91,0,1.19,1.19,0,0,1,0-2.26A4.28,4.28,0,0,1,210.09,320.83Z"/><path class="cls-68" d="M168.14,369.27a1.19,1.19,0,0,1,0,2.26,4.34,4.34,0,0,1-3.91,0,1.19,1.19,0,0,1,0-2.26A4.28,4.28,0,0,1,168.14,369.27Z"/><path class="cls-68" d="M189.12,357.16a1.19,1.19,0,0,1,0,2.26,4.36,4.36,0,0,1-3.92,0,1.19,1.19,0,0,1,0-2.26A4.3,4.3,0,0,1,189.12,357.16Z"/><path class="cls-68" d="M210.09,345.05a1.19,1.19,0,0,1,0,2.26,4.34,4.34,0,0,1-3.91,0,1.19,1.19,0,0,1,0-2.26A4.28,4.28,0,0,1,210.09,345.05Z"/><path class="cls-68" d="M231.07,332.94a1.19,1.19,0,0,1,0,2.26,4.36,4.36,0,0,1-3.92,0,1.19,1.19,0,0,1,0-2.26A4.3,4.3,0,0,1,231.07,332.94Z"/><path class="cls-68" d="M231.07,308.72a1.19,1.19,0,0,1,0,2.26,4.36,4.36,0,0,1-3.92,0,1.19,1.19,0,0,1,0-2.26A4.3,4.3,0,0,1,231.07,308.72Z"/><path class="cls-68" d="M252,296.61a1.19,1.19,0,0,1,0,2.26,4.34,4.34,0,0,1-3.91,0c-1.09-.63-1.09-1.64,0-2.26A4.28,4.28,0,0,1,252,296.61Z"/><path class="cls-68" d="M273,284.5c1.09.62,1.09,1.63,0,2.26a4.34,4.34,0,0,1-3.91,0,1.19,1.19,0,0,1,0-2.26A4.28,4.28,0,0,1,273,284.5Z"/><path class="cls-68" d="M252,320.83a1.19,1.19,0,0,1,0,2.26,4.34,4.34,0,0,1-3.91,0c-1.09-.63-1.09-1.64,0-2.26A4.28,4.28,0,0,1,252,320.83Z"/><path class="cls-68" d="M273,308.72a1.19,1.19,0,0,1,0,2.26,4.36,4.36,0,0,1-3.92,0,1.19,1.19,0,0,1,0-2.26A4.3,4.3,0,0,1,273,308.72Z"/><path class="cls-68" d="M294,296.61a1.19,1.19,0,0,1,0,2.26,4.36,4.36,0,0,1-3.92,0,1.19,1.19,0,0,1,0-2.26A4.3,4.3,0,0,1,294,296.61Z"/></g><path class="cls-69" d="M92.58,224.85h0V158.65l217.83,67.68v65.88a1.61,1.61,0,0,1,0,.31c-.08,1.21-1,2.47-2.72,3.46l-41.63,24a12.89,12.89,0,0,1-6,1.56h0a10,10,0,0,1-5.17-1.11L94.5,227.81A3.26,3.26,0,0,1,92.58,224.85Z"/><path class="cls-68" d="M94.5,161.62l160.43,92.64c2.85,1.65,7.83,1.45,11.13-.45l41.63-24c1.72-1,2.64-2.25,2.72-3.46a3.22,3.22,0,0,0-1.92-3L148.07,130.72c-2.86-1.65-7.84-1.44-11.14.46l-41.63,24c-1.72,1-2.64,2.25-2.72,3.46A3.26,3.26,0,0,0,94.5,161.62Z"/><path class="cls-70" d="M94.5,160.12l160.43,92.65c2.85,1.65,7.83,1.44,11.13-.46l41.63-24c1.72-1,2.64-2.25,2.72-3.47a3.24,3.24,0,0,0-1.92-3L148.07,129.23c-2.86-1.65-7.84-1.45-11.14.45l-41.63,24c-1.72,1-2.64,2.25-2.72,3.46A3.24,3.24,0,0,0,94.5,160.12Z"/><polygon class="cls-71" points="257.79 221.41 260.56 219.79 276.74 229.03 273.96 230.65 257.79 221.41"/><polygon class="cls-71" points="276.87 232.31 279.64 230.69 283.33 232.8 280.56 234.41 276.87 232.31"/><polygon class="cls-71" points="268.69 237.03 271.46 235.42 275.15 237.52 272.38 239.14 268.69 237.03"/><polygon class="cls-71" points="260.5 241.76 263.27 240.14 266.96 242.25 264.19 243.87 260.5 241.76"/><polygon class="cls-71" points="262.24 233.31 265.01 231.69 268.7 233.8 265.93 235.42 262.24 233.31"/><polygon class="cls-71" points="254.06 238.04 256.83 236.42 260.51 238.53 257.74 240.14 254.06 238.04"/><polygon class="cls-71" points="255.79 229.59 258.56 227.97 262.25 230.08 259.48 231.69 255.79 229.59"/><polygon class="cls-71" points="247.61 234.31 250.38 232.7 254.06 234.8 251.29 236.42 247.61 234.31"/><polygon class="cls-71" points="249.34 225.87 252.12 224.25 255.8 226.35 253.03 227.97 249.34 225.87"/><polygon class="cls-71" points="241.16 230.59 243.93 228.97 247.62 231.08 244.85 232.7 241.16 230.59"/><polygon class="cls-71" points="242.9 222.14 245.67 220.53 249.35 222.63 246.58 224.25 242.9 222.14"/><polygon class="cls-71" points="234.71 226.87 237.48 225.25 241.17 227.36 238.4 228.97 234.71 226.87"/><polygon class="cls-71" points="272.64 220.22 275.41 218.6 291.58 227.84 288.81 229.46 272.64 220.22"/><path class="cls-71" d="M261.73,217.06l7.22-4.21,1.27,4.67C270.1,217.46,261.73,217.06,261.73,217.06Z"/><path class="cls-71" d="M257,214.38l7.22-4.21-7.57-.36C256.57,209.75,257,214.38,257,214.38Z"/><path class="cls-71" d="M230.55,210.53l17.51-10.22,3.08,11.34C250.84,211.5,230.55,210.53,230.55,210.53Z"/><path class="cls-71" d="M219.17,204l17.52-10.22-18.35-.88C218,192.79,219.17,204,219.17,204Z"/><polygon class="cls-71" points="143.75 155.56 146.52 153.95 162.69 163.19 159.92 164.8 143.75 155.56"/><polygon class="cls-71" points="162.83 166.47 165.6 164.85 169.29 166.95 166.52 168.57 162.83 166.47"/><polygon class="cls-71" points="154.65 171.19 157.42 169.57 161.1 171.68 158.33 173.3 154.65 171.19"/><polygon class="cls-71" points="146.46 175.92 149.23 174.3 152.92 176.41 150.15 178.02 146.46 175.92"/><polygon class="cls-71" points="148.2 167.47 150.97 165.85 154.66 167.96 151.88 169.57 148.2 167.47"/><polygon class="cls-71" points="140.01 172.19 142.78 170.58 146.47 172.68 143.7 174.3 140.01 172.19"/><polygon class="cls-71" points="141.75 163.75 144.52 162.13 148.21 164.23 145.44 165.85 141.75 163.75"/><polygon class="cls-71" points="133.56 168.47 136.34 166.85 140.02 168.96 137.25 170.58 133.56 168.47"/><polygon class="cls-71" points="135.3 160.02 138.07 158.41 141.76 160.51 138.99 162.13 135.3 160.02"/><polygon class="cls-71" points="127.12 164.75 129.89 163.13 133.57 165.24 130.8 166.85 127.12 164.75"/><polygon class="cls-71" points="128.85 156.3 131.63 154.68 135.31 156.79 132.54 158.41 128.85 156.3"/><polygon class="cls-71" points="120.67 161.03 123.44 159.41 127.13 161.51 124.36 163.13 120.67 161.03"/><polygon class="cls-71" points="158.59 154.38 161.36 152.76 177.54 162 174.77 163.62 158.59 154.38"/><path class="cls-71" d="M147.68,151.22l7.23-4.21,1.27,4.67C156.05,151.62,147.68,151.22,147.68,151.22Z"/><path class="cls-71" d="M143,148.54l7.23-4.21-7.57-.37C142.52,143.9,143,148.54,143,148.54Z"/><path class="cls-71" d="M129.59,252.42s-.1,4.49,1.72,5.24c3.72,1.54,8.17-3.05,11.14-8.23,3.48-6.07-1.89-6.49-5.87-2.89C130.45,252.08,129.59,252.42,129.59,252.42Z"/><path class="cls-72" d="M129.59,251.21s-.46,4.49,1.36,5.24c3.72,1.55,8.53-3,11.5-8.23,3.48-6.07-1.89-6.49-5.87-2.89C130.45,250.87,129.59,251.21,129.59,251.21Z"/><path class="cls-73" d="M128.41,222.22c1.07,7.32-.06,21.2,1,29.51.41,3.29,7.18.92,8.2-2.78,2.39-8.64,7.22-33.09,1.39-39.48-6.11-6.7-27.19,2.67-27.19,2.67a36.18,36.18,0,0,1,1,8.44C112.4,232.57,127,212.21,128.41,222.22Z"/><path class="cls-71" d="M112.83,283.8a2.07,2.07,0,0,0,1.75-1l18.16-22.66a.8.8,0,0,0-1.25-1l-18.19,22.7a.36.36,0,0,0-.07.1.45.45,0,0,1-.54.22.45.45,0,0,1-.36-.46V248.83a.8.8,0,1,0-1.59,0v32.89a2.07,2.07,0,0,0,2.09,2.08Z"/><path class="cls-71" d="M86.11,267.29a6.47,6.47,0,0,0,2-.33l33.78-11.26,9.87,4.68a.8.8,0,0,0,.68-1.44l-10.16-4.82a.76.76,0,0,0-.59,0L87.63,265.44a4.74,4.74,0,0,1-6.24-4.5V235.35a.8.8,0,0,0-1.6,0v25.59a6.36,6.36,0,0,0,6.32,6.35Z"/><polygon class="cls-74" points="111.53 251.83 144.69 232.69 111.53 213.54 78.37 232.68 111.53 251.83"/><polygon class="cls-74" points="111.53 255.36 144.69 236.22 144.69 232.69 111.53 251.83 111.53 255.36"/><polygon class="cls-71" points="111.53 255.36 78.37 236.22 78.37 232.69 111.53 251.83 111.53 255.36"/><path class="cls-71" d="M80.59,233.24h0a.8.8,0,0,0,.8-.8V220.71a16.4,16.4,0,0,0-.56-4.24l-3.94-14.79a.8.8,0,0,0-1.54.41l3.94,14.79a15,15,0,0,1,.5,3.83v11.73A.8.8,0,0,0,80.59,233.24Z"/><path class="cls-75" d="M125,170.9c-6.15,3.16-7.74,3.74-14.08,7.93-6.89,4.56-3.06,18.75-10.64,22.94-3.68,2-9.41-1.94-9.75-3.83-1.53-8.54,11-23,14.46-24.89,2-1.1,17.17-7.44,18.45-8C127.49,163.22,128.05,169.34,125,170.9Z"/><path class="cls-76" d="M134.58,162.66c.15-.25,1.33-.55.56-1.27-.49-.47-1.67.29-1.89.43.13-.09.51-.41,0-.83-.75-.6-4.84-.15-6.65.85-2.15.66-2.1,2.29-3.09,3.15,2.62,1.19,4.6,3.65,1.51,5.91,0,0,3.67-2.29,5.48-3.1,3.23-1.45,6.92-2.22,6.17-3.11-.51-.61-1.93-.37-1.93-.37s2.68-1,2-1.72C136.28,162,134.84,162.51,134.58,162.66Z"/><path class="cls-71" d="M142,271.4s-.46,3.57.53,4.51c3,2.82,7.8-.64,13.77-4.9,5.46-3.9,2.77-5.8-3.65-3.9C144.69,269.46,142,271.4,142,271.4Z"/><path class="cls-72" d="M142,270.35s-.46,3.56.53,4.5c3,2.82,7.8-.64,13.77-4.9,5.46-3.89,2.77-5.79-3.65-3.89C144.69,268.4,142,270.35,142,270.35Z"/><path class="cls-73" d="M96.53,228.83c3.35,18,40.79-.41,44.1,8.2,3.24,8.44-.52,25.9,1.23,34,.67,3.08,8.36-.54,8.83-3.16.89-5,4.81-38.4,1.55-43.85-6.81-11.4-31.05-1.75-37.75-11.91C111.85,208.09,95.65,224.1,96.53,228.83Z"/><path class="cls-73" d="M94.11,225.44c1.13,11.59,9.67,13.46,20.77,12.33s20.78-3.28,23.92-2.52,16.69-6,13.44-11.23-8.28-6-16.09-6.3-16.89-1.83-21.66-5.61S94.11,225.44,94.11,225.44Z"/><path class="cls-77" d="M101.56,174c-4.29,1.9-5.56,2.81-8,15.75-1.28,6.77-5.85,13.42-1.57,35.51,1.15,6,33,8,31.36-2-1.35-8.09-3.07-9-2.34-17.79s4.18-13.15,1.85-20.18c-.89-2.69-4.68-7.13-7.74-8.17C111.59,176,104.1,172.9,101.56,174Z"/><path class="cls-78" d="M121.08,182.19c-5,1.92-8.68,4.22-7.7,12.17.61,5-3.24,7.07,1.26,14.85.5.87,1,1.72,1.49,2.54a2.55,2.55,0,0,0,4.75-1.38c0-.66,0-1.33,0-2,0-6.31,2.67-16.1,2.67-16.1Z"/><path class="cls-76" d="M115.12,173s-2.27,3,0,4.22A13.56,13.56,0,0,1,104.9,174c1.74,0,2.92-3.62,6.21-9.15C112.7,162.17,115.12,173,115.12,173Z"/><path class="cls-76" d="M110.94,165.7c-.44,3.32,2.16,7.69,5,8.06s4.55-3.56,5.18-6.72a5.5,5.5,0,0,0-4.28-6.67C114,160,111.38,162.39,110.94,165.7Z"/><path class="cls-79" d="M101.33,176.28c8.68,8.22,14.72,2.41,14.72-3.7,0-2.23.43-3,2.41-4.37s1.55.65,4-.22,1.08-4.86,1.08-4.86a29.78,29.78,0,0,0-2.83-3.72c-2.32-2-7.62-1.58-9.78,0C104.29,164.1,98.49,173.59,101.33,176.28Z"/><path class="cls-76" d="M118.28,170.4h0a1,1,0,0,0,.75-1.21l-.3-1.34a1,1,0,0,0-1.21-.75h0a1,1,0,0,0-.76,1.2l.31,1.34A1,1,0,0,0,118.28,170.4Z"/><path class="cls-80" d="M159.21,180.12c-7.09,1.9-6.92,2.88-15.79,3.66-8.23.72-16.89-.26-24.36-1.56-4.15-.72-4.88,10-3,10.41,12.8,3,22.28.55,26.19,0,2.27-.3,17.8-6.59,19.17-6.89C165.75,184.85,162.5,179.24,159.21,180.12Z"/><path class="cls-76" d="M171.83,180.76c.27.11,1.36,0,1.17,1-.13.67-1.53.76-1.79.77.17,0,.66,0,.49.68-.25.92-4.31,1.56-6.36,1.83-2.13.74-2.55.81-3.86.7,1.41-2.51,1.55-5.66-2.27-5.66a37,37,0,0,1,5.94-2.44c3.46-.74,7.2-.59,7.12.56-.05.79-1.3.92-1.3.92s2.71-.27,2.62.7C173.53,180.6,172.13,180.72,171.83,180.76Z"/><path class="cls-71" d="M111.53,250.67h0a.79.79,0,0,0,.8-.79V238.15a16.39,16.39,0,0,0-.55-4.24l-3.94-14.79a.8.8,0,0,0-1.55.41l3.94,14.79a14.6,14.6,0,0,1,.51,3.83v11.73A.79.79,0,0,0,111.53,250.67Z"/><polygon class="cls-74" points="102.6 206.3 105.76 204.54 72.6 185.39 69.43 187.16 102.6 206.3"/><polygon class="cls-74" points="108.37 228.33 111.53 226.56 105.76 204.54 102.6 206.3 108.37 228.33"/><polygon class="cls-71" points="108.37 228.33 75.21 209.19 69.44 187.16 102.6 206.3 108.37 228.33"/><path class="cls-76" d="M130.76,167.42c2.8.51,4.21,1.88,2,2.13s-4-1-6.21-.36Z"/><path class="cls-81" d="M304.4,197.63l-144.22-86a29,29,0,0,1-14.4-25.14l-1.27-81.9s3.32-1.87,5.82-3.36a8.7,8.7,0,0,1,8.9-.05L301.1,83.56a29,29,0,0,1,14.4,25.14l-.26,77.75a8.72,8.72,0,0,1-5.07,7.93Z"/><path class="cls-82" d="M296,197.42,154.09,115.06a29,29,0,0,1-14.41-25.14l.26-77.75a8.79,8.79,0,0,1,13.2-7.56L295,87a29,29,0,0,1,14.41,25.14l-.26,77.75A8.79,8.79,0,0,1,296,197.42Z"/><path class="cls-72" d="M304.4,197.63,156.26,113.86a29,29,0,0,1-14.4-25.14l2.34-84s-.3.2,2.2-1.29a8.7,8.7,0,0,1,8.91,0L297.17,85.77a29,29,0,0,1,14.41,25.15l-.26,77.74a8.71,8.71,0,0,1-5.08,7.93Z"/><path class="cls-83" d="M296,197.42,154.09,115.06a29,29,0,0,1-14.41-25.14l.26-77.75a8.79,8.79,0,0,1,13.2-7.56L295,87a29,29,0,0,1,14.41,25.14l-.26,77.75A8.79,8.79,0,0,1,296,197.42Z"/><g class="cls-84"><path class="cls-68" d="M301.55,94.39c0-.74.47-1.1,1-.78a2.34,2.34,0,0,1,1,1.92c0,.74-.47,1.09-1,.78A2.34,2.34,0,0,1,301.55,94.39Z"/><path class="cls-68" d="M301.29,108.36c0-.75.47-1.1,1-.78a2.3,2.3,0,0,1,1,1.91c0,.75-.47,1.1-1,.79A2.35,2.35,0,0,1,301.29,108.36Z"/><path class="cls-68" d="M291.52,88.65c0-.75.47-1.1,1-.78a2.34,2.34,0,0,1,1,1.92c0,.74-.47,1.09-1,.78A2.32,2.32,0,0,1,291.52,88.65Z"/><path class="cls-68" d="M291.25,102.62c0-.75.47-1.1,1-.78a2.33,2.33,0,0,1,1,1.91c0,.75-.47,1.1-1,.79A2.36,2.36,0,0,1,291.25,102.62Z"/><ellipse class="cls-68" cx="282.47" cy="83.48" rx="0.88" ry="1.53" transform="translate(-11.08 107.72) rotate(-21.18)"/><path class="cls-68" d="M281.21,96.88c0-.75.47-1.1,1-.78a2.33,2.33,0,0,1,1,1.91c0,.75-.47,1.1-1,.79A2.36,2.36,0,0,1,281.21,96.88Z"/><path class="cls-68" d="M271.44,77.17c0-.75.47-1.1,1-.78a2.3,2.3,0,0,1,1,1.91c0,.75-.47,1.1-1,.79A2.36,2.36,0,0,1,271.44,77.17Z"/><path class="cls-68" d="M271.18,91.14c0-.75.47-1.1,1-.79a2.34,2.34,0,0,1,1,1.92c0,.75-.47,1.1-1,.78A2.32,2.32,0,0,1,271.18,91.14Z"/><path class="cls-68" d="M261.4,71.43c0-.75.47-1.1,1-.79a2.36,2.36,0,0,1,1,1.92c0,.75-.47,1.1-1,.78A2.33,2.33,0,0,1,261.4,71.43Z"/><path class="cls-68" d="M261.14,85.4c0-.75.47-1.1,1-.79a2.36,2.36,0,0,1,1,1.92c0,.75-.47,1.1-1,.78A2.3,2.3,0,0,1,261.14,85.4Z"/><path class="cls-68" d="M251.36,65.69c0-.75.47-1.1,1-.79a2.36,2.36,0,0,1,1,1.92c0,.75-.47,1.1-1,.78A2.33,2.33,0,0,1,251.36,65.69Z"/><path class="cls-68" d="M251.1,79.65c0-.74.47-1.09,1-.78a2.35,2.35,0,0,1,1,1.92c0,.75-.47,1.1-1,.78A2.34,2.34,0,0,1,251.1,79.65Z"/><ellipse class="cls-68" cx="242.32" cy="60.51" rx="0.88" ry="1.53" transform="translate(-5.49 91.66) rotate(-21.18)"/><path class="cls-68" d="M241.06,73.91c0-.74.47-1.09,1-.78a2.34,2.34,0,0,1,1,1.92c0,.74-.47,1.1-1,.78A2.34,2.34,0,0,1,241.06,73.91Z"/><path class="cls-68" d="M231.29,54.2c0-.74.47-1.09,1-.78a2.34,2.34,0,0,1,1,1.92c0,.75-.47,1.1-1,.78A2.31,2.31,0,0,1,231.29,54.2Z"/><path class="cls-68" d="M231,68.17c0-.74.47-1.09,1-.78a2.34,2.34,0,0,1,1,1.92c0,.74-.47,1.09-1,.78A2.3,2.3,0,0,1,231,68.17Z"/><path class="cls-68" d="M221.25,48.46c0-.74.47-1.09,1-.78a2.34,2.34,0,0,1,1,1.92c0,.74-.47,1.09-1,.78A2.34,2.34,0,0,1,221.25,48.46Z"/><path class="cls-68" d="M221,62.43c0-.74.47-1.09,1-.78a2.33,2.33,0,0,1,1,1.92c0,.74-.47,1.09-1,.78A2.33,2.33,0,0,1,221,62.43Z"/><path class="cls-68" d="M211.21,42.72c0-.74.47-1.09,1-.78a2.34,2.34,0,0,1,1,1.92c0,.74-.47,1.09-1,.78A2.34,2.34,0,0,1,211.21,42.72Z"/><path class="cls-68" d="M211,56.69c0-.74.47-1.09,1-.78a2.3,2.3,0,0,1,1,1.92c0,.74-.46,1.09-1,.78A2.34,2.34,0,0,1,211,56.69Z"/><path class="cls-68" d="M201.18,37c0-.74.47-1.09,1-.78a2.34,2.34,0,0,1,1,1.92c0,.74-.47,1.09-1,.78A2.3,2.3,0,0,1,201.18,37Z"/><path class="cls-68" d="M200.91,51c0-.75.47-1.1,1-.78a2.34,2.34,0,0,1,1,1.92c0,.74-.47,1.09-1,.78A2.35,2.35,0,0,1,200.91,51Z"/><path class="cls-68" d="M191.14,31.24c0-.75.47-1.1,1-.78a2.33,2.33,0,0,1,1,1.92c0,.74-.47,1.09-1,.78A2.34,2.34,0,0,1,191.14,31.24Z"/><path class="cls-68" d="M190.87,45.21c0-.75.47-1.1,1-.78a2.33,2.33,0,0,1,1,1.91c0,.75-.47,1.1-1,.79A2.36,2.36,0,0,1,190.87,45.21Z"/><path class="cls-68" d="M181.1,25.5c0-.75.47-1.1,1-.78a2.3,2.3,0,0,1,1,1.91c0,.75-.47,1.1-1,.79A2.35,2.35,0,0,1,181.1,25.5Z"/><path class="cls-68" d="M180.84,39.47c0-.75.47-1.1,1-.78a2.3,2.3,0,0,1,1,1.91c0,.75-.47,1.1-1,.79A2.36,2.36,0,0,1,180.84,39.47Z"/><ellipse class="cls-68" cx="172.05" cy="20.33" rx="0.88" ry="1.53" transform="translate(4.28 63.55) rotate(-21.18)"/><path class="cls-68" d="M170.8,33.73c0-.75.47-1.1,1-.79a2.36,2.36,0,0,1,1,1.92c0,.75-.47,1.1-1,.79A2.36,2.36,0,0,1,170.8,33.73Z"/><path class="cls-68" d="M161,14c0-.75.47-1.1,1-.78a2.33,2.33,0,0,1,1,1.91c0,.75-.47,1.1-1,.79A2.36,2.36,0,0,1,161,14Z"/><path class="cls-68" d="M160.76,28c0-.75.47-1.1,1-.79a2.36,2.36,0,0,1,1,1.92c0,.75-.47,1.1-1,.78A2.33,2.33,0,0,1,160.76,28Z"/><path class="cls-68" d="M151,8.28c0-.75.47-1.1,1-.79a2.34,2.34,0,0,1,1,1.92c0,.75-.47,1.1-1,.78A2.32,2.32,0,0,1,151,8.28Z"/><ellipse class="cls-68" cx="151.72" cy="22.81" rx="0.88" ry="1.53" transform="translate(2.01 56.37) rotate(-21.18)"/><path class="cls-68" d="M301,123.86c0-.75.47-1.1,1-.79a2.36,2.36,0,0,1,1,1.92c0,.75-.47,1.1-1,.78A2.32,2.32,0,0,1,301,123.86Z"/><path class="cls-68" d="M300.73,137.83c0-.75.47-1.1,1-.79a2.36,2.36,0,0,1,1,1.92c0,.75-.47,1.1-1,.78A2.33,2.33,0,0,1,300.73,137.83Z"/><path class="cls-68" d="M291,118.12c0-.75.47-1.1,1-.79a2.33,2.33,0,0,1,1,1.92c0,.75-.46,1.1-1,.78A2.33,2.33,0,0,1,291,118.12Z"/><path class="cls-68" d="M290.7,132.08c0-.74.47-1.09,1-.78a2.32,2.32,0,0,1,1,1.92c0,.75-.47,1.1-1,.78A2.33,2.33,0,0,1,290.7,132.08Z"/><path class="cls-68" d="M280.92,112.37c0-.74.47-1.09,1-.78a2.35,2.35,0,0,1,1,1.92c0,.75-.47,1.1-1,.78A2.34,2.34,0,0,1,280.92,112.37Z"/><ellipse class="cls-68" cx="281.65" cy="126.91" rx="0.88" ry="1.53" transform="translate(-26.83 110.36) rotate(-21.18)"/><path class="cls-68" d="M270.88,106.63c0-.74.47-1.09,1-.78a2.34,2.34,0,0,1,1,1.92c0,.74-.47,1.1-1,.78A2.34,2.34,0,0,1,270.88,106.63Z"/><path class="cls-68" d="M270.62,120.6c0-.74.47-1.09,1-.78a2.34,2.34,0,0,1,1,1.92c0,.74-.47,1.09-1,.78A2.34,2.34,0,0,1,270.62,120.6Z"/><path class="cls-68" d="M260.85,100.89c0-.74.47-1.09,1-.78a2.31,2.31,0,0,1,1,1.92c0,.74-.47,1.09-1,.78A2.33,2.33,0,0,1,260.85,100.89Z"/><path class="cls-68" d="M260.58,114.86c0-.74.47-1.09,1-.78a2.34,2.34,0,0,1,1,1.92c0,.74-.47,1.09-1,.78A2.34,2.34,0,0,1,260.58,114.86Z"/><path class="cls-68" d="M250.81,95.15c0-.74.47-1.09,1-.78a2.33,2.33,0,0,1,1,1.92c0,.74-.47,1.09-1,.78A2.34,2.34,0,0,1,250.81,95.15Z"/><path class="cls-68" d="M250.55,109.12c0-.74.47-1.1,1-.78a2.34,2.34,0,0,1,1,1.92c0,.74-.47,1.09-1,.78A2.3,2.3,0,0,1,250.55,109.12Z"/><path class="cls-68" d="M240.77,89.41c0-.74.47-1.09,1-.78a2.34,2.34,0,0,1,1,1.92c0,.74-.47,1.09-1,.78A2.34,2.34,0,0,1,240.77,89.41Z"/><path class="cls-68" d="M240.51,103.38c0-.75.47-1.1,1-.78a2.33,2.33,0,0,1,1,1.92c0,.74-.47,1.09-1,.78A2.32,2.32,0,0,1,240.51,103.38Z"/><path class="cls-68" d="M230.73,83.67c0-.75.47-1.1,1-.78a2.34,2.34,0,0,1,1,1.92c0,.74-.47,1.09-1,.78A2.35,2.35,0,0,1,230.73,83.67Z"/><path class="cls-68" d="M230.47,97.64c0-.75.47-1.1,1-.78a2.33,2.33,0,0,1,1,1.91c0,.75-.47,1.1-1,.79A2.36,2.36,0,0,1,230.47,97.64Z"/><path class="cls-68" d="M220.7,77.93c0-.75.47-1.1,1-.78a2.33,2.33,0,0,1,1,1.91c0,.75-.47,1.1-1,.79A2.33,2.33,0,0,1,220.7,77.93Z"/><path class="cls-68" d="M220.43,91.9c0-.75.47-1.1,1-.78a2.33,2.33,0,0,1,1,1.91c0,.75-.47,1.1-1,.79A2.36,2.36,0,0,1,220.43,91.9Z"/><path class="cls-68" d="M210.66,72.19c0-.75.47-1.1,1-.78a2.32,2.32,0,0,1,1,1.91c0,.75-.47,1.1-1,.79A2.34,2.34,0,0,1,210.66,72.19Z"/><path class="cls-68" d="M210.39,86.16c0-.75.47-1.1,1-.79a2.36,2.36,0,0,1,1,1.92c0,.75-.47,1.1-1,.78A2.33,2.33,0,0,1,210.39,86.16Z"/><path class="cls-68" d="M200.62,66.45c0-.75.47-1.1,1-.79a2.36,2.36,0,0,1,1,1.92c0,.75-.47,1.1-1,.79A2.36,2.36,0,0,1,200.62,66.45Z"/><path class="cls-68" d="M200.36,80.42c0-.75.47-1.1,1-.79a2.36,2.36,0,0,1,1,1.92c0,.75-.47,1.1-1,.78A2.32,2.32,0,0,1,200.36,80.42Z"/><path class="cls-68" d="M190.58,60.71c0-.75.47-1.1,1-.79a2.36,2.36,0,0,1,1,1.92c0,.75-.47,1.1-1,.78A2.33,2.33,0,0,1,190.58,60.71Z"/><path class="cls-68" d="M190.32,74.68c0-.75.47-1.1,1-.79a2.32,2.32,0,0,1,1,1.92c0,.75-.47,1.1-1,.78A2.33,2.33,0,0,1,190.32,74.68Z"/><path class="cls-68" d="M180.54,55c0-.75.47-1.1,1-.79a2.35,2.35,0,0,1,1,1.92c0,.75-.47,1.1-1,.78A2.33,2.33,0,0,1,180.54,55Z"/><path class="cls-68" d="M180.28,68.93c0-.74.47-1.09,1-.78a2.35,2.35,0,0,1,1,1.92c0,.75-.47,1.1-1,.78A2.34,2.34,0,0,1,180.28,68.93Z"/><path class="cls-68" d="M170.51,49.22c0-.74.47-1.09,1-.78a2.32,2.32,0,0,1,1,1.92c0,.75-.47,1.1-1,.78A2.33,2.33,0,0,1,170.51,49.22Z"/><path class="cls-68" d="M170.24,63.19c0-.74.47-1.09,1-.78a2.34,2.34,0,0,1,1,1.92c0,.74-.47,1.09-1,.78A2.34,2.34,0,0,1,170.24,63.19Z"/><path class="cls-68" d="M160.47,43.48c0-.74.47-1.09,1-.78a2.3,2.3,0,0,1,1,1.92c0,.74-.47,1.09-1,.78A2.34,2.34,0,0,1,160.47,43.48Z"/><path class="cls-68" d="M160.21,57.45c0-.74.47-1.09,1-.78a2.34,2.34,0,0,1,1,1.92c0,.74-.47,1.09-1,.78A2.33,2.33,0,0,1,160.21,57.45Z"/><path class="cls-68" d="M150.43,37.74c0-.74.47-1.09,1-.78a2.34,2.34,0,0,1,1,1.92c0,.74-.47,1.09-1,.78A2.34,2.34,0,0,1,150.43,37.74Z"/><ellipse class="cls-68" cx="151.16" cy="52.28" rx="0.88" ry="1.53" transform="translate(-8.68 58.16) rotate(-21.18)"/><path class="cls-68" d="M300.44,153.32c0-.74.47-1.09,1-.78a2.34,2.34,0,0,1,1,1.92c0,.74-.47,1.09-1,.78A2.34,2.34,0,0,1,300.44,153.32Z"/><path class="cls-68" d="M300.18,167.29c0-.74.47-1.09,1-.78a2.3,2.3,0,0,1,1,1.92c0,.74-.47,1.09-1,.78A2.34,2.34,0,0,1,300.18,167.29Z"/><path class="cls-68" d="M290.41,147.58c0-.74.46-1.09,1-.78a2.34,2.34,0,0,1,1,1.92c0,.74-.47,1.09-1,.78A2.3,2.3,0,0,1,290.41,147.58Z"/><path class="cls-68" d="M290.14,161.55c0-.75.47-1.1,1-.78a2.34,2.34,0,0,1,1,1.92c0,.74-.47,1.09-1,.78A2.35,2.35,0,0,1,290.14,161.55Z"/><path class="cls-68" d="M280.37,141.84c0-.74.47-1.1,1-.78a2.33,2.33,0,0,1,1,1.92c0,.74-.47,1.09-1,.78A2.33,2.33,0,0,1,280.37,141.84Z"/><path class="cls-68" d="M280.1,155.81c0-.75.47-1.1,1-.78a2.33,2.33,0,0,1,1,1.91c0,.75-.47,1.1-1,.79A2.35,2.35,0,0,1,280.1,155.81Z"/><ellipse class="cls-68" cx="271.32" cy="136.67" rx="0.88" ry="1.53" transform="translate(-31.05 107.28) rotate(-21.18)"/><path class="cls-68" d="M270.07,150.07c0-.75.47-1.1,1-.78a2.3,2.3,0,0,1,1,1.91c0,.75-.47,1.1-1,.79A2.36,2.36,0,0,1,270.07,150.07Z"/><path class="cls-68" d="M260.29,130.36c0-.75.47-1.1,1-.78a2.33,2.33,0,0,1,1,1.91c0,.75-.47,1.1-1,.79A2.36,2.36,0,0,1,260.29,130.36Z"/><path class="cls-68" d="M260,144.33c0-.75.47-1.1,1-.78a2.32,2.32,0,0,1,1,1.91c0,.75-.47,1.1-1,.79A2.34,2.34,0,0,1,260,144.33Z"/><path class="cls-68" d="M250.25,124.62c0-.75.47-1.1,1-.78a2.33,2.33,0,0,1,1,1.91c0,.75-.47,1.1-1,.79A2.36,2.36,0,0,1,250.25,124.62Z"/><path class="cls-68" d="M250,138.59c0-.75.47-1.1,1-.79a2.36,2.36,0,0,1,1,1.92c0,.75-.47,1.1-1,.78A2.33,2.33,0,0,1,250,138.59Z"/><path class="cls-68" d="M240.22,118.88c0-.75.47-1.1,1-.79a2.34,2.34,0,0,1,1,1.92c0,.75-.47,1.1-1,.78A2.32,2.32,0,0,1,240.22,118.88Z"/><path class="cls-68" d="M240,132.85c0-.75.47-1.1,1-.79a2.36,2.36,0,0,1,1,1.92c0,.75-.47,1.1-1,.78A2.33,2.33,0,0,1,240,132.85Z"/><ellipse class="cls-68" cx="231.17" cy="113.7" rx="0.88" ry="1.53" transform="translate(-25.47 91.22) rotate(-21.18)"/><path class="cls-68" d="M229.92,127.1c0-.74.47-1.09,1-.78a2.35,2.35,0,0,1,1,1.92c0,.75-.47,1.1-1,.78A2.3,2.3,0,0,1,229.92,127.1Z"/><path class="cls-68" d="M220.14,107.4c0-.75.47-1.1,1-.79a2.35,2.35,0,0,1,1,1.92c0,.75-.47,1.1-1,.78A2.33,2.33,0,0,1,220.14,107.4Z"/><path class="cls-68" d="M219.88,121.36c0-.74.47-1.09,1-.78a2.33,2.33,0,0,1,1,1.92c0,.74-.47,1.1-1,.78A2.33,2.33,0,0,1,219.88,121.36Z"/><path class="cls-68" d="M210.1,101.65c0-.74.47-1.09,1-.78a2.35,2.35,0,0,1,1,1.92c0,.74-.47,1.1-1,.78A2.34,2.34,0,0,1,210.1,101.65Z"/><path class="cls-68" d="M209.84,115.62c0-.74.47-1.09,1-.78a2.3,2.3,0,0,1,1,1.92c0,.74-.47,1.09-1,.78A2.34,2.34,0,0,1,209.84,115.62Z"/><path class="cls-68" d="M200.07,95.91c0-.74.47-1.09,1-.78a2.34,2.34,0,0,1,1,1.92c0,.74-.47,1.09-1,.78A2.3,2.3,0,0,1,200.07,95.91Z"/><path class="cls-68" d="M199.8,109.88c0-.74.47-1.09,1-.78a2.34,2.34,0,0,1,1,1.92c0,.74-.47,1.09-1,.78A2.34,2.34,0,0,1,199.8,109.88Z"/><path class="cls-68" d="M190,90.17c0-.74.47-1.09,1-.78a2.33,2.33,0,0,1,1,1.92c0,.74-.47,1.09-1,.78A2.33,2.33,0,0,1,190,90.17Z"/><ellipse class="cls-68" cx="190.76" cy="104.71" rx="0.88" ry="1.53" transform="translate(-24.95 76.01) rotate(-21.18)"/><path class="cls-68" d="M180,84.43c0-.74.47-1.09,1-.78a2.3,2.3,0,0,1,1,1.92c0,.74-.47,1.09-1,.78A2.34,2.34,0,0,1,180,84.43Z"/><path class="cls-68" d="M179.73,98.4c0-.75.47-1.1,1-.78a2.31,2.31,0,0,1,1,1.92c0,.74-.47,1.09-1,.78A2.34,2.34,0,0,1,179.73,98.4Z"/><path class="cls-68" d="M170,78.69c0-.75.47-1.1,1-.78a2.34,2.34,0,0,1,1,1.92c0,.74-.47,1.09-1,.78A2.35,2.35,0,0,1,170,78.69Z"/><path class="cls-68" d="M169.69,92.66c0-.75.47-1.1,1-.78a2.32,2.32,0,0,1,1,1.91c0,.75-.47,1.1-1,.79A2.34,2.34,0,0,1,169.69,92.66Z"/><ellipse class="cls-68" cx="160.91" cy="73.52" rx="0.88" ry="1.53" transform="translate(-15.69 63.11) rotate(-21.18)"/><path class="cls-68" d="M159.65,86.92c0-.75.47-1.1,1-.78a2.33,2.33,0,0,1,1,1.91c0,.75-.47,1.1-1,.79A2.36,2.36,0,0,1,159.65,86.92Z"/><path class="cls-68" d="M149.88,67.21c0-.75.47-1.1,1-.78a2.3,2.3,0,0,1,1,1.91c0,.75-.47,1.1-1,.79A2.36,2.36,0,0,1,149.88,67.21Z"/><path class="cls-68" d="M149.61,81.18c0-.75.47-1.1,1-.79a2.36,2.36,0,0,1,1,1.92c0,.75-.47,1.1-1,.79A2.36,2.36,0,0,1,149.61,81.18Z"/><path class="cls-68" d="M299.89,182.79c0-.75.47-1.1,1-.78a2.32,2.32,0,0,1,1,1.91c0,.75-.47,1.1-1,.79A2.36,2.36,0,0,1,299.89,182.79Z"/><path class="cls-68" d="M299.62,196.76c0-.75.47-1.1,1-.79a2.36,2.36,0,0,1,1,1.92c0,.75-.47,1.1-1,.79A2.36,2.36,0,0,1,299.62,196.76Z"/><path class="cls-68" d="M289.85,177.05c0-.75.47-1.1,1-.78a2.3,2.3,0,0,1,1,1.91c0,.75-.47,1.1-1,.79A2.36,2.36,0,0,1,289.85,177.05Z"/><path class="cls-68" d="M289.59,191c0-.75.47-1.1,1-.79a2.34,2.34,0,0,1,1,1.92c0,.75-.47,1.1-1,.78A2.32,2.32,0,0,1,289.59,191Z"/><path class="cls-68" d="M279.81,171.31c0-.75.47-1.1,1-.79a2.36,2.36,0,0,1,1,1.92c0,.75-.47,1.1-1,.78A2.33,2.33,0,0,1,279.81,171.31Z"/><path class="cls-68" d="M279.55,185.28c0-.75.47-1.1,1-.79a2.36,2.36,0,0,1,1,1.92c0,.75-.47,1.1-1,.78A2.3,2.3,0,0,1,279.55,185.28Z"/><path class="cls-68" d="M269.77,165.57c0-.75.47-1.1,1-.79a2.36,2.36,0,0,1,1,1.92c0,.75-.47,1.1-1,.78A2.33,2.33,0,0,1,269.77,165.57Z"/><ellipse class="cls-68" cx="270.5" cy="180.1" rx="0.88" ry="1.53" transform="translate(-46.8 109.92) rotate(-21.18)"/><path class="cls-68" d="M259.74,159.82c0-.74.47-1.09,1-.78a2.32,2.32,0,0,1,1,1.92c0,.75-.47,1.1-1,.78A2.33,2.33,0,0,1,259.74,159.82Z"/><path class="cls-68" d="M259.47,173.79c0-.74.47-1.09,1-.78a2.34,2.34,0,0,1,1,1.92c0,.74-.47,1.09-1,.78A2.34,2.34,0,0,1,259.47,173.79Z"/><path class="cls-68" d="M249.7,154.08c0-.74.47-1.09,1-.78a2.33,2.33,0,0,1,1,1.92c0,.74-.47,1.1-1,.78A2.31,2.31,0,0,1,249.7,154.08Z"/><path class="cls-68" d="M249.44,168.05c0-.74.47-1.09,1-.78a2.34,2.34,0,0,1,1,1.92c0,.74-.47,1.09-1,.78A2.3,2.3,0,0,1,249.44,168.05Z"/><path class="cls-68" d="M239.66,148.34c0-.74.47-1.09,1-.78a2.34,2.34,0,0,1,1,1.92c0,.74-.47,1.09-1,.78A2.34,2.34,0,0,1,239.66,148.34Z"/><path class="cls-68" d="M239.4,162.31c0-.74.47-1.09,1-.78a2.33,2.33,0,0,1,1,1.92c0,.74-.47,1.09-1,.78A2.33,2.33,0,0,1,239.4,162.31Z"/><path class="cls-68" d="M229.62,142.6c0-.74.47-1.09,1-.78a2.34,2.34,0,0,1,1,1.92c0,.74-.47,1.09-1,.78A2.34,2.34,0,0,1,229.62,142.6Z"/><path class="cls-68" d="M229.36,156.57c0-.74.47-1.1,1-.78a2.3,2.3,0,0,1,1,1.92c0,.74-.46,1.09-1,.78A2.34,2.34,0,0,1,229.36,156.57Z"/><path class="cls-68" d="M219.59,136.86c0-.74.47-1.09,1-.78a2.34,2.34,0,0,1,1,1.92c0,.74-.47,1.09-1,.78A2.3,2.3,0,0,1,219.59,136.86Z"/><path class="cls-68" d="M219.32,150.83c0-.75.47-1.1,1-.78a2.34,2.34,0,0,1,1,1.92c0,.74-.47,1.09-1,.78A2.35,2.35,0,0,1,219.32,150.83Z"/><path class="cls-68" d="M209.55,131.12c0-.75.47-1.1,1-.78a2.33,2.33,0,0,1,1,1.92c0,.74-.47,1.09-1,.78A2.34,2.34,0,0,1,209.55,131.12Z"/><path class="cls-68" d="M209.28,145.09c0-.75.47-1.1,1-.78a2.33,2.33,0,0,1,1,1.91c0,.75-.47,1.1-1,.79A2.36,2.36,0,0,1,209.28,145.09Z"/><path class="cls-68" d="M199.51,125.38c0-.75.47-1.1,1-.78a2.3,2.3,0,0,1,1,1.91c0,.75-.46,1.1-1,.79A2.36,2.36,0,0,1,199.51,125.38Z"/><path class="cls-68" d="M199.25,139.35c0-.75.47-1.1,1-.78a2.3,2.3,0,0,1,1,1.91c0,.75-.47,1.1-1,.79A2.36,2.36,0,0,1,199.25,139.35Z"/><path class="cls-68" d="M189.47,119.64c0-.75.47-1.1,1-.78a2.33,2.33,0,0,1,1,1.91c0,.75-.47,1.1-1,.79A2.36,2.36,0,0,1,189.47,119.64Z"/><path class="cls-68" d="M189.21,133.61c0-.75.47-1.1,1-.79a2.33,2.33,0,0,1,1,1.92c0,.75-.47,1.1-1,.78A2.33,2.33,0,0,1,189.21,133.61Z"/><path class="cls-68" d="M179.43,113.9c0-.75.47-1.1,1-.79a2.36,2.36,0,0,1,1,1.92c0,.75-.47,1.1-1,.79A2.36,2.36,0,0,1,179.43,113.9Z"/><path class="cls-68" d="M179.17,127.87c0-.75.47-1.1,1-.79a2.36,2.36,0,0,1,1,1.92c0,.75-.47,1.1-1,.78A2.33,2.33,0,0,1,179.17,127.87Z"/><path class="cls-68" d="M169.4,108.16c0-.75.47-1.1,1-.79a2.34,2.34,0,0,1,1,1.92c0,.75-.47,1.1-1,.78A2.32,2.32,0,0,1,169.4,108.16Z"/><path class="cls-68" d="M169.13,122.13c0-.75.47-1.1,1-.79a2.35,2.35,0,0,1,1,1.92c0,.75-.47,1.1-1,.78A2.33,2.33,0,0,1,169.13,122.13Z"/><path class="cls-68" d="M159.36,102.42c0-.75.47-1.1,1-.79a2.34,2.34,0,0,1,1,1.92c0,.75-.47,1.1-1,.78A2.33,2.33,0,0,1,159.36,102.42Z"/><path class="cls-68" d="M159.1,116.38c0-.74.47-1.09,1-.78a2.35,2.35,0,0,1,1,1.92c0,.75-.47,1.1-1,.78A2.3,2.3,0,0,1,159.1,116.38Z"/><path class="cls-68" d="M149.32,96.67c0-.74.47-1.09,1-.78a2.35,2.35,0,0,1,1,1.92c0,.75-.47,1.1-1,.78A2.34,2.34,0,0,1,149.32,96.67Z"/><path class="cls-68" d="M149.06,110.64c0-.74.47-1.09,1-.78a2.33,2.33,0,0,1,1,1.92c0,.74-.47,1.09-1,.78A2.31,2.31,0,0,1,149.06,110.64Z"/></g><path class="cls-85" d="M281.75,111.3l0-6.83c0-.39.32-.53.72-.3h0a1.45,1.45,0,0,1,.7,1.13l0,6.83c0,.39-.32.53-.71.3h0A1.46,1.46,0,0,1,281.75,111.3Z"/><path class="cls-85" d="M269.57,109.88l0-9.36c0-.39.33-.53.72-.3h0a1.51,1.51,0,0,1,.71,1.13l0,9.35c0,.4-.32.53-.72.3h0A1.49,1.49,0,0,1,269.57,109.88Z"/><path class="cls-86" d="M287.82,117.62l0-6.84c0-.39.32-.52.71-.3h0a1.48,1.48,0,0,1,.71,1.13l0,6.83c0,.4-.32.53-.71.3h0A1.46,1.46,0,0,1,287.82,117.62Z"/><path class="cls-86" d="M275.64,116.77l.07-20.41c0-.39.32-.52.71-.29h0a1.47,1.47,0,0,1,.71,1.12l-.07,20.41c0,.39-.32.52-.71.29h0A1.47,1.47,0,0,1,275.64,116.77Z"/><path class="cls-86" d="M263.52,99.41l0-12.26c0-.4.32-.53.71-.3h0A1.46,1.46,0,0,1,265,88l0,12.26c0,.4-.32.53-.71.3h0A1.45,1.45,0,0,1,263.52,99.41Z"/><path class="cls-85" d="M250.79,91.08l0-6.84c0-.39.32-.52.71-.29h0a1.47,1.47,0,0,1,.71,1.12l0,6.83c0,.4-.33.53-.72.3h0A1.49,1.49,0,0,1,250.79,91.08Z"/><path class="cls-85" d="M238.62,89.65l0-9.35c0-.4.32-.53.71-.3h0a1.45,1.45,0,0,1,.71,1.12l0,9.36c0,.39-.32.52-.71.3h0A1.48,1.48,0,0,1,238.62,89.65Z"/><path class="cls-86" d="M256.86,97.39l0-6.83c0-.4.33-.53.72-.3h0a1.49,1.49,0,0,1,.71,1.12l0,6.84c0,.39-.32.52-.71.29h0A1.47,1.47,0,0,1,256.86,97.39Z"/><path class="cls-86" d="M244.68,96.54l.07-20.4c0-.4.32-.53.72-.3h0a1.45,1.45,0,0,1,.7,1.12l-.06,20.41c0,.39-.32.53-.72.3h0A1.51,1.51,0,0,1,244.68,96.54Z"/><path class="cls-86" d="M232.56,79.18l0-12.26c0-.39.32-.53.72-.3h0a1.49,1.49,0,0,1,.71,1.13L234,80c0,.39-.32.53-.71.3h0A1.51,1.51,0,0,1,232.56,79.18Z"/><g class="cls-67"><path class="cls-68" d="M254.63,89.06l0-6.83c0-.4.32-.53.71-.3h0a1.49,1.49,0,0,1,.71,1.13l0,6.83c0,.39-.32.52-.72.3h0A1.47,1.47,0,0,1,254.63,89.06Z"/><path class="cls-68" d="M242.45,87.63l0-9.35c0-.39.32-.53.71-.3h0a1.46,1.46,0,0,1,.71,1.13l0,9.35c0,.39-.32.53-.71.3h0A1.49,1.49,0,0,1,242.45,87.63Z"/><path class="cls-68" d="M260.69,95.37l0-6.83c0-.39.32-.53.71-.3h0a1.49,1.49,0,0,1,.71,1.13l0,6.83c0,.39-.32.53-.72.3h0A1.49,1.49,0,0,1,260.69,95.37Z"/><path class="cls-68" d="M248.52,94.52l.06-20.4c0-.39.33-.53.72-.3h0A1.49,1.49,0,0,1,250,75l-.07,20.4c0,.4-.32.53-.71.3h0A1.46,1.46,0,0,1,248.52,94.52Z"/><path class="cls-68" d="M236.39,77.16l.05-12.26c0-.39.32-.52.71-.3h0a1.51,1.51,0,0,1,.71,1.13l0,12.26c0,.4-.32.53-.72.3h0A1.49,1.49,0,0,1,236.39,77.16Z"/></g><g class="cls-67"><path class="cls-68" d="M285.58,109.29l0-6.84c0-.39.32-.52.72-.29h0a1.47,1.47,0,0,1,.71,1.12l0,6.83c0,.4-.32.53-.71.3h0A1.49,1.49,0,0,1,285.58,109.29Z"/><path class="cls-68" d="M273.41,107.86l0-9.35c0-.4.32-.53.71-.3h0a1.49,1.49,0,0,1,.71,1.12l0,9.36c0,.39-.32.53-.72.3h0A1.47,1.47,0,0,1,273.41,107.86Z"/><path class="cls-68" d="M291.65,115.6l0-6.83c0-.4.32-.53.72-.3h0a1.45,1.45,0,0,1,.7,1.12l0,6.84c0,.39-.32.52-.71.3h0A1.51,1.51,0,0,1,291.65,115.6Z"/><path class="cls-68" d="M279.47,114.75l.07-20.4c0-.4.32-.53.71-.3h0a1.46,1.46,0,0,1,.71,1.12l-.07,20.41c0,.39-.32.53-.71.3h0A1.49,1.49,0,0,1,279.47,114.75Z"/><path class="cls-68" d="M267.35,97.39l0-12.26c0-.39.32-.53.72-.3h0a1.45,1.45,0,0,1,.7,1.13l0,12.26c0,.39-.32.53-.71.3h0A1.51,1.51,0,0,1,267.35,97.39Z"/></g><g class="cls-67"><path class="cls-68" d="M222.44,127a.14.14,0,0,1-.14-.14l0-9.15a.15.15,0,0,1,.14-.14.14.14,0,0,1,.14.14l0,9.15A.14.14,0,0,1,222.44,127Z"/><path class="cls-68" d="M233.85,133.67a.14.14,0,0,1-.14-.14l.08-22.4a.13.13,0,0,1,.13-.14.14.14,0,0,1,.14.14l-.07,22.4A.14.14,0,0,1,233.85,133.67Z"/><polygon class="cls-68" points="235.72 137.41 231.95 135.21 231.95 137.02 235.72 139.22 235.72 137.41"/><polygon class="cls-68" points="224.12 130.66 220.35 128.46 220.34 130.27 224.12 132.47 224.12 130.66"/><path class="cls-68" d="M245.25,140.3a.13.13,0,0,1-.13-.13l0-9.16a.13.13,0,0,1,.14-.13.13.13,0,0,1,.13.13l0,9.16A.13.13,0,0,1,245.25,140.3Z"/><polygon class="cls-68" points="247.13 144.04 243.36 141.85 243.35 143.66 247.13 145.85 247.13 144.04"/><path class="cls-68" d="M256.66,146.9a.14.14,0,0,1-.14-.14l.08-22.4a.13.13,0,0,1,.14-.13.13.13,0,0,1,.13.13l-.07,22.4A.14.14,0,0,1,256.66,146.9Z"/><polygon class="cls-68" points="258.54 150.68 254.77 148.49 254.76 150.29 258.53 152.49 258.54 150.68"/><path class="cls-68" d="M268.07,153.54a.14.14,0,0,1-.14-.14l0-9.15a.14.14,0,0,1,.14-.14.14.14,0,0,1,.14.14l0,9.15A.16.16,0,0,1,268.07,153.54Z"/><polygon class="cls-68" points="269.94 157.32 266.17 155.12 266.17 156.93 269.94 159.13 269.94 157.32"/><path class="cls-68" d="M279.47,160.17a.13.13,0,0,1-.13-.14l.07-22.4a.13.13,0,0,1,.14-.13.14.14,0,0,1,.14.14l-.08,22.4A.13.13,0,0,1,279.47,160.17Z"/><polygon class="cls-68" points="281.35 163.95 277.58 161.76 277.57 163.57 281.34 165.76 281.35 163.95"/><path class="cls-68" d="M290.88,166.81a.14.14,0,0,1-.14-.14l0-9.15a.14.14,0,0,1,.14-.14.14.14,0,0,1,.14.14l0,9.15A.14.14,0,0,1,290.88,166.81Z"/><polygon class="cls-68" points="292.76 170.59 288.99 168.39 288.98 170.2 292.75 172.4 292.76 170.59"/><path class="cls-87" d="M220.19,119.78a.93.93,0,0,1-.41-.72c0-.27.18-.38.41-.24l2.27,1.31,0,0c1.54.89,3.3-.33,5-1.51,2-1.39,4.11-2.83,6.4-1.54l.06,0c2.19,1.28,4.09,4.34,5.92,7.3,1.73,2.78,3.52,5.66,5.4,6.76,1.7,1,3.27-1.89,4.8-4.67,1.87-3.42,3.81-7,6.67-5.3s4.64,6.28,6.43,10.79c1.57,4,3.06,7.69,4.9,8.76h0a25.19,25.19,0,0,0,5.79,2.32,26.14,26.14,0,0,1,5.61,2.19c2.18,1.19,3.9,3.53,5.56,5.79s3.45,4.69,5.78,6l.06,0,4,2.35a.93.93,0,0,1,.42.72c0,.26-.19.37-.42.24l-4-2.35-.07,0c-2.58-1.5-4.44-4-6.23-6.47-1.63-2.21-3.16-4.3-5.08-5.35a25.21,25.21,0,0,0-5.43-2.12,25.92,25.92,0,0,1-6-2.39l0,0c-2.31-1.35-3.91-5.37-5.61-9.64s-3.4-8.56-5.73-9.91-4.23,2.12-5.92,5.18-3.32,6.07-5.54,4.78-4.1-4.35-5.95-7.32-3.5-5.64-5.37-6.73l-.05,0c-1.93-1.09-3.9.27-5.8,1.58s-3.72,2.57-5.61,1.47l-.05,0-2.26-1.3Z"/></g><path class="cls-68" d="M217.89,128.32a.15.15,0,0,1-.14-.14l0-9.16a.13.13,0,0,1,.13-.13.14.14,0,0,1,.14.14l0,9.15A.14.14,0,0,1,217.89,128.32Z"/><path class="cls-68" d="M229.3,135a.14.14,0,0,1-.14-.14l.08-22.4a.13.13,0,0,1,.13-.13.13.13,0,0,1,.14.13l-.07,22.4A.14.14,0,0,1,229.3,135Z"/><polygon class="cls-68" points="231.18 138.69 227.4 136.5 227.4 138.31 231.17 140.5 231.18 138.69"/><polygon class="cls-68" points="219.57 131.94 215.8 129.75 215.8 131.56 219.57 133.75 219.57 131.94"/><path class="cls-68" d="M240.7,141.59a.13.13,0,0,1-.13-.14l0-9.15a.14.14,0,0,1,.14-.14.13.13,0,0,1,.13.14l0,9.15A.14.14,0,0,1,240.7,141.59Z"/><polygon class="cls-68" points="242.58 145.33 238.81 143.13 238.8 144.94 242.58 147.14 242.58 145.33"/><path class="cls-68" d="M252.11,148.18a.14.14,0,0,1-.14-.13l.08-22.4a.14.14,0,0,1,.14-.14.13.13,0,0,1,.13.14l-.07,22.4A.13.13,0,0,1,252.11,148.18Z"/><polygon class="cls-68" points="253.99 151.96 250.22 149.77 250.21 151.58 253.98 153.77 253.99 151.96"/><path class="cls-68" d="M263.52,154.82a.14.14,0,0,1-.14-.14l0-9.15a.14.14,0,0,1,.28,0l0,9.15A.14.14,0,0,1,263.52,154.82Z"/><polygon class="cls-68" points="265.39 158.6 261.62 156.41 261.62 158.21 265.39 160.41 265.39 158.6"/><path class="cls-68" d="M274.92,161.46a.14.14,0,0,1-.13-.14l.07-22.4a.14.14,0,1,1,.28,0l-.08,22.4A.14.14,0,0,1,274.92,161.46Z"/><polygon class="cls-68" points="276.8 165.24 273.03 163.04 273.02 164.85 276.8 167.04 276.8 165.24"/><path class="cls-68" d="M286.33,168.09a.14.14,0,0,1-.14-.14l0-9.15a.15.15,0,0,1,.14-.14.14.14,0,0,1,.14.14l0,9.16A.13.13,0,0,1,286.33,168.09Z"/><polygon class="cls-68" points="288.21 171.87 284.44 169.68 284.43 171.49 288.2 173.68 288.21 171.87"/><path class="cls-88" d="M215.64,121.06a.9.9,0,0,1-.41-.72c0-.26.18-.37.41-.24l2.27,1.31,0,0c1.54.89,3.3-.33,5-1.51,2-1.39,4.11-2.83,6.4-1.54l.06,0c2.19,1.27,4.09,4.33,5.92,7.29,1.73,2.78,3.52,5.66,5.41,6.76,1.69,1,3.27-1.89,4.79-4.67,1.87-3.42,3.81-7,6.67-5.3s4.64,6.29,6.43,10.79c1.57,4,3.06,7.69,4.9,8.77h0a25.57,25.57,0,0,0,5.79,2.31,25.94,25.94,0,0,1,5.61,2.19c2.18,1.19,3.9,3.54,5.56,5.79s3.45,4.69,5.78,6l.06,0,4,2.34a.94.94,0,0,1,.42.72c0,.27-.19.37-.42.24l-4-2.34-.07,0c-2.58-1.49-4.43-4-6.23-6.47-1.63-2.21-3.16-4.3-5.08-5.35a25.14,25.14,0,0,0-5.43-2.11,26.46,26.46,0,0,1-6-2.4l0,0c-2.31-1.34-3.91-5.37-5.61-9.64s-3.4-8.56-5.73-9.91-4.23,2.12-5.92,5.19-3.32,6.07-5.54,4.78-4.1-4.35-5.95-7.32-3.5-5.65-5.37-6.74l0,0c-1.93-1.08-3.89.27-5.79,1.58s-3.73,2.57-5.62,1.47l0,0-2.26-1.31Z"/><path class="cls-71" d="M200.2,317s-.16,5.31,2,6.22c4.38,1.86,9.7-3.53,13.26-9.63,4.18-7.15-2.17-7.69-6.91-3.48C201.22,316.55,200.2,317,200.2,317Z"/><path class="cls-72" d="M200.21,315.52s-.58,5.31,1.56,6.22c4.38,1.86,10.12-3.53,13.69-9.63,4.17-7.15-2.17-7.69-6.92-3.48C201.23,315.13,200.21,315.52,200.21,315.52Z"/><path class="cls-89" d="M193.19,191.36c-4.69,11.88-16.44,24.25-.29,48.1,2.1,3.1,5.93-.46,7.4-2.27,3.27-4-3.2-6-4.71-12.79-2.41-10.86-1-14.45-.35-15.93,1.09-2.35,15.92-23.62,15.92-23.62s-2.7-.18-8.65-4.67C198.55,177.2,194.53,188,193.19,191.36Z"/><path class="cls-73" d="M199.1,281.21c1.19,8.68-.28,25.08.85,34.92.45,3.9,8.49,1.16,9.74-3.21,2.91-10.19,1.41-33.22,1.64-50.35.17-12.4-.62-24.29-.62-24.29s-17.66-9.14-17.85-4.54C192.28,247.92,197.47,269.35,199.1,281.21Z"/><path class="cls-71" d="M215.63,326s-.58,4.22.58,5.33c3.48,3.37,9.23-.67,16.34-5.65,6.5-4.56,3.33-6.83-4.29-4.65C218.87,323.73,215.63,326,215.63,326Z"/><path class="cls-72" d="M215.64,324.76s-.58,4.21.58,5.33c3.48,3.36,9.23-.68,16.34-5.66,6.5-4.56,3.33-6.83-4.28-4.65C218.88,322.48,215.64,324.76,215.64,324.76Z"/><path class="cls-73" d="M194.82,230.72c3.79,21.39,18.23,42.18,19.36,52.38,1.19,10.63-.67,32.85,1.33,42.46.75,3.66,9.89-.56,10.47-3.65,1.1-5.87,2.89-37.06,1.82-47.5-1-10.12-11.24-26.81-13.64-42C213.26,226.83,193.83,225.13,194.82,230.72Z"/><path class="cls-90" d="M202.8,177.52c-5.09,2.21-6.6,3.27-9.62,18.55-1.58,8-4.06,37.79,2.31,75.88,1.73,10.35,36.56,11.79,36.56,4.13,0-19-7.5-50.74-6.55-61.09s5.07-15.52,2.39-23.86c-1-3.2-5.47-8.48-9.08-9.75C214.65,179.93,205.82,176.21,202.8,177.52Z"/><path class="cls-76" d="M218.86,176.39s-2.72,3.58-.05,5a16,16,0,0,1-12.06-3.89c2.06.07,3.49-4.24,7.44-10.76C216.09,163.61,218.86,176.39,218.86,176.39Z"/><path class="cls-76" d="M211.67,169.58c.93,3.84,5.66,7.57,8.91,6.79s3.5-5.87,2.86-9.63-4.31-6.33-7.56-5.55S210.75,165.73,211.67,169.58Z"/><path class="cls-72" d="M210.88,172.67c2.3-.86,5.18,1.07,5.92.81s2.63-2,4.24-4.33.93-2.7,3.22-4.68,1.14-5,1.14-5-1.78,1.37-3.15.86c-3.43-1.28-5.08-1-8.13-.23C208.5,161.49,209.22,168.34,210.88,172.67Z"/><path class="cls-76" d="M270.08,156.91a74,74,0,0,1,12-10.68c2.08-1.32,1.91.61,1,1.53s-3.36,2.9-2.94,3.44,3.61,5.08.46,6.76a58.52,58.52,0,0,1-5.37,2.56Z"/><path class="cls-76" d="M221.77,171.64h0a1.19,1.19,0,0,0,.32-1.65l-.91-1.35a1.2,1.2,0,0,0-1.65-.32h0a1.19,1.19,0,0,0-.32,1.65l.91,1.35A1.18,1.18,0,0,0,221.77,171.64Z"/><path class="cls-91" d="M224.31,185.53c-7.12-3.08.3,19.44,3.45,18s28.32-17.76,32.18-22.1,13.6-17.14,16.12-20-1.68-7.7-5.08-5.26-18.74,18.24-21.65,19.88C243.31,179.49,231,188.42,224.31,185.53Z"/><path class="cls-92" d="M189.39,83.64c-8.39-5.06-15.33-1.22-15.51,8.57s6.46,21.81,14.84,26.86,15.33,1.21,15.51-8.57S197.77,88.69,189.39,83.64Zm-.59,31.28c-6.42-3.87-11.51-13.08-11.37-20.57s5.46-10.43,11.88-6.57,11.51,13.08,11.37,20.58S195.22,118.79,188.8,114.92Z"/><path class="cls-65" d="M198.79,99.48l3-.57c-2.65-6.31-7.18-12.14-12.38-15.27l-.08,4.14C193.3,90.19,196.77,94.65,198.79,99.48Z"/><path class="cls-93" d="M190.15,42.82c-8.38-5.06-15.32-1.22-15.51,8.57s6.47,21.81,14.85,26.86,15.32,1.21,15.51-8.57S198.53,47.87,190.15,42.82Zm-.59,31.28c-6.41-3.87-11.5-13.08-11.36-20.57S183.66,43.1,190.07,47,201.58,60,201.44,67.54,196,78,189.56,74.1Z"/><path class="cls-65" d="M201.44,67.54c-.06,3.13-1,5.46-2.61,6.83l2.76,4.24c2.06-1.8,3.33-4.84,3.41-8.93.18-9.79-6.47-21.81-14.85-26.86L190.07,47C196.49,50.83,201.58,60,201.44,67.54Z"/><polygon class="cls-68" points="169.58 102.06 149.5 90.37 149.49 95.06 169.57 106.75 169.58 102.06"/><polygon class="cls-68" points="169.58 95.06 149.5 83.37 149.49 88.06 169.57 99.75 169.58 95.06"/><polygon class="cls-68" points="169.58 62.06 149.5 50.37 149.49 55.06 169.57 66.75 169.58 62.06"/><polygon class="cls-68" points="169.58 55.06 149.5 43.37 149.49 48.06 169.57 59.75 169.58 55.06"/><g class="cls-67"><path class="cls-94" d="M193.39,81.64c-8.39-5.06-15.33-1.22-15.51,8.57s6.46,21.81,14.84,26.86,15.33,1.21,15.51-8.57S201.77,86.69,193.39,81.64Zm-.59,31.28c-6.42-3.87-11.51-13.08-11.37-20.57s5.46-10.43,11.88-6.57,11.51,13.08,11.37,20.58S199.22,116.79,192.8,112.92Z"/><path class="cls-65" d="M202.79,97.48l3-.57c-2.65-6.31-7.18-12.14-12.38-15.27l-.08,4.14C197.3,88.19,200.77,92.65,202.79,97.48Z"/><path class="cls-95" d="M194.15,40.82c-8.38-5.06-15.32-1.22-15.51,8.57s6.47,21.81,14.85,26.86,15.32,1.21,15.51-8.57S202.53,45.87,194.15,40.82Zm-.59,31.28c-6.41-3.87-11.5-13.08-11.36-20.57S187.66,41.1,194.07,45,205.58,58,205.44,65.54,200,76,193.56,72.1Z"/><path class="cls-65" d="M205.44,65.54c-.06,3.13-1,5.46-2.61,6.83l2.76,4.24c2.06-1.8,3.33-4.84,3.41-8.93.18-9.79-6.47-21.81-14.85-26.86L194.07,45C200.49,48.83,205.58,58,205.44,65.54Z"/><polygon class="cls-68" points="173.58 100.06 153.5 88.37 153.49 93.06 173.57 104.75 173.58 100.06"/><polygon class="cls-68" points="173.58 93.06 153.5 81.37 153.49 86.06 173.57 97.75 173.58 93.06"/><polygon class="cls-68" points="173.58 60.06 153.5 48.37 153.49 53.06 173.57 64.75 173.58 60.06"/><polygon class="cls-68" points="173.58 53.06 153.5 41.37 153.49 46.06 173.57 57.75 173.58 53.06"/></g><g class="cls-96"><polygon class="cls-97" points="133.77 392.88 133.77 400.98 140.37 404.61 140.37 396.52 133.77 392.88"/></g><g class="cls-98"><polygon class="cls-97" points="82.46 364.62 82.46 372.71 89.06 376.34 89.06 368.25 82.46 364.62"/></g><g class="cls-99"><polygon class="cls-97" points="56.81 350.48 56.81 358.57 63.4 362.21 63.4 354.12 56.81 350.48"/></g><g class="cls-100"><polygon class="cls-97" points="18.33 329.28 18.33 337.37 24.92 341.01 24.92 332.92 18.33 329.28"/></g><g class="cls-101"><polygon class="cls-97" points="5.5 322.22 5.5 330.31 12.1 333.94 12.1 325.85 5.5 322.22"/></g><g class="cls-102"><polygon class="cls-97" points="133.77 409.22 133.77 417.31 140.37 420.95 140.37 412.86 133.77 409.22"/></g><g class="cls-103"><polygon class="cls-97" points="120.94 402.16 120.94 410.25 127.54 413.88 127.54 405.79 120.94 402.16"/></g><g class="cls-104"><polygon class="cls-71" points="56.81 366.82 56.81 374.91 63.4 378.55 63.4 370.46 56.81 366.82"/></g><g class="cls-105"><polygon class="cls-97" points="18.33 345.62 18.33 353.71 24.92 357.35 24.92 349.25 18.33 345.62"/></g><g class="cls-106"><polygon class="cls-97" points="133.77 425.56 133.77 433.65 140.37 437.29 140.37 429.2 133.77 425.56"/></g><g class="cls-107"><polygon class="cls-97" points="120.94 418.5 120.94 426.59 127.54 430.22 127.54 422.13 120.94 418.5"/></g><g class="cls-108"><polygon class="cls-97" points="82.46 397.3 82.46 405.39 89.06 409.02 89.06 400.93 82.46 397.3"/></g><g class="cls-109"><polygon class="cls-71" points="56.81 383.16 56.81 391.25 63.4 394.89 63.4 386.8 56.81 383.16"/></g><g class="cls-110"><polygon class="cls-97" points="5.5 354.9 5.5 362.99 12.1 366.62 12.1 358.53 5.5 354.9"/></g><g class="cls-111"><polygon class="cls-71" points="133.77 441.9 133.77 449.99 140.37 453.63 140.37 445.54 133.77 441.9"/></g><g class="cls-112"><polygon class="cls-97" points="120.94 434.84 120.94 442.93 127.54 446.56 127.54 438.47 120.94 434.84"/></g><g class="cls-113"><polygon class="cls-97" points="82.46 413.64 82.46 421.73 89.06 425.36 89.06 417.27 82.46 413.64"/></g><g class="cls-114"><polygon class="cls-97" points="56.81 399.5 56.81 407.59 63.4 411.23 63.4 403.13 56.81 399.5"/></g><g class="cls-115"><polygon class="cls-97" points="5.5 371.24 5.5 379.33 12.1 382.96 12.1 374.87 5.5 371.24"/></g><g class="cls-116"><polygon class="cls-97" points="133.77 458.24 133.77 466.33 140.37 469.97 140.37 461.88 133.77 458.24"/></g><g class="cls-117"><polygon class="cls-97" points="82.46 429.98 82.46 438.07 89.06 441.7 89.06 433.61 82.46 429.98"/></g><g class="cls-118"><polygon class="cls-97" points="5.5 387.57 5.5 395.67 12.1 399.3 12.1 391.21 5.5 387.57"/></g><g class="cls-119"><polygon class="cls-97" points="133.77 474.58 133.77 482.67 140.37 486.31 140.37 478.22 133.77 474.58"/></g><g class="cls-120"><polygon class="cls-97" points="82.46 446.32 82.46 454.41 89.06 458.04 89.06 449.95 82.46 446.32"/></g><g class="cls-121"><polygon class="cls-97" points="43.98 425.12 43.98 433.21 50.58 436.84 50.58 428.75 43.98 425.12"/></g><g class="cls-122"><polygon class="cls-97" points="82.46 462.65 82.46 470.75 89.06 474.38 89.06 466.29 82.46 462.65"/></g><g class="cls-123"><polygon class="cls-97" points="43.98 441.45 43.98 449.55 50.58 453.18 50.58 445.09 43.98 441.45"/></g><g class="cls-124"><polygon class="cls-97" points="18.33 427.32 18.33 435.41 24.92 439.05 24.92 430.95 18.33 427.32"/></g><g class="cls-125"><polygon class="cls-97" points="133.77 507.26 133.77 515.35 140.37 518.99 140.37 510.89 133.77 507.26"/></g><g class="cls-126"><polygon class="cls-97" points="82.46 479 82.46 487.09 89.06 490.72 89.06 482.63 82.46 479"/></g><g class="cls-127"><polygon class="cls-97" points="18.33 443.66 18.33 451.75 24.92 455.38 24.92 447.29 18.33 443.66"/></g></g></g></g></svg>