<svg xmlns="http://www.w3.org/2000/svg" xmlns:xlink="http://www.w3.org/1999/xlink" viewBox="0 0 239.33 771.1"><defs><style>.cls-1,.cls-11,.cls-17,.cls-21,.cls-27,.cls-7{mask:url(#mask);}.cls-1{filter:url(#luminosity-noclip-25);}.cls-10,.cls-12,.cls-14,.cls-16,.cls-18,.cls-2,.cls-20,.cls-22,.cls-24,.cls-26,.cls-28,.cls-30,.cls-32,.cls-4,.cls-53,.cls-6,.cls-8{mix-blend-mode:multiply;}.cls-2{fill:url(#linear-gradient);}.cls-13,.cls-19,.cls-23,.cls-25,.cls-29,.cls-3,.cls-9{mask:url(#mask-2);}.cls-3{filter:url(#luminosity-noclip-26);}.cls-4{fill:url(#linear-gradient-2);}.cls-15,.cls-31,.cls-5{mask:url(#mask-3);}.cls-5{filter:url(#luminosity-noclip-27);}.cls-6{fill:url(#linear-gradient-3);}.cls-7{filter:url(#luminosity-noclip-28);}.cls-8{fill:url(#linear-gradient-4);}.cls-9{filter:url(#luminosity-noclip-29);}.cls-10{fill:url(#linear-gradient-5);}.cls-11{filter:url(#luminosity-noclip-30);}.cls-12{fill:url(#linear-gradient-6);}.cls-13{filter:url(#luminosity-noclip-31);}.cls-14{fill:url(#linear-gradient-7);}.cls-15{filter:url(#luminosity-noclip-32);}.cls-16{fill:url(#linear-gradient-8);}.cls-17{filter:url(#luminosity-noclip-33);}.cls-18{fill:url(#linear-gradient-9);}.cls-19{filter:url(#luminosity-noclip-34);}.cls-20{fill:url(#linear-gradient-10);}.cls-21{filter:url(#luminosity-noclip-35);}.cls-22{fill:url(#linear-gradient-11);}.cls-23{filter:url(#luminosity-noclip-36);}.cls-24{fill:url(#linear-gradient-12);}.cls-25{filter:url(#luminosity-noclip-37);}.cls-26{fill:url(#linear-gradient-13);}.cls-27{filter:url(#luminosity-noclip-22);}.cls-28{fill:url(#linear-gradient-14);}.cls-29{filter:url(#luminosity-noclip-23);}.cls-30{fill:url(#linear-gradient-15);}.cls-31{filter:url(#luminosity-noclip-24);}.cls-32{fill:url(#linear-gradient-16);}.cls-33{isolation:isolate;}.cls-34{fill:url(#linear-gradient-17);}.cls-35{fill:#fff;}.cls-36{fill:url(#linear-gradient-18);}.cls-37{opacity:0.2;}.cls-38{fill:#c0c5f0;}.cls-39{mask:url(#mask-17);}.cls-40,.cls-58{fill:#e5e8fe;}.cls-41{mask:url(#mask-18);}.cls-42{fill:#f3f4ff;}.cls-43{fill:url(#linear-gradient-19);}.cls-44{mask:url(#mask-19);}.cls-45{fill:url(#linear-gradient-20);}.cls-46{mask:url(#mask-20);}.cls-47{mask:url(#mask-21);}.cls-48{fill:#4c4aa8;}.cls-49{fill:#1b1b75;}.cls-50{fill:url(#linear-gradient-21);}.cls-51{fill:#ffd6d6;}.cls-52{fill:url(#linear-gradient-22);}.cls-53{fill:#d4d9fe;}.cls-54{fill:url(#linear-gradient-23);}.cls-55,.cls-56{fill:#ffae6c;}.cls-55{opacity:0.3;}.cls-57{mask:url(#mask-22);}.cls-58{opacity:0.5;}.cls-59{mask:url(#mask-23);}.cls-60{mask:url(#mask-24);}.cls-61{mask:url(#mask-25);}.cls-62{mask:url(#mask-26);}.cls-63{mask:url(#mask-27);}.cls-64{mask:url(#mask-28);}.cls-65{mask:url(#mask-29);}.cls-66{mask:url(#mask-30);}.cls-67{mask:url(#mask-31);}.cls-68{mask:url(#mask-32);}.cls-69{mask:url(#mask-33);}.cls-70{mask:url(#mask-34);}.cls-71{mask:url(#mask-35);}.cls-72{mask:url(#mask-36);}.cls-73{mask:url(#mask-37);}.cls-74{filter:url(#luminosity-noclip-21);}.cls-75{filter:url(#luminosity-noclip-20);}.cls-76{filter:url(#luminosity-noclip-19);}.cls-77{filter:url(#luminosity-noclip-18);}.cls-78{filter:url(#luminosity-noclip-17);}.cls-79{filter:url(#luminosity-noclip-3);}.cls-80{filter:url(#luminosity-noclip-2);}.cls-81{filter:url(#luminosity-noclip);}</style><filter id="luminosity-noclip" x="62.98" y="-8369" width="6.92" height="32766" filterUnits="userSpaceOnUse" color-interpolation-filters="sRGB"><feFlood flood-color="#fff" result="bg"/><feBlend in="SourceGraphic" in2="bg"/></filter><mask id="mask" x="62.98" y="-8369" width="6.92" height="32766" maskUnits="userSpaceOnUse"><g class="cls-81"/></mask><linearGradient id="linear-gradient" x1="72.76" y1="200.42" x2="31.84" y2="323.19" gradientTransform="matrix(1, 0.19, 0, 1, 0, -5.32)" gradientUnits="userSpaceOnUse"><stop offset="0" stop-color="#fff"/><stop offset="0.05" stop-color="#f1f1f1"/><stop offset="0.41" stop-color="#8b8b8b"/><stop offset="0.69" stop-color="#404040"/><stop offset="0.9" stop-color="#121212"/><stop offset="1"/></linearGradient><filter id="luminosity-noclip-2" x="22.61" y="-8369" width="6.92" height="32766" filterUnits="userSpaceOnUse" color-interpolation-filters="sRGB"><feFlood flood-color="#fff" result="bg"/><feBlend in="SourceGraphic" in2="bg"/></filter><mask id="mask-2" x="22.61" y="-8369" width="6.92" height="32766" maskUnits="userSpaceOnUse"><g class="cls-80"/></mask><linearGradient id="linear-gradient-2" x1="32.02" y1="186.84" x2="-8.9" y2="309.61" xlink:href="#linear-gradient"/><filter id="luminosity-noclip-3" x="9.16" y="-8369" width="6.92" height="32766" filterUnits="userSpaceOnUse" color-interpolation-filters="sRGB"><feFlood flood-color="#fff" result="bg"/><feBlend in="SourceGraphic" in2="bg"/></filter><mask id="mask-3" x="9.16" y="-8369" width="6.92" height="32766" maskUnits="userSpaceOnUse"><g class="cls-79"/></mask><linearGradient id="linear-gradient-3" x1="18.44" y1="182.32" x2="-22.48" y2="305.08" xlink:href="#linear-gradient"/><linearGradient id="linear-gradient-4" x1="77.9" y1="202.13" x2="36.98" y2="324.9" xlink:href="#linear-gradient"/><linearGradient id="linear-gradient-5" x1="37.16" y1="188.56" x2="-3.76" y2="311.32" xlink:href="#linear-gradient"/><linearGradient id="linear-gradient-6" x1="83.04" y1="203.85" x2="42.12" y2="326.62" xlink:href="#linear-gradient"/><linearGradient id="linear-gradient-7" x1="42.31" y1="190.27" x2="1.38" y2="313.04" xlink:href="#linear-gradient"/><linearGradient id="linear-gradient-8" x1="28.73" y1="185.75" x2="-12.19" y2="308.51" xlink:href="#linear-gradient"/><linearGradient id="linear-gradient-9" x1="88.19" y1="205.56" x2="47.26" y2="328.33" xlink:href="#linear-gradient"/><linearGradient id="linear-gradient-10" x1="47.45" y1="191.99" x2="6.53" y2="314.75" xlink:href="#linear-gradient"/><linearGradient id="linear-gradient-11" x1="93.33" y1="207.28" x2="52.41" y2="330.04" xlink:href="#linear-gradient"/><linearGradient id="linear-gradient-12" x1="52.59" y1="193.7" x2="11.67" y2="316.47" xlink:href="#linear-gradient"/><linearGradient id="linear-gradient-13" x1="57.73" y1="195.42" x2="16.81" y2="318.18" xlink:href="#linear-gradient"/><linearGradient id="linear-gradient-14" x1="67.62" y1="198.71" x2="26.7" y2="321.47" xlink:href="#linear-gradient"/><linearGradient id="linear-gradient-15" x1="26.88" y1="185.13" x2="-14.04" y2="307.89" xlink:href="#linear-gradient"/><linearGradient id="linear-gradient-16" x1="13.3" y1="180.6" x2="-27.62" y2="303.37" xlink:href="#linear-gradient"/><linearGradient id="linear-gradient-17" x1="97.56" y1="440.76" x2="66.3" y2="440.76" gradientUnits="userSpaceOnUse"><stop offset="0" stop-color="#e5e8fe"/><stop offset="1" stop-color="#f3f4ff"/></linearGradient><linearGradient id="linear-gradient-18" y1="129.09" x2="239.33" y2="129.09" gradientUnits="userSpaceOnUse"><stop offset="0" stop-color="#fff"/><stop offset="1" stop-color="#f3f4ff"/></linearGradient><filter id="luminosity-noclip-17" x="26.68" y="-8369" width="2.13" height="32766" filterUnits="userSpaceOnUse" color-interpolation-filters="sRGB"><feFlood flood-color="#fff" result="bg"/><feBlend in="SourceGraphic" in2="bg"/></filter><mask id="mask-17" x="26.68" y="-8369" width="2.13" height="32766" maskUnits="userSpaceOnUse"><g class="cls-78"/></mask><filter id="luminosity-noclip-18" x="202.27" y="-8369" width="2.13" height="32766" filterUnits="userSpaceOnUse" color-interpolation-filters="sRGB"><feFlood flood-color="#fff" result="bg"/><feBlend in="SourceGraphic" in2="bg"/></filter><mask id="mask-18" x="202.27" y="-8369" width="2.13" height="32766" maskUnits="userSpaceOnUse"><g class="cls-77"/></mask><linearGradient id="linear-gradient-19" x1="51.88" y1="181.36" x2="51.29" y2="42.68" gradientUnits="userSpaceOnUse"><stop offset="0" stop-color="#00d5d1"/><stop offset="1" stop-color="#00c9f1"/></linearGradient><filter id="luminosity-noclip-19" x="19.56" y="-8369" width="63.85" height="32766" filterUnits="userSpaceOnUse" color-interpolation-filters="sRGB"><feFlood flood-color="#fff" result="bg"/><feBlend in="SourceGraphic" in2="bg"/></filter><mask id="mask-19" x="19.56" y="-8369" width="63.85" height="32766" maskUnits="userSpaceOnUse"><g class="cls-76"/></mask><linearGradient id="linear-gradient-20" x1="144.61" y1="238.94" x2="143.55" y2="-11.76" gradientUnits="userSpaceOnUse"><stop offset="0" stop-color="#009ce4"/><stop offset="1" stop-color="#00c9f1"/></linearGradient><filter id="luminosity-noclip-20" x="83.41" y="-8369" width="120.99" height="32766" filterUnits="userSpaceOnUse" color-interpolation-filters="sRGB"><feFlood flood-color="#fff" result="bg"/><feBlend in="SourceGraphic" in2="bg"/></filter><mask id="mask-20" x="83.41" y="-8369" width="120.99" height="32766" maskUnits="userSpaceOnUse"><g class="cls-75"/></mask><filter id="luminosity-noclip-21" x="83.41" y="-8369" width="2.13" height="32766" filterUnits="userSpaceOnUse" color-interpolation-filters="sRGB"><feFlood flood-color="#fff" result="bg"/><feBlend in="SourceGraphic" in2="bg"/></filter><mask id="mask-21" x="83.41" y="-8369" width="2.13" height="32766" maskUnits="userSpaceOnUse"><g class="cls-74"/></mask><linearGradient id="linear-gradient-21" x1="36.46" y1="46.19" x2="-84.78" y2="38.07" gradientTransform="matrix(0.86, -0.17, 0.19, 0.98, 33.72, 22.54)" gradientUnits="userSpaceOnUse"><stop offset="0" stop-color="#5468f9"/><stop offset="1" stop-color="#c0c5f0"/></linearGradient><linearGradient id="linear-gradient-22" x1="72.21" y1="62.99" x2="-41.19" y2="55.39" gradientTransform="matrix(1, 0, 0, 1, 0, 0)" xlink:href="#linear-gradient-21"/><linearGradient id="linear-gradient-23" x1="2.76" y1="52.55" x2="-118.47" y2="44.43" gradientTransform="translate(50.16 39.83) rotate(-27.53)" xlink:href="#linear-gradient-21"/><filter id="luminosity-noclip-22" x="62.98" y="203.2" width="6.92" height="12.3" filterUnits="userSpaceOnUse" color-interpolation-filters="sRGB"><feFlood flood-color="#fff" result="bg"/><feBlend in="SourceGraphic" in2="bg"/></filter><mask id="mask-22" x="62.98" y="203.2" width="6.92" height="12.3" maskUnits="userSpaceOnUse"><g class="cls-27"><polygon class="cls-28" points="62.98 203.2 62.98 211.69 69.9 215.5 69.9 207.01 62.98 203.2"/></g></mask><filter id="luminosity-noclip-23" x="22.61" y="180.96" width="6.92" height="12.3" filterUnits="userSpaceOnUse" color-interpolation-filters="sRGB"><feFlood flood-color="#fff" result="bg"/><feBlend in="SourceGraphic" in2="bg"/></filter><mask id="mask-23" x="22.61" y="180.96" width="6.92" height="12.3" maskUnits="userSpaceOnUse"><g class="cls-29"><polygon class="cls-30" points="22.61 180.96 22.61 189.45 29.53 193.26 29.53 184.77 22.61 180.96"/></g></mask><filter id="luminosity-noclip-24" x="9.16" y="173.55" width="6.92" height="12.3" filterUnits="userSpaceOnUse" color-interpolation-filters="sRGB"><feFlood flood-color="#fff" result="bg"/><feBlend in="SourceGraphic" in2="bg"/></filter><mask id="mask-24" x="9.16" y="173.55" width="6.92" height="12.3" maskUnits="userSpaceOnUse"><g class="cls-31"><polygon class="cls-32" points="9.16 173.55 9.16 182.03 16.07 185.84 16.07 177.36 9.16 173.55"/></g></mask><filter id="luminosity-noclip-25" x="62.98" y="220.34" width="6.92" height="12.3" filterUnits="userSpaceOnUse" color-interpolation-filters="sRGB"><feFlood flood-color="#fff" result="bg"/><feBlend in="SourceGraphic" in2="bg"/></filter><mask id="mask-25" x="62.98" y="220.34" width="6.92" height="12.3" maskUnits="userSpaceOnUse"><g class="cls-1"><polygon class="cls-2" points="62.98 220.34 62.98 228.83 69.9 232.64 69.9 224.15 62.98 220.34"/></g></mask><filter id="luminosity-noclip-26" x="22.61" y="198.1" width="6.92" height="12.3" filterUnits="userSpaceOnUse" color-interpolation-filters="sRGB"><feFlood flood-color="#fff" result="bg"/><feBlend in="SourceGraphic" in2="bg"/></filter><mask id="mask-26" x="22.61" y="198.1" width="6.92" height="12.3" maskUnits="userSpaceOnUse"><g class="cls-3"><polygon class="cls-4" points="22.61 198.1 22.61 206.59 29.53 210.4 29.53 201.91 22.61 198.1"/></g></mask><filter id="luminosity-noclip-27" x="9.16" y="190.69" width="6.92" height="12.3" filterUnits="userSpaceOnUse" color-interpolation-filters="sRGB"><feFlood flood-color="#fff" result="bg"/><feBlend in="SourceGraphic" in2="bg"/></filter><mask id="mask-27" x="9.16" y="190.69" width="6.92" height="12.3" maskUnits="userSpaceOnUse"><g class="cls-5"><polygon class="cls-6" points="9.16 190.69 9.16 199.17 16.07 202.99 16.07 194.5 9.16 190.69"/></g></mask><filter id="luminosity-noclip-28" x="62.98" y="237.48" width="6.92" height="12.3" filterUnits="userSpaceOnUse" color-interpolation-filters="sRGB"><feFlood flood-color="#fff" result="bg"/><feBlend in="SourceGraphic" in2="bg"/></filter><mask id="mask-28" x="62.98" y="237.48" width="6.92" height="12.3" maskUnits="userSpaceOnUse"><g class="cls-7"><polygon class="cls-8" points="62.98 237.48 62.98 245.97 69.9 249.78 69.9 241.29 62.98 237.48"/></g></mask><filter id="luminosity-noclip-29" x="22.61" y="215.24" width="6.92" height="12.3" filterUnits="userSpaceOnUse" color-interpolation-filters="sRGB"><feFlood flood-color="#fff" result="bg"/><feBlend in="SourceGraphic" in2="bg"/></filter><mask id="mask-29" x="22.61" y="215.24" width="6.92" height="12.3" maskUnits="userSpaceOnUse"><g class="cls-9"><polygon class="cls-10" points="22.61 215.24 22.61 223.73 29.53 227.54 29.53 219.05 22.61 215.24"/></g></mask><filter id="luminosity-noclip-30" x="62.98" y="254.62" width="6.92" height="12.3" filterUnits="userSpaceOnUse" color-interpolation-filters="sRGB"><feFlood flood-color="#fff" result="bg"/><feBlend in="SourceGraphic" in2="bg"/></filter><mask id="mask-30" x="62.98" y="254.62" width="6.92" height="12.3" maskUnits="userSpaceOnUse"><g class="cls-11"><polygon class="cls-12" points="62.98 254.62 62.98 263.11 69.9 266.92 69.9 258.43 62.98 254.62"/></g></mask><filter id="luminosity-noclip-31" x="22.61" y="232.38" width="6.92" height="12.3" filterUnits="userSpaceOnUse" color-interpolation-filters="sRGB"><feFlood flood-color="#fff" result="bg"/><feBlend in="SourceGraphic" in2="bg"/></filter><mask id="mask-31" x="22.61" y="232.38" width="6.92" height="12.3" maskUnits="userSpaceOnUse"><g class="cls-13"><polygon class="cls-14" points="22.61 232.38 22.61 240.87 29.53 244.68 29.53 236.19 22.61 232.38"/></g></mask><filter id="luminosity-noclip-32" x="9.16" y="224.97" width="6.92" height="12.3" filterUnits="userSpaceOnUse" color-interpolation-filters="sRGB"><feFlood flood-color="#fff" result="bg"/><feBlend in="SourceGraphic" in2="bg"/></filter><mask id="mask-32" x="9.16" y="224.97" width="6.92" height="12.3" maskUnits="userSpaceOnUse"><g class="cls-15"><polygon class="cls-16" points="9.16 224.97 9.16 233.46 16.07 237.27 16.07 228.78 9.16 224.97"/></g></mask><filter id="luminosity-noclip-33" x="62.98" y="271.76" width="6.92" height="12.3" filterUnits="userSpaceOnUse" color-interpolation-filters="sRGB"><feFlood flood-color="#fff" result="bg"/><feBlend in="SourceGraphic" in2="bg"/></filter><mask id="mask-33" x="62.98" y="271.76" width="6.92" height="12.3" maskUnits="userSpaceOnUse"><g class="cls-17"><polygon class="cls-18" points="62.98 271.76 62.98 280.25 69.9 284.06 69.9 275.57 62.98 271.76"/></g></mask><filter id="luminosity-noclip-34" x="22.61" y="249.52" width="6.92" height="12.3" filterUnits="userSpaceOnUse" color-interpolation-filters="sRGB"><feFlood flood-color="#fff" result="bg"/><feBlend in="SourceGraphic" in2="bg"/></filter><mask id="mask-34" x="22.61" y="249.52" width="6.92" height="12.3" maskUnits="userSpaceOnUse"><g class="cls-19"><polygon class="cls-20" points="22.61 249.52 22.61 258.01 29.53 261.82 29.53 253.33 22.61 249.52"/></g></mask><filter id="luminosity-noclip-35" x="62.98" y="288.9" width="6.92" height="12.3" filterUnits="userSpaceOnUse" color-interpolation-filters="sRGB"><feFlood flood-color="#fff" result="bg"/><feBlend in="SourceGraphic" in2="bg"/></filter><mask id="mask-35" x="62.98" y="288.9" width="6.92" height="12.3" maskUnits="userSpaceOnUse"><g class="cls-21"><polygon class="cls-22" points="62.98 288.9 62.98 297.39 69.9 301.2 69.9 292.71 62.98 288.9"/></g></mask><filter id="luminosity-noclip-36" x="22.61" y="266.66" width="6.92" height="12.3" filterUnits="userSpaceOnUse" color-interpolation-filters="sRGB"><feFlood flood-color="#fff" result="bg"/><feBlend in="SourceGraphic" in2="bg"/></filter><mask id="mask-36" x="22.61" y="266.66" width="6.92" height="12.3" maskUnits="userSpaceOnUse"><g class="cls-23"><polygon class="cls-24" points="22.61 266.66 22.61 275.15 29.53 278.96 29.53 270.47 22.61 266.66"/></g></mask><filter id="luminosity-noclip-37" x="22.61" y="283.8" width="6.92" height="12.3" filterUnits="userSpaceOnUse" color-interpolation-filters="sRGB"><feFlood flood-color="#fff" result="bg"/><feBlend in="SourceGraphic" in2="bg"/></filter><mask id="mask-37" x="22.61" y="283.8" width="6.92" height="12.3" maskUnits="userSpaceOnUse"><g class="cls-25"><polygon class="cls-26" points="22.61 283.8 22.61 292.29 29.53 296.1 29.53 287.61 22.61 283.8"/></g></mask></defs><title>Asset 1</title><g class="cls-33"><g id="Layer_2" data-name="Layer 2"><g id="Layer_1-2" data-name="Layer 1"><path class="cls-34" d="M239.33,771.1V110.42L187.4,135.65,173,127.78c-10.13-5.84-25.44-6.47-34.21-1.41L52,176.5,0,151.23v619.7Z"/><path class="cls-35" d="M239.31,110.42c-.24-3.73-3.06-7.6-8.36-10.65l-58-33c-10.13-5.84-25.44-6.47-34.21-1.4L5.91,142.13c-4.19,2.42-6.12,5.7-5.89,9.1.24,3.73,3.06,7.6,8.36,10.65l58,33c10.13,5.84,25.44,6.47,34.21,1.4l132.83-76.76C237.61,117.1,239.54,113.82,239.31,110.42Z"/><path class="cls-36" d="M239.31,108.69c-.24-3.73-3.06-7.6-8.36-10.65L173,65c-10.13-5.84-25.44-6.47-34.21-1.4L5.91,140.4c-4.19,2.42-6.12,5.7-5.89,9.1.24,3.73,3.06,7.6,8.36,10.65l58,33c10.13,5.84,25.44,6.47,34.21,1.4l132.83-76.76C237.61,115.37,239.54,112.09,239.31,108.69Z"/><g class="cls-37"><path class="cls-38" d="M28.38,148.24a1.19,1.19,0,0,1,0,2.26,4.3,4.3,0,0,1-3.92,0,1.19,1.19,0,0,1,0-2.26A4.36,4.36,0,0,1,28.38,148.24Z"/><path class="cls-38" d="M49.35,136.13a1.19,1.19,0,0,1,0,2.26,4.28,4.28,0,0,1-3.91,0,1.19,1.19,0,0,1,0-2.26A4.34,4.34,0,0,1,49.35,136.13Z"/><path class="cls-38" d="M70.33,124a1.19,1.19,0,0,1,0,2.26,4.3,4.3,0,0,1-3.92,0,1.19,1.19,0,0,1,0-2.26A4.36,4.36,0,0,1,70.33,124Z"/><path class="cls-38" d="M91.3,111.91a1.2,1.2,0,0,1,0,2.27,4.34,4.34,0,0,1-3.91,0,1.2,1.2,0,0,1,0-2.27A4.34,4.34,0,0,1,91.3,111.91Z"/><path class="cls-38" d="M49.35,160.35a1.19,1.19,0,0,1,0,2.26,4.28,4.28,0,0,1-3.91,0,1.19,1.19,0,0,1,0-2.26A4.34,4.34,0,0,1,49.35,160.35Z"/><path class="cls-38" d="M70.33,148.24a1.19,1.19,0,0,1,0,2.26,4.3,4.3,0,0,1-3.92,0,1.19,1.19,0,0,1,0-2.26A4.36,4.36,0,0,1,70.33,148.24Z"/><path class="cls-38" d="M91.3,136.13a1.19,1.19,0,0,1,0,2.26,4.28,4.28,0,0,1-3.91,0,1.19,1.19,0,0,1,0-2.26A4.34,4.34,0,0,1,91.3,136.13Z"/><path class="cls-38" d="M112.28,124a1.2,1.2,0,0,1,0,2.27,4.36,4.36,0,0,1-3.92,0,1.2,1.2,0,0,1,0-2.27A4.36,4.36,0,0,1,112.28,124Z"/><path class="cls-38" d="M70.33,172.46a1.19,1.19,0,0,1,0,2.26,4.3,4.3,0,0,1-3.92,0,1.19,1.19,0,0,1,0-2.26A4.36,4.36,0,0,1,70.33,172.46Z"/><path class="cls-38" d="M91.3,160.35a1.19,1.19,0,0,1,0,2.26,4.28,4.28,0,0,1-3.91,0,1.19,1.19,0,0,1,0-2.26A4.34,4.34,0,0,1,91.3,160.35Z"/><path class="cls-38" d="M112.28,148.24a1.19,1.19,0,0,1,0,2.26,4.3,4.3,0,0,1-3.92,0,1.19,1.19,0,0,1,0-2.26A4.36,4.36,0,0,1,112.28,148.24Z"/><path class="cls-38" d="M133.25,136.13a1.2,1.2,0,0,1,0,2.27,4.34,4.34,0,0,1-3.91,0,1.2,1.2,0,0,1,0-2.27A4.34,4.34,0,0,1,133.25,136.13Z"/><ellipse class="cls-38" cx="89.35" cy="185.7" rx="2.77" ry="1.6"/><path class="cls-38" d="M112.28,172.46a1.19,1.19,0,0,1,0,2.26,4.3,4.3,0,0,1-3.92,0,1.19,1.19,0,0,1,0-2.26A4.36,4.36,0,0,1,112.28,172.46Z"/><path class="cls-38" d="M133.25,160.35a1.19,1.19,0,0,1,0,2.26,4.28,4.28,0,0,1-3.91,0,1.19,1.19,0,0,1,0-2.26A4.34,4.34,0,0,1,133.25,160.35Z"/><path class="cls-38" d="M154.23,148.24a1.19,1.19,0,0,1,0,2.26,4.3,4.3,0,0,1-3.92,0,1.19,1.19,0,0,1,0-2.26A4.36,4.36,0,0,1,154.23,148.24Z"/><path class="cls-38" d="M112.28,99.81a1.19,1.19,0,0,1,0,2.26,4.36,4.36,0,0,1-3.92,0,1.19,1.19,0,0,1,0-2.26A4.3,4.3,0,0,1,112.28,99.81Z"/><path class="cls-38" d="M133.25,87.7a1.19,1.19,0,0,1,0,2.26,4.34,4.34,0,0,1-3.91,0c-1.09-.63-1.09-1.64,0-2.26A4.3,4.3,0,0,1,133.25,87.7Z"/><path class="cls-38" d="M154.22,75.59c1.09.62,1.09,1.63,0,2.26a4.34,4.34,0,0,1-3.91,0,1.19,1.19,0,0,1,0-2.26A4.28,4.28,0,0,1,154.22,75.59Z"/><path class="cls-38" d="M133.25,111.92a1.19,1.19,0,0,1,0,2.26,4.34,4.34,0,0,1-3.91,0c-1.09-.63-1.09-1.64,0-2.26A4.28,4.28,0,0,1,133.25,111.92Z"/><path class="cls-38" d="M154.23,99.81a1.19,1.19,0,0,1,0,2.26,4.36,4.36,0,0,1-3.92,0,1.19,1.19,0,0,1,0-2.26A4.3,4.3,0,0,1,154.23,99.81Z"/><path class="cls-38" d="M175.2,87.7a1.19,1.19,0,0,1,0,2.26,4.36,4.36,0,0,1-3.92,0,1.19,1.19,0,0,1,0-2.26A4.3,4.3,0,0,1,175.2,87.7Z"/><path class="cls-38" d="M154.23,124a1.2,1.2,0,0,1,0,2.27,4.36,4.36,0,0,1-3.92,0,1.2,1.2,0,0,1,0-2.27A4.36,4.36,0,0,1,154.23,124Z"/><path class="cls-38" d="M175.2,111.92a1.19,1.19,0,0,1,0,2.26,4.36,4.36,0,0,1-3.92,0,1.19,1.19,0,0,1,0-2.26A4.3,4.3,0,0,1,175.2,111.92Z"/><path class="cls-38" d="M196.17,99.81c1.09.62,1.09,1.63,0,2.26a4.34,4.34,0,0,1-3.91,0,1.19,1.19,0,0,1,0-2.26A4.28,4.28,0,0,1,196.17,99.81Z"/><path class="cls-38" d="M175.2,136.14a1.19,1.19,0,0,1,0,2.26,4.34,4.34,0,0,1-3.91,0,1.2,1.2,0,0,1,0-2.27A4.31,4.31,0,0,1,175.2,136.14Z"/><path class="cls-38" d="M196.18,124a1.19,1.19,0,0,1,0,2.26,4.36,4.36,0,0,1-3.92,0,1.19,1.19,0,0,1,0-2.26A4.3,4.3,0,0,1,196.18,124Z"/><path class="cls-38" d="M217.15,111.92a1.19,1.19,0,0,1,0,2.26,4.36,4.36,0,0,1-3.92,0,1.19,1.19,0,0,1,0-2.26A4.3,4.3,0,0,1,217.15,111.92Z"/></g><g class="cls-39"><polygon class="cls-40" points="26.68 140.88 28.82 139.65 28.82 75.47 26.68 76.7 26.68 140.88"/></g><polygon class="cls-35" points="195.15 100.9 202.27 105.01 202.27 40.83 195.15 36.72 195.15 100.9"/><polygon class="cls-35" points="19.57 136.77 26.68 140.88 26.68 76.7 19.57 72.59 19.57 136.77"/><polygon class="cls-40" points="26.68 140.88 28.82 139.65 28.82 75.47 26.68 76.7 26.68 140.88"/><polygon class="cls-40" points="202.27 105.01 204.4 103.78 204.4 39.6 202.27 40.83 202.27 105.01"/><g class="cls-41"><polygon class="cls-40" points="202.27 105.01 204.4 103.78 204.4 39.6 202.27 40.83 202.27 105.01"/></g><polygon class="cls-42" points="19.57 69.86 83.41 106.72 204.4 36.86 140.56 0 19.57 69.86"/><polygon class="cls-38" points="70.66 68.85 102.65 87.33 163.29 52.32 131.29 33.84 70.66 68.85"/><polygon class="cls-43" points="19.57 72.59 83.41 109.46 83.41 106.72 19.57 69.86 19.57 72.59"/><g class="cls-44"><polygon class="cls-40" points="19.57 72.59 83.41 109.46 83.41 106.72 19.57 69.86 19.57 72.59"/></g><polygon class="cls-45" points="83.41 109.46 204.4 39.6 204.4 36.86 83.41 106.72 83.41 109.46"/><g class="cls-46"><polygon class="cls-40" points="83.41 109.46 204.4 39.6 204.4 36.86 83.41 106.72 83.41 109.46"/></g><polygon class="cls-35" points="76.29 169.52 83.41 173.63 83.41 109.46 76.29 105.35 76.29 169.52"/><polygon class="cls-40" points="83.41 173.63 85.55 172.4 85.55 108.22 83.41 109.46 83.41 173.63"/><g class="cls-47"><polygon class="cls-40" points="83.41 173.63 85.55 172.4 85.55 108.22 83.41 109.46 83.41 173.63"/></g><path class="cls-48" d="M106,6l8.23,23.32a1.75,1.75,0,0,1-.78,2.1L85.25,47.55A1.89,1.89,0,0,1,84,46.23L76.38,24.3a1.74,1.74,0,0,1,.78-2.09L104.27,6.59A4.12,4.12,0,0,1,106,6Z"/><path class="cls-49" d="M107,6.48l7.91,22.81a1.75,1.75,0,0,1-.78,2.1l-28,16.16a.81.81,0,0,1-1.16-.44L77,24.3a1.76,1.76,0,0,1,.78-2.09L105.81,6.05A.8.8,0,0,1,107,6.48Z"/><path class="cls-35" d="M105.86,8.52,113,29a1.59,1.59,0,0,1-.71,1.89L87,45.47a.73.73,0,0,1-1-.39L78.88,24.55a1.58,1.58,0,0,1,.7-1.88L104.82,8.13A.72.72,0,0,1,105.86,8.52Z"/><path class="cls-48" d="M116.45,32.41l20.43,11.24s.42,1.21-1.43,2.28L108.64,61.37a2.17,2.17,0,0,1-2.2,0L87.23,50.3C85.58,49.35,86,48.1,86,48.1l28.24-15.69A2.17,2.17,0,0,1,116.45,32.41Z"/><path class="cls-49" d="M116.45,31.3l20,11.54a.8.8,0,0,1,0,1.38l-27.84,16a2.17,2.17,0,0,1-2.2,0l-20-11.54a.8.8,0,0,1,0-1.38l27.84-16A2.17,2.17,0,0,1,116.45,31.3Z"/><path class="cls-48" d="M118.84,44l7.1,4.09a.26.26,0,0,1,0,.45L116.51,54a.75.75,0,0,1-.71,0l-7.1-4.09a.27.27,0,0,1,0-.46L118.13,44A.7.7,0,0,1,118.84,44Z"/><path class="cls-48" d="M90.25,48.66l7,4a2.18,2.18,0,0,0,2.17,0L123.55,38.8a.57.57,0,0,0,0-1l-7-4a2.21,2.21,0,0,0-2.17,0L90.25,47.65A.58.58,0,0,0,90.25,48.66Z"/><path class="cls-40" d="M129,115.68c-4.66-4.21-10.94-3.73-6.87,3.38,3.47,6.06,8.69,11.44,13,9.63,2.13-.88,2-6.13,2-6.13S136.19,122.16,129,115.68Z"/><path class="cls-49" d="M129,114.26c-4.66-4.2-10.94-3.72-6.87,3.39,3.47,6.06,9.11,11.44,13.46,9.63,2.13-.88,1.59-6.14,1.59-6.14S136.19,120.75,129,114.26Z"/><path class="cls-40" d="M151.08,119.88a.91.91,0,0,0-.91.91v37.46a.51.51,0,0,1-.41.53.52.52,0,0,1-.61-.26l-.08-.11-20.72-25.85a.91.91,0,1,0-1.42,1.14l20.68,25.8a2.34,2.34,0,0,0,2,1.12,2.7,2.7,0,0,0,.62-.08,2.35,2.35,0,0,0,1.76-2.29V120.79A.91.91,0,0,0,151.08,119.88Z"/><path class="cls-40" d="M186.32,104.54a.91.91,0,0,0-.91.91v29.14a5.4,5.4,0,0,1-7.11,5.12l-38.81-12.93a.91.91,0,0,0-.67,0l-11.57,5.49A.91.91,0,1,0,128,134l11.24-5.33,38.46,12.82a7.34,7.34,0,0,0,2.3.38,7.24,7.24,0,0,0,7.2-7.23V105.45A.91.91,0,0,0,186.32,104.54Z"/><polygon class="cls-35" points="113.31 102.41 151.08 124.21 188.84 102.41 151.08 80.61 113.31 102.41"/><polygon class="cls-42" points="113.31 106.44 151.08 128.24 151.08 124.21 113.31 102.41 113.31 106.44"/><polygon class="cls-40" points="151.08 128.24 188.84 106.44 188.84 102.41 151.08 124.21 151.08 128.24"/><path class="cls-40" d="M191.64,66.46a.91.91,0,0,0-1.11.65L186,84a18.72,18.72,0,0,0-.63,4.83v13.35a.91.91,0,0,0,1.82,0V88.78a16.89,16.89,0,0,1,.57-4.36l4.49-16.84A.91.91,0,0,0,191.64,66.46Z"/><path class="cls-48" d="M137.41,96.2c-1.08-1.08-13.57-10.08-13.57-10.08l14.65-8.46,23.88,6Z"/><path class="cls-50" d="M155.36,39.33c-2.27-.86-19-5.15-20.37-5.56-4.48-1.29-3.66,5.85-.26,7,6.91,2.42,8.64,2.77,16,6.34,8,3.87,7.3,20.92,15.87,24.24,4.16,1.61,9-4.09,8.95-6.33C175.12,55,159.26,40.82,155.36,39.33Z"/><path class="cls-51" d="M135.42,33.63c-1.34-.77-1.65-2.65-4.27-2.92-2.3-.74-7.1-.33-7.82.52-.5.59,0,.88.18,1-.29-.12-1.81-.72-2.28-.08-.71,1,.71,1.08.94,1.34-.33-.11-2.09-.32-2.53.42-.58,1,2.72,1.52,2.72,1.52s-1.68,0-2.13.86c-.65,1.19,3.75,1.24,7.79,2.18,2.27.53,7,2.32,7,2.32C131,38.85,132.68,35.59,135.42,33.63Z"/><path class="cls-40" d="M109.17,145.16c-7.51-2.22-10.66,0-4.28,4.56,7,5,12.65,9,16.13,5.73,1.15-1.1.61-5.27.61-5.27S118.44,147.9,109.17,145.16Z"/><path class="cls-49" d="M109.17,143.92c-7.51-2.22-10.66,0-4.28,4.56,7,5,12.65,9,16.13,5.73,1.15-1.09.61-5.26.61-5.26S118.44,146.67,109.17,143.92Z"/><path class="cls-48" d="M153.79,80.78c-7.83,11.9-36.2.6-44.18,13.94-3.81,6.39.78,45.51,1.82,51.33.55,3.06,9.55,7.3,10.33,3.69,2-9.48-2.35-29.91,1.44-39.78,3.87-10.08,47.69,11.52,51.61-9.61C175.84,94.83,156.88,76.09,153.79,80.78Z"/><path class="cls-52" d="M167.17,36.22c-2.77-1.32-10.95,2.28-14.8,3.69-3.34,1.22-7.46,6.41-8.44,9.57-2.54,8.22,1.22,13.26,2,23.61s-1.08,11.35-2.55,20.82c-1.81,11.65,33,9.26,34.21,2.31,4.67-25.85-.32-33.64-1.71-41.57C173.23,39.51,171.85,38.45,167.17,36.22Z"/><path class="cls-53" d="M155.09,60c1.14-9.31-3.15-12-9-14.25l-2.86,11.78S146.3,69,146.35,76.39a50.86,50.86,0,0,1-2.93,17.52s4.93-7.41,10.2-16.51S154.37,65.83,155.09,60Z"/><path class="cls-51" d="M157.74,25.46c-1.85-3.11-4.69,9.51-4.69,9.51s2.66,3.56,0,4.94a15.92,15.92,0,0,0,12-3.75C163,36.21,161.6,31.93,157.74,25.46Z"/><path class="cls-51" d="M151.09,20.23c-3.28.44-5.79,4-5,7.81s2.79,8.3,6.07,7.87,6.32-5.55,5.81-9.43S154.36,19.8,151.09,20.23Z"/><path class="cls-49" d="M152.32,18.59c-3.08.39-4.71.71-7.42,3.11-1.08.95-3.13,2.36-3.13,2.36s-.09,1.16,2.74,2.18,2.32,1.6,4.63,3.17,4.68,2.51,5.46,2.49,2.75-2.82,5.18-2.85C159.78,24.47,158,17.89,152.32,18.59Z"/><path class="cls-51" d="M150.25,28.11a1.19,1.19,0,0,0-1.42.88l-.35,1.57a1.18,1.18,0,0,0,2.29.53l.36-1.57A1.18,1.18,0,0,0,150.25,28.11Z"/><path class="cls-54" d="M146.37,45.41c-2.08,3.93-14.33,13.37-23.26,17.07-9.63,4-10,2.88-18.36,4.75-3.9.86-4.23,8.44.77,7,1.58-.43,21.1-2.31,23.62-3.22,4.33-1.57,15.51-4.16,27.16-14.2C158,55.39,148.66,41.06,146.37,45.41Z"/><path class="cls-51" d="M104.75,67.23a42.22,42.22,0,0,0-7.49.68c-4,1.1-7.79,3.27-7.09,4.43.48.79,1.85.25,1.85.25s-3,1.18-2.34,2.15c.46.73,2,.1,2.31,0-.22.26-1.4.74-.65,1.71.49.62,2,0,2.27-.17-.17.08-.66.39-.13,1,.75.82,5.32-.71,7.59-1.54,2.6-.39,3.08-.54,4.38-1.36C102.64,72.49,100.78,69.29,104.75,67.23Z"/><path class="cls-40" d="M156.4,86.32a.9.9,0,0,0-1.11.65l-4.49,16.84a18.72,18.72,0,0,0-.63,4.83V122a.91.91,0,1,0,1.82,0V108.64a16.83,16.83,0,0,1,.57-4.36l4.49-16.85A.91.91,0,0,0,156.4,86.32Z"/><polygon class="cls-35" points="157.65 70.36 161.26 72.37 199.02 50.56 195.41 48.55 157.65 70.36"/><polygon class="cls-42" points="151.08 95.44 154.69 97.45 161.26 72.37 157.65 70.36 151.08 95.44"/><polygon class="cls-40" points="154.69 97.45 192.45 75.65 199.02 50.56 161.26 72.37 154.69 97.45"/><path class="cls-51" d="M127,40.7c2.6.29,4.62-1.2,7.27-.42l-5-2.06C126.07,38.81,124.42,40.42,127,40.7Z"/><path class="cls-51" d="M71.58,55.31h0Z"/><path class="cls-55" d="M204.31,172.28c-3.53-2.52-2.87-9.53,1.49-15.66s10.77-9.06,14.31-6.54,2.87,9.53-1.49,15.66S207.85,174.8,204.31,172.28Z"/><path class="cls-56" d="M209.76,165.14c-1.33-.94-1.08-3.58.56-5.89s4.05-3.4,5.39-2.46,1.08,3.59-.56,5.89S211.1,166.09,209.76,165.14Z"/><g class="cls-57"><polygon class="cls-58" points="62.98 203.2 62.98 211.69 69.9 215.5 69.9 207.01 62.98 203.2"/></g><g class="cls-59"><polygon class="cls-40" points="22.61 180.96 22.61 189.45 29.53 193.26 29.53 184.77 22.61 180.96"/></g><g class="cls-60"><polygon class="cls-58" points="9.16 173.55 9.16 182.03 16.07 185.84 16.07 177.36 9.16 173.55"/></g><g class="cls-61"><polygon class="cls-40" points="62.98 220.34 62.98 228.83 69.9 232.64 69.9 224.15 62.98 220.34"/></g><g class="cls-62"><polygon class="cls-58" points="22.61 198.1 22.61 206.59 29.53 210.4 29.53 201.91 22.61 198.1"/></g><g class="cls-63"><polygon class="cls-40" points="9.16 190.69 9.16 199.17 16.07 202.99 16.07 194.5 9.16 190.69"/></g><g class="cls-64"><polygon class="cls-58" points="62.98 237.48 62.98 245.97 69.9 249.78 69.9 241.29 62.98 237.48"/></g><g class="cls-65"><polygon class="cls-58" points="22.61 215.24 22.61 223.73 29.53 227.54 29.53 219.05 22.61 215.24"/></g><g class="cls-66"><polygon class="cls-58" points="62.98 254.62 62.98 263.11 69.9 266.92 69.9 258.43 62.98 254.62"/></g><g class="cls-67"><polygon class="cls-58" points="22.61 232.38 22.61 240.87 29.53 244.68 29.53 236.19 22.61 232.38"/></g><g class="cls-68"><polygon class="cls-58" points="9.16 224.97 9.16 233.46 16.07 237.27 16.07 228.78 9.16 224.97"/></g><g class="cls-69"><polygon class="cls-58" points="62.98 271.76 62.98 280.25 69.9 284.06 69.9 275.57 62.98 271.76"/></g><g class="cls-70"><polygon class="cls-58" points="22.61 249.52 22.61 258.01 29.53 261.82 29.53 253.33 22.61 249.52"/></g><g class="cls-71"><polygon class="cls-58" points="62.98 288.9 62.98 297.39 69.9 301.2 69.9 292.71 62.98 288.9"/></g><g class="cls-72"><polygon class="cls-58" points="22.61 266.66 22.61 275.15 29.53 278.96 29.53 270.47 22.61 266.66"/></g><g class="cls-73"><polygon class="cls-58" points="22.61 283.8 22.61 292.29 29.53 296.1 29.53 287.61 22.61 283.8"/></g></g></g></g></svg>