<svg xmlns="http://www.w3.org/2000/svg" xmlns:xlink="http://www.w3.org/1999/xlink" viewBox="0 0 331.37 769.65"><defs><style>.cls-1,.cls-13{mask:url(#mask);}.cls-1{filter:url(#luminosity-noclip-26);}.cls-10,.cls-12,.cls-14,.cls-16,.cls-18,.cls-2,.cls-20,.cls-22,.cls-24,.cls-26,.cls-28,.cls-30,.cls-32,.cls-34,.cls-36,.cls-38,.cls-4,.cls-40,.cls-42,.cls-44,.cls-46,.cls-48,.cls-50,.cls-6,.cls-66,.cls-69,.cls-71,.cls-8{mix-blend-mode:multiply;}.cls-2{fill:url(#linear-gradient);}.cls-17,.cls-21,.cls-23,.cls-3,.cls-9{mask:url(#mask-2);}.cls-3{filter:url(#luminosity-noclip-31);}.cls-4{fill:url(#linear-gradient-2);}.cls-11,.cls-29,.cls-31,.cls-5{mask:url(#mask-3);}.cls-5{filter:url(#luminosity-noclip-32);}.cls-6{fill:url(#linear-gradient-3);}.cls-15,.cls-19,.cls-49,.cls-7{mask:url(#mask-4);}.cls-7{filter:url(#luminosity-noclip-33);}.cls-8{fill:url(#linear-gradient-4);}.cls-9{filter:url(#luminosity-noclip-34);}.cls-10{fill:url(#linear-gradient-5);}.cls-11{filter:url(#luminosity-noclip-35);}.cls-12{fill:url(#linear-gradient-6);}.cls-14{fill:url(#linear-gradient-7);}.cls-15{filter:url(#luminosity-noclip-36);}.cls-16{fill:url(#linear-gradient-8);}.cls-17{filter:url(#luminosity-noclip-37);}.cls-18{fill:url(#linear-gradient-9);}.cls-19{filter:url(#luminosity-noclip-38);}.cls-20{fill:url(#linear-gradient-10);}.cls-21{filter:url(#luminosity-noclip-39);}.cls-22{fill:url(#linear-gradient-11);}.cls-23{filter:url(#luminosity-noclip-40);}.cls-24{fill:url(#linear-gradient-12);}.cls-25,.cls-27{mask:url(#mask-13);}.cls-25{filter:url(#luminosity-noclip-41);}.cls-26{fill:url(#linear-gradient-13);}.cls-27{filter:url(#luminosity-noclip-42);}.cls-28{fill:url(#linear-gradient-14);}.cls-29{filter:url(#luminosity-noclip-43);}.cls-30{fill:url(#linear-gradient-15);}.cls-31{filter:url(#luminosity-noclip-44);}.cls-32{fill:url(#linear-gradient-16);}.cls-33,.cls-39{mask:url(#mask-17);}.cls-33{filter:url(#luminosity-noclip-45);}.cls-34{fill:url(#linear-gradient-17);}.cls-35,.cls-47{mask:url(#mask-18);}.cls-35{filter:url(#luminosity-noclip-28);}.cls-36{fill:url(#linear-gradient-18);}.cls-37,.cls-41,.cls-43,.cls-45{mask:url(#mask-19);}.cls-37{filter:url(#luminosity-noclip-46);}.cls-38{fill:url(#linear-gradient-19);}.cls-39{filter:url(#luminosity-noclip-47);}.cls-40{fill:url(#linear-gradient-20);}.cls-41{filter:url(#luminosity-noclip-48);}.cls-42{fill:url(#linear-gradient-21);}.cls-43{filter:url(#luminosity-noclip-49);}.cls-44{fill:url(#linear-gradient-22);}.cls-45{filter:url(#luminosity-noclip-50);}.cls-46{fill:url(#linear-gradient-23);}.cls-48{fill:url(#linear-gradient-24);}.cls-49{filter:url(#luminosity-noclip-30);}.cls-50{fill:url(#linear-gradient-25);}.cls-51{fill:url(#linear-gradient-26);}.cls-52{isolation:isolate;}.cls-53{fill:url(#linear-gradient-27);}.cls-54{fill:#fff;}.cls-55{fill:url(#linear-gradient-28);}.cls-56{fill:url(#linear-gradient-29);}.cls-57{fill:#c0c5f0;}.cls-58{fill:url(#linear-gradient-30);}.cls-59{fill:#353395;}.cls-60{fill:#1b1b75;}.cls-61{fill:#ffd6d6;}.cls-62,.cls-81{fill:#e5e8fe;}.cls-63{fill:url(#linear-gradient-31);}.cls-64{fill:#4c4aa8;}.cls-65{clip-path:url(#clip-path);}.cls-66{fill:#d4d9fe;}.cls-67{fill:url(#linear-gradient-33);}.cls-68{mask:url(#mask-26);}.cls-69{fill:url(#linear-gradient-34);}.cls-70{mask:url(#mask-28);}.cls-71{fill:url(#linear-gradient-35);}.cls-72{fill:#f3f4ff;}.cls-73{fill:url(#linear-gradient-36);}.cls-74{fill:url(#linear-gradient-37);}.cls-75{fill:#5468f9;}.cls-76{fill:url(#linear-gradient-38);}.cls-77{fill:url(#linear-gradient-39);}.cls-78{fill:url(#linear-gradient-40);}.cls-79{opacity:0.2;}.cls-80{mask:url(#mask-30);}.cls-81{opacity:0.5;}.cls-82{mask:url(#mask-31);}.cls-83{mask:url(#mask-32);}.cls-84{mask:url(#mask-33);}.cls-85{mask:url(#mask-34);}.cls-86{mask:url(#mask-35);}.cls-87{mask:url(#mask-36);}.cls-88{mask:url(#mask-37);}.cls-89{mask:url(#mask-38);}.cls-90{mask:url(#mask-39);}.cls-91{mask:url(#mask-40);}.cls-92{mask:url(#mask-41);}.cls-93{mask:url(#mask-42);}.cls-94{mask:url(#mask-43);}.cls-95{mask:url(#mask-44);}.cls-96{mask:url(#mask-45);}.cls-97{mask:url(#mask-46);}.cls-98{mask:url(#mask-47);}.cls-99{mask:url(#mask-48);}.cls-100{mask:url(#mask-49);}.cls-101{mask:url(#mask-50);}.cls-102,.cls-103{fill:#ffae6c;}.cls-102{opacity:0.3;}.cls-104{filter:url(#luminosity-noclip-19);}.cls-105{filter:url(#luminosity-noclip-18);}.cls-106{filter:url(#luminosity-noclip-17);}.cls-107{filter:url(#luminosity-noclip-13);}.cls-108{filter:url(#luminosity-noclip-4);}.cls-109{filter:url(#luminosity-noclip-3);}.cls-110{filter:url(#luminosity-noclip-2);}.cls-111{filter:url(#luminosity-noclip);}</style><filter id="luminosity-noclip" x="120.49" y="-8365.55" width="81.81" height="32766" filterUnits="userSpaceOnUse" color-interpolation-filters="sRGB"><feFlood flood-color="#fff" result="bg"/><feBlend in="SourceGraphic" in2="bg"/></filter><mask id="mask" x="120.49" y="-8365.55" width="81.81" height="32766" maskUnits="userSpaceOnUse"><g class="cls-111"/></mask><linearGradient id="linear-gradient" x1="152.05" y1="271.33" x2="180.73" y2="242.65" gradientUnits="userSpaceOnUse"><stop offset="0" stop-color="#fff"/><stop offset="0.8" stop-color="#343434"/><stop offset="1"/></linearGradient><filter id="luminosity-noclip-2" x="112.47" y="-8365.55" width="6.92" height="32766" filterUnits="userSpaceOnUse" color-interpolation-filters="sRGB"><feFlood flood-color="#fff" result="bg"/><feBlend in="SourceGraphic" in2="bg"/></filter><mask id="mask-2" x="112.47" y="-8365.55" width="6.92" height="32766" maskUnits="userSpaceOnUse"><g class="cls-110"/></mask><linearGradient id="linear-gradient-2" x1="117.48" y1="204.59" x2="76.56" y2="327.36" gradientTransform="matrix(1, 0.19, 0, 1, 0, 185.27)" gradientUnits="userSpaceOnUse"><stop offset="0" stop-color="#fff"/><stop offset="0.05" stop-color="#f1f1f1"/><stop offset="0.41" stop-color="#8b8b8b"/><stop offset="0.69" stop-color="#404040"/><stop offset="0.9" stop-color="#121212"/><stop offset="1"/></linearGradient><filter id="luminosity-noclip-3" x="99.01" y="-8365.55" width="6.92" height="32766" filterUnits="userSpaceOnUse" color-interpolation-filters="sRGB"><feFlood flood-color="#fff" result="bg"/><feBlend in="SourceGraphic" in2="bg"/></filter><mask id="mask-3" x="99.01" y="-8365.55" width="6.92" height="32766" maskUnits="userSpaceOnUse"><g class="cls-109"/></mask><linearGradient id="linear-gradient-3" x1="103.9" y1="200.07" x2="62.98" y2="322.83" xlink:href="#linear-gradient-2"/><filter id="luminosity-noclip-4" x="139.38" y="-8365.55" width="6.92" height="32766" filterUnits="userSpaceOnUse" color-interpolation-filters="sRGB"><feFlood flood-color="#fff" result="bg"/><feBlend in="SourceGraphic" in2="bg"/></filter><mask id="mask-4" x="139.38" y="-8365.55" width="6.92" height="32766" maskUnits="userSpaceOnUse"><g class="cls-108"/></mask><linearGradient id="linear-gradient-4" x1="149.78" y1="215.36" x2="108.86" y2="338.12" xlink:href="#linear-gradient-2"/><linearGradient id="linear-gradient-5" x1="122.62" y1="206.31" x2="81.7" y2="329.07" xlink:href="#linear-gradient-2"/><linearGradient id="linear-gradient-6" x1="109.05" y1="201.78" x2="68.12" y2="324.54" xlink:href="#linear-gradient-2"/><linearGradient id="linear-gradient-7" x1="120.49" y1="259.59" x2="202.3" y2="259.59" gradientUnits="userSpaceOnUse"><stop offset="0" stop-color="#fff"/><stop offset="1"/></linearGradient><linearGradient id="linear-gradient-8" x1="154.93" y1="217.07" x2="114" y2="339.84" xlink:href="#linear-gradient-2"/><linearGradient id="linear-gradient-9" x1="127.77" y1="208.02" x2="86.84" y2="330.79" xlink:href="#linear-gradient-2"/><linearGradient id="linear-gradient-10" x1="160.07" y1="218.79" x2="119.15" y2="341.55" xlink:href="#linear-gradient-2"/><linearGradient id="linear-gradient-11" x1="132.91" y1="209.73" x2="91.99" y2="332.5" xlink:href="#linear-gradient-2"/><linearGradient id="linear-gradient-12" x1="138.05" y1="211.45" x2="97.13" y2="334.21" xlink:href="#linear-gradient-2"/><filter id="luminosity-noclip-13" x="125.93" y="-8365.55" width="6.92" height="32766" filterUnits="userSpaceOnUse" color-interpolation-filters="sRGB"><feFlood flood-color="#fff" result="bg"/><feBlend in="SourceGraphic" in2="bg"/></filter><mask id="mask-13" x="125.93" y="-8365.55" width="6.92" height="32766" maskUnits="userSpaceOnUse"><g class="cls-107"/></mask><linearGradient id="linear-gradient-13" x1="156.77" y1="217.69" x2="115.85" y2="340.46" xlink:href="#linear-gradient-2"/><linearGradient id="linear-gradient-14" x1="161.91" y1="219.41" x2="120.99" y2="342.17" xlink:href="#linear-gradient-2"/><linearGradient id="linear-gradient-15" x1="134.76" y1="210.35" x2="93.83" y2="333.12" xlink:href="#linear-gradient-2"/><linearGradient id="linear-gradient-16" x1="139.9" y1="212.07" x2="98.98" y2="334.83" xlink:href="#linear-gradient-2"/><filter id="luminosity-noclip-17" x="58.27" y="-8365.55" width="6.92" height="32766" filterUnits="userSpaceOnUse" color-interpolation-filters="sRGB"><feFlood flood-color="#fff" result="bg"/><feBlend in="SourceGraphic" in2="bg"/></filter><mask id="mask-17" x="58.27" y="-8365.55" width="6.92" height="32766" maskUnits="userSpaceOnUse"><g class="cls-106"/></mask><linearGradient id="linear-gradient-17" x1="62.78" y1="186.36" x2="21.86" y2="309.13" xlink:href="#linear-gradient-2"/><filter id="luminosity-noclip-18" x="190.73" y="-8365.55" width="111.13" height="32766" filterUnits="userSpaceOnUse" color-interpolation-filters="sRGB"><feFlood flood-color="#fff" result="bg"/><feBlend in="SourceGraphic" in2="bg"/></filter><mask id="mask-18" x="190.73" y="-8365.55" width="111.13" height="32766" maskUnits="userSpaceOnUse"><g class="cls-105"/></mask><linearGradient id="linear-gradient-18" x1="214.97" y1="338.53" x2="270.66" y2="301.81" xlink:href="#linear-gradient"/><filter id="luminosity-noclip-19" x="4.45" y="-8365.55" width="6.92" height="32766" filterUnits="userSpaceOnUse" color-interpolation-filters="sRGB"><feFlood flood-color="#fff" result="bg"/><feBlend in="SourceGraphic" in2="bg"/></filter><mask id="mask-19" x="4.45" y="-8365.55" width="6.92" height="32766" maskUnits="userSpaceOnUse"><g class="cls-104"/></mask><linearGradient id="linear-gradient-19" x1="8.47" y1="168.26" x2="-32.46" y2="291.03" xlink:href="#linear-gradient-2"/><linearGradient id="linear-gradient-20" x1="67.93" y1="188.07" x2="27" y2="310.84" xlink:href="#linear-gradient-2"/><linearGradient id="linear-gradient-21" x1="18.75" y1="171.68" x2="-22.17" y2="294.45" xlink:href="#linear-gradient-2"/><linearGradient id="linear-gradient-22" x1="23.89" y1="173.4" x2="-17.03" y2="296.17" xlink:href="#linear-gradient-2"/><linearGradient id="linear-gradient-23" x1="29.03" y1="175.11" x2="-11.89" y2="297.88" xlink:href="#linear-gradient-2"/><linearGradient id="linear-gradient-24" x1="190.73" y1="313.89" x2="301.85" y2="313.89" xlink:href="#linear-gradient-7"/><linearGradient id="linear-gradient-25" x1="144.64" y1="213.64" x2="103.72" y2="336.41" xlink:href="#linear-gradient-2"/><linearGradient id="linear-gradient-26" x1="169.83" y1="212.7" x2="66.63" y2="189.79" gradientUnits="userSpaceOnUse"><stop offset="0" stop-color="#353395"/><stop offset="1" stop-color="#4c4aa8"/></linearGradient><linearGradient id="linear-gradient-27" x1="187.3" y1="529.81" x2="147.96" y2="529.81" gradientUnits="userSpaceOnUse"><stop offset="0" stop-color="#e5e8fe"/><stop offset="1" stop-color="#f3f4ff"/></linearGradient><linearGradient id="linear-gradient-28" y1="318.42" x2="331.37" y2="318.42" gradientUnits="userSpaceOnUse"><stop offset="0" stop-color="#fff"/><stop offset="1" stop-color="#f3f4ff"/></linearGradient><linearGradient id="linear-gradient-29" x1="-2486.13" y1="174.78" x2="-2467.39" y2="136.56" gradientTransform="matrix(-1, 0, 0, 1, -2299.18, 0)" gradientUnits="userSpaceOnUse"><stop offset="0.4" stop-color="#e5e8fe"/><stop offset="0.61" stop-color="#f3f4ff"/></linearGradient><linearGradient id="linear-gradient-30" x1="-2338.15" y1="185.36" x2="-2751.76" y2="164.95" xlink:href="#linear-gradient-29"/><linearGradient id="linear-gradient-31" x1="140.36" y1="192.1" x2="36.07" y2="156.64" xlink:href="#linear-gradient-26"/><clipPath id="clip-path"><path class="cls-51" d="M119.21,154.12c-4.56,2-5.91,2.95-8.57,16.68-1.39,7.18-2.72,35.89,2.9,76.38.61,4.38,44.18,6.18,42.69-.53-4.17-18.72-17.34-49.7-16.52-59s4.5-13.94,2.06-21.41c-.94-2.87-4.93-7.6-8.17-8.72C129.85,156.24,121.91,152.93,119.21,154.12Z"/></clipPath><linearGradient id="linear-gradient-33" x1="173.56" y1="179.93" x2="87.87" y2="150.79" xlink:href="#linear-gradient-26"/><filter id="luminosity-noclip-26" x="120.49" y="232.73" width="81.81" height="53.72" filterUnits="userSpaceOnUse" color-interpolation-filters="sRGB"><feFlood flood-color="#fff" result="bg"/><feBlend in="SourceGraphic" in2="bg"/></filter><mask id="mask-26" x="120.49" y="232.73" width="81.81" height="53.72" maskUnits="userSpaceOnUse"><g class="cls-1"><path class="cls-2" d="M127.41,271.24l52.34-38.51L202.3,245.8l-52.21,38.73-8.57,1.91s-7.69-2.57-12-2.57a40.37,40.37,0,0,0-9,1.27Z"/></g></mask><linearGradient id="linear-gradient-34" x1="120.49" y1="259.59" x2="202.3" y2="259.59" gradientUnits="userSpaceOnUse"><stop offset="0" stop-color="#d4d9fe"/><stop offset="1" stop-color="#fff"/></linearGradient><filter id="luminosity-noclip-28" x="190.73" y="280.91" width="111.13" height="65.96" filterUnits="userSpaceOnUse" color-interpolation-filters="sRGB"><feFlood flood-color="#fff" result="bg"/><feBlend in="SourceGraphic" in2="bg"/></filter><mask id="mask-28" x="190.73" y="280.91" width="111.13" height="65.96" maskUnits="userSpaceOnUse"><g class="cls-35"><polygon class="cls-36" points="260.66 280.91 203.09 319.09 207.99 325.26 190.73 338.82 204.76 346.87 227.28 334.02 244.03 345.06 301.85 308.73 260.66 280.91"/></g></mask><linearGradient id="linear-gradient-35" x1="190.73" y1="313.89" x2="301.85" y2="313.89" xlink:href="#linear-gradient-34"/><linearGradient id="linear-gradient-36" x1="258.16" y1="268.18" x2="192.55" y2="248.35" gradientTransform="translate(0.75 2.23) rotate(0.26)" gradientUnits="userSpaceOnUse"><stop offset="0" stop-color="#ff5a70"/><stop offset="1" stop-color="#ffae6c"/></linearGradient><linearGradient id="linear-gradient-37" x1="247.45" y1="296.4" x2="153.11" y2="309.74" gradientUnits="userSpaceOnUse"><stop offset="0" stop-color="#353395"/><stop offset="1" stop-color="#1b1b75"/></linearGradient><linearGradient id="linear-gradient-38" x1="-2555.18" y1="276.34" x2="-2535.28" y2="276.34" gradientTransform="matrix(-1, 0, 0, 1, -2298.59, -7.62)" xlink:href="#linear-gradient-36"/><linearGradient id="linear-gradient-39" x1="253.78" y1="282.67" x2="188.17" y2="262.84" xlink:href="#linear-gradient-36"/><linearGradient id="linear-gradient-40" x1="252.58" y1="286.66" x2="186.96" y2="266.83" xlink:href="#linear-gradient-36"/><filter id="luminosity-noclip-30" x="139.38" y="424.87" width="6.92" height="12.3" filterUnits="userSpaceOnUse" color-interpolation-filters="sRGB"><feFlood flood-color="#fff" result="bg"/><feBlend in="SourceGraphic" in2="bg"/></filter><mask id="mask-30" x="139.38" y="424.87" width="6.92" height="12.3" maskUnits="userSpaceOnUse"><g class="cls-49"><polygon class="cls-50" points="146.3 428.69 139.38 424.88 139.38 433.36 146.3 437.17 146.3 428.69"/></g></mask><filter id="luminosity-noclip-31" x="112.47" y="410.05" width="6.92" height="12.3" filterUnits="userSpaceOnUse" color-interpolation-filters="sRGB"><feFlood flood-color="#fff" result="bg"/><feBlend in="SourceGraphic" in2="bg"/></filter><mask id="mask-31" x="112.47" y="410.05" width="6.92" height="12.3" maskUnits="userSpaceOnUse"><g class="cls-3"><polygon class="cls-4" points="112.47 410.05 112.47 418.54 119.39 422.35 119.39 413.86 112.47 410.05"/></g></mask><filter id="luminosity-noclip-32" x="99.01" y="402.64" width="6.92" height="12.3" filterUnits="userSpaceOnUse" color-interpolation-filters="sRGB"><feFlood flood-color="#fff" result="bg"/><feBlend in="SourceGraphic" in2="bg"/></filter><mask id="mask-32" x="99.01" y="402.64" width="6.92" height="12.3" maskUnits="userSpaceOnUse"><g class="cls-5"><polygon class="cls-6" points="99.01 402.64 99.01 411.12 105.93 414.93 105.93 406.45 99.01 402.64"/></g></mask><filter id="luminosity-noclip-33" x="139.38" y="442.02" width="6.92" height="12.3" filterUnits="userSpaceOnUse" color-interpolation-filters="sRGB"><feFlood flood-color="#fff" result="bg"/><feBlend in="SourceGraphic" in2="bg"/></filter><mask id="mask-33" x="139.38" y="442.02" width="6.92" height="12.3" maskUnits="userSpaceOnUse"><g class="cls-7"><polygon class="cls-8" points="146.3 445.83 139.38 442.01 139.38 450.5 146.3 454.31 146.3 445.83"/></g></mask><filter id="luminosity-noclip-34" x="112.47" y="427.19" width="6.92" height="12.3" filterUnits="userSpaceOnUse" color-interpolation-filters="sRGB"><feFlood flood-color="#fff" result="bg"/><feBlend in="SourceGraphic" in2="bg"/></filter><mask id="mask-34" x="112.47" y="427.19" width="6.92" height="12.3" maskUnits="userSpaceOnUse"><g class="cls-9"><polygon class="cls-10" points="112.47 427.19 112.47 435.68 119.39 439.49 119.39 431 112.47 427.19"/></g></mask><filter id="luminosity-noclip-35" x="99.01" y="419.78" width="6.92" height="12.3" filterUnits="userSpaceOnUse" color-interpolation-filters="sRGB"><feFlood flood-color="#fff" result="bg"/><feBlend in="SourceGraphic" in2="bg"/></filter><mask id="mask-35" x="99.01" y="419.78" width="6.92" height="12.3" maskUnits="userSpaceOnUse"><g class="cls-11"><polygon class="cls-12" points="99.01 419.78 99.01 428.26 105.93 432.07 105.93 423.59 99.01 419.78"/></g></mask><filter id="luminosity-noclip-36" x="139.38" y="459.16" width="6.92" height="12.3" filterUnits="userSpaceOnUse" color-interpolation-filters="sRGB"><feFlood flood-color="#fff" result="bg"/><feBlend in="SourceGraphic" in2="bg"/></filter><mask id="mask-36" x="139.38" y="459.16" width="6.92" height="12.3" maskUnits="userSpaceOnUse"><g class="cls-15"><polygon class="cls-16" points="146.3 462.97 139.38 459.16 139.38 467.64 146.3 471.45 146.3 462.97"/></g></mask><filter id="luminosity-noclip-37" x="112.47" y="444.33" width="6.92" height="12.3" filterUnits="userSpaceOnUse" color-interpolation-filters="sRGB"><feFlood flood-color="#fff" result="bg"/><feBlend in="SourceGraphic" in2="bg"/></filter><mask id="mask-37" x="112.47" y="444.33" width="6.92" height="12.3" maskUnits="userSpaceOnUse"><g class="cls-17"><polygon class="cls-18" points="112.47 444.33 112.47 452.82 119.39 456.63 119.39 448.14 112.47 444.33"/></g></mask><filter id="luminosity-noclip-38" x="139.38" y="476.3" width="6.92" height="12.3" filterUnits="userSpaceOnUse" color-interpolation-filters="sRGB"><feFlood flood-color="#fff" result="bg"/><feBlend in="SourceGraphic" in2="bg"/></filter><mask id="mask-38" x="139.38" y="476.3" width="6.92" height="12.3" maskUnits="userSpaceOnUse"><g class="cls-19"><polygon class="cls-20" points="146.3 480.11 139.38 476.3 139.38 484.78 146.3 488.59 146.3 480.11"/></g></mask><filter id="luminosity-noclip-39" x="112.47" y="461.47" width="6.92" height="12.3" filterUnits="userSpaceOnUse" color-interpolation-filters="sRGB"><feFlood flood-color="#fff" result="bg"/><feBlend in="SourceGraphic" in2="bg"/></filter><mask id="mask-39" x="112.47" y="461.47" width="6.92" height="12.3" maskUnits="userSpaceOnUse"><g class="cls-21"><polygon class="cls-22" points="112.47 461.47 112.47 469.96 119.39 473.77 119.39 465.28 112.47 461.47"/></g></mask><filter id="luminosity-noclip-40" x="112.47" y="478.61" width="6.92" height="12.3" filterUnits="userSpaceOnUse" color-interpolation-filters="sRGB"><feFlood flood-color="#fff" result="bg"/><feBlend in="SourceGraphic" in2="bg"/></filter><mask id="mask-40" x="112.47" y="478.61" width="6.92" height="12.3" maskUnits="userSpaceOnUse"><g class="cls-23"><polygon class="cls-24" points="112.47 478.61 112.47 487.1 119.39 490.91 119.39 482.42 112.47 478.61"/></g></mask><filter id="luminosity-noclip-41" x="125.93" y="503.16" width="6.92" height="12.3" filterUnits="userSpaceOnUse" color-interpolation-filters="sRGB"><feFlood flood-color="#fff" result="bg"/><feBlend in="SourceGraphic" in2="bg"/></filter><mask id="mask-41" x="125.93" y="503.16" width="6.92" height="12.3" maskUnits="userSpaceOnUse"><g class="cls-25"><polygon class="cls-26" points="125.93 503.16 125.93 511.65 132.84 515.46 132.84 506.98 125.93 503.16"/></g></mask><filter id="luminosity-noclip-42" x="125.93" y="520.3" width="6.92" height="12.3" filterUnits="userSpaceOnUse" color-interpolation-filters="sRGB"><feFlood flood-color="#fff" result="bg"/><feBlend in="SourceGraphic" in2="bg"/></filter><mask id="mask-42" x="125.93" y="520.3" width="6.92" height="12.3" maskUnits="userSpaceOnUse"><g class="cls-27"><polygon class="cls-28" points="125.93 520.3 125.93 528.79 132.84 532.6 132.84 524.12 125.93 520.3"/></g></mask><filter id="luminosity-noclip-43" x="99.01" y="505.48" width="6.92" height="12.3" filterUnits="userSpaceOnUse" color-interpolation-filters="sRGB"><feFlood flood-color="#fff" result="bg"/><feBlend in="SourceGraphic" in2="bg"/></filter><mask id="mask-43" x="99.01" y="505.48" width="6.92" height="12.3" maskUnits="userSpaceOnUse"><g class="cls-29"><polygon class="cls-30" points="99.01 505.48 99.01 513.97 105.93 517.78 105.93 509.29 99.01 505.48"/></g></mask><filter id="luminosity-noclip-44" x="99.01" y="522.62" width="6.92" height="12.3" filterUnits="userSpaceOnUse" color-interpolation-filters="sRGB"><feFlood flood-color="#fff" result="bg"/><feBlend in="SourceGraphic" in2="bg"/></filter><mask id="mask-44" x="99.01" y="522.62" width="6.92" height="12.3" maskUnits="userSpaceOnUse"><g class="cls-31"><polygon class="cls-32" points="99.01 522.62 99.01 531.11 105.93 534.92 105.93 526.43 99.01 522.62"/></g></mask><filter id="luminosity-noclip-45" x="58.27" y="380.19" width="6.92" height="12.3" filterUnits="userSpaceOnUse" color-interpolation-filters="sRGB"><feFlood flood-color="#fff" result="bg"/><feBlend in="SourceGraphic" in2="bg"/></filter><mask id="mask-45" x="58.27" y="380.19" width="6.92" height="12.3" maskUnits="userSpaceOnUse"><g class="cls-33"><polygon class="cls-34" points="58.27 380.19 58.27 388.67 65.19 392.49 65.19 384 58.27 380.19"/></g></mask><filter id="luminosity-noclip-46" x="4.45" y="350.53" width="6.92" height="12.3" filterUnits="userSpaceOnUse" color-interpolation-filters="sRGB"><feFlood flood-color="#fff" result="bg"/><feBlend in="SourceGraphic" in2="bg"/></filter><mask id="mask-46" x="4.45" y="350.53" width="6.92" height="12.3" maskUnits="userSpaceOnUse"><g class="cls-37"><polygon class="cls-38" points="4.45 350.54 4.45 359.02 11.36 362.83 11.36 354.35 4.45 350.54"/></g></mask><filter id="luminosity-noclip-47" x="58.27" y="397.33" width="6.92" height="12.3" filterUnits="userSpaceOnUse" color-interpolation-filters="sRGB"><feFlood flood-color="#fff" result="bg"/><feBlend in="SourceGraphic" in2="bg"/></filter><mask id="mask-47" x="58.27" y="397.33" width="6.92" height="12.3" maskUnits="userSpaceOnUse"><g class="cls-39"><polygon class="cls-40" points="58.27 397.33 58.27 405.81 65.19 409.63 65.19 401.14 58.27 397.33"/></g></mask><filter id="luminosity-noclip-48" x="4.45" y="384.82" width="6.92" height="12.3" filterUnits="userSpaceOnUse" color-interpolation-filters="sRGB"><feFlood flood-color="#fff" result="bg"/><feBlend in="SourceGraphic" in2="bg"/></filter><mask id="mask-48" x="4.45" y="384.82" width="6.92" height="12.3" maskUnits="userSpaceOnUse"><g class="cls-41"><polygon class="cls-42" points="4.45 384.82 4.45 393.3 11.36 397.11 11.36 388.63 4.45 384.82"/></g></mask><filter id="luminosity-noclip-49" x="4.45" y="401.96" width="6.92" height="12.3" filterUnits="userSpaceOnUse" color-interpolation-filters="sRGB"><feFlood flood-color="#fff" result="bg"/><feBlend in="SourceGraphic" in2="bg"/></filter><mask id="mask-49" x="4.45" y="401.96" width="6.92" height="12.3" maskUnits="userSpaceOnUse"><g class="cls-43"><polygon class="cls-44" points="4.45 401.96 4.45 410.44 11.36 414.25 11.36 405.77 4.45 401.96"/></g></mask><filter id="luminosity-noclip-50" x="4.45" y="419.1" width="6.92" height="12.3" filterUnits="userSpaceOnUse" color-interpolation-filters="sRGB"><feFlood flood-color="#fff" result="bg"/><feBlend in="SourceGraphic" in2="bg"/></filter><mask id="mask-50" x="4.45" y="419.1" width="6.92" height="12.3" maskUnits="userSpaceOnUse"><g class="cls-45"><polygon class="cls-46" points="4.45 419.1 4.45 427.58 11.36 431.39 11.36 422.91 4.45 419.1"/></g></mask></defs><title>Asset 7</title><g class="cls-52"><g id="Layer_2" data-name="Layer 2"><g id="Layer_1-2" data-name="Layer 1"><path class="cls-53" d="M331.35,769.65h0V320.28l-55.64,27L185.3,295.15c-10.86-6.26-27.27-6.93-36.66-1.51l-92.92,53.7L0,320.28V769.64Z"/><path class="cls-54" d="M331.35,320.28c-.26-4-3.28-8.14-9-11.41L185.3,229.79c-10.86-6.26-27.27-6.93-36.66-1.51L6.33,310.52c-4.48,2.6-6.55,6.11-6.31,9.76.26,4,3.28,8.14,9,11.41l137.11,79.08c10.85,6.26,27.26,6.93,36.65,1.5L325,330C329.52,327.44,331.59,323.92,331.35,320.28Z"/><path class="cls-55" d="M331.35,318.42c-.26-4-3.28-8.14-9-11.41L185.3,227.93c-10.86-6.26-27.27-6.93-36.66-1.5L6.33,308.67c-4.48,2.59-6.55,6.11-6.31,9.75.26,4,3.28,8.14,9,11.41l137.11,79.08c10.85,6.26,27.26,6.93,36.65,1.5L325,328.18C329.52,325.58,331.59,322.07,331.35,318.42Z"/><path class="cls-56" d="M251.44,274.92l-131.26-80a19.44,19.44,0,0,1-9.72-16.83l-5.3-95.33a58.72,58.72,0,0,1,8-4.72c2.59-1.41,5.62-2.41,8.53-.72L253,153.11a19.44,19.44,0,0,1,9.72,16.83v94.29c0,3.21-2.1,5.44-4.53,6.88C256.1,272.32,251.44,274.92,251.44,274.92Z"/><path class="cls-57" d="M245.51,274.52,114.25,198.74a19.44,19.44,0,0,1-9.72-16.83V87.62a7.49,7.49,0,0,1,11.24-6.48L247,156.92a19.43,19.43,0,0,1,9.72,16.82V268A7.5,7.5,0,0,1,245.51,274.52Z"/><path class="cls-58" d="M243.76,275.15,112.5,199.36a19.43,19.43,0,0,1-9.72-16.82V88.25A7.5,7.5,0,0,1,114,81.76l131.26,75.79A19.43,19.43,0,0,1,255,174.37v94.29A7.49,7.49,0,0,1,243.76,275.15Z"/><polygon class="cls-57" points="118.39 104.87 167.29 133.41 167.31 128.53 118.41 100 118.39 104.87"/><polygon class="cls-57" points="147.15 135.38 152.72 138.63 152.74 133.76 147.18 130.51 147.15 135.38"/><polygon class="cls-57" points="118.33 118.56 142.76 132.82 142.78 127.94 118.35 113.69 118.33 118.56"/><polygon class="cls-57" points="118.26 132.25 126.35 136.97 126.38 132.1 118.28 127.38 118.26 132.25"/><polygon class="cls-59" points="215.34 211.93 228.33 219.59 228.47 204.51 215.48 196.85 215.34 211.93"/><polygon class="cls-59" points="197.83 201.6 210.82 209.26 210.96 194.18 197.97 186.52 197.83 201.6"/><polygon class="cls-59" points="197.83 222.07 210.82 229.74 210.96 214.66 197.97 206.99 197.83 222.07"/><polygon class="cls-59" points="180.31 191.27 193.31 198.94 193.45 183.85 180.46 176.19 180.31 191.27"/><polygon class="cls-59" points="215.53 191.6 228.52 199.26 228.66 184.18 215.67 176.52 215.53 191.6"/><polygon class="cls-59" points="198.02 181.27 211.01 188.93 211.15 173.85 198.16 166.19 198.02 181.27"/><polygon class="cls-59" points="180.5 170.94 193.5 178.6 193.64 163.52 180.64 155.86 180.5 170.94"/><polygon class="cls-59" points="215.72 171.27 228.71 178.93 228.85 163.85 215.86 156.19 215.72 171.27"/><polygon class="cls-60" points="234.98 182.21 247.97 189.87 248.11 174.79 235.12 167.13 234.98 182.21"/><polygon class="cls-59" points="198.21 160.94 211.2 168.6 211.34 153.52 198.35 145.86 198.21 160.94"/><polygon class="cls-59" points="180.69 150.61 193.69 158.27 193.82 143.19 180.83 135.53 180.69 150.61"/><path class="cls-60" d="M243.1,162.08,243,162a4,4,0,0,0-6.06,3.44v6.66l10.18,4.77v-7.74A8.25,8.25,0,0,0,243.1,162.08Zm2.53,12.46-7.19-3.37v-5.71a2.51,2.51,0,0,1,3.79-2.16l.1.06a6.77,6.77,0,0,1,3.3,5.79Z"/><polygon class="cls-60" points="221.54 188.16 221.36 207.44 204.95 197.36 187.72 166.91 186.42 167.64 203.84 198.43 222.83 210.1 223.03 188.17 223.03 167.56 221.54 167.56 221.54 188.16"/><path class="cls-60" d="M187.37,163.21a2.58,2.58,0,0,0-3.9,2.2,6.71,6.71,0,0,0,3.3,5.84h0a2.58,2.58,0,0,0,3.9-2.2A6.72,6.72,0,0,0,187.37,163.21Z"/><path class="cls-60" d="M204.69,193.83a2.58,2.58,0,0,0-3.89,2.2,6.68,6.68,0,0,0,3.3,5.84h0a2.58,2.58,0,0,0,3.89-2.2h0A6.67,6.67,0,0,0,204.69,193.83Z"/><path class="cls-60" d="M222.39,204.71a2.58,2.58,0,0,0-3.89,2.2h0a6.7,6.7,0,0,0,3.3,5.84,2.59,2.59,0,0,0,3.9-2.2A6.71,6.71,0,0,0,222.39,204.71Z"/><path class="cls-60" d="M222.58,163.49h0a2.58,2.58,0,0,0-3.89,2.2,6.69,6.69,0,0,0,3.3,5.85,2.58,2.58,0,0,0,3.89-2.21h0A6.69,6.69,0,0,0,222.58,163.49Z"/><path class="cls-61" d="M164.88,162.2c.78-2.62,3.72-5.5,5.26-7s3.12-5.9,3.76-6.27,1.71-1,1.07,2.55-.2,2.78.61,6.17-.82,3.52-2.82,4.67a24.14,24.14,0,0,1-3.41,1.67Z"/><path class="cls-62" d="M117.34,279.25s-.12,4.76,1.8,5.57c3.94,1.66,8.7-3.19,11.88-8.68,3.72-6.43-2-6.9-6.22-3.1C118.26,278.89,117.34,279.25,117.34,279.25Z"/><path class="cls-60" d="M117.35,278s-.51,4.76,1.42,5.57c3.94,1.66,9.07-3.2,12.25-8.68,3.72-6.43-2-6.9-6.22-3.1C118.27,277.61,117.35,278,117.35,278Z"/><path class="cls-63" d="M108.63,164.56c-8.28,10.67-14.28,14.45,1.91,45.18,1.56,3,5.31-.44,6.63-2.07,2.92-3.62-4.83-16.88-5.78-20.56-1.74-6.78,15.35-26.45,15.35-26.45s-2.43-.15-7.78-4.15C115.4,153.84,110.63,162,108.63,164.56Z"/><path class="cls-64" d="M116.24,247.18c1.1,7.78-.17,22.51.88,31.33.42,3.5,7.62,1,8.73-2.91,2.58-9.15,1.15-29.82,1.3-45.19.11-11.13-.63-21.8-.63-21.8s-15.88-8.14-16-4C110,217.33,114.74,236.55,116.24,247.18Z"/><path class="cls-62" d="M141,281.66s-.51,3.78.54,4.78c3.14,3,8.28-.63,14.65-5.13,5.81-4.11,3-6.14-3.86-4.15C143.88,279.61,141,281.66,141,281.66Z"/><path class="cls-60" d="M141,280.54s-.51,3.78.53,4.78c3.15,3,8.29-.63,14.65-5.13,5.82-4.11,3-6.14-3.86-4.15C143.89,278.49,141,280.54,141,280.54Z"/><path class="cls-64" d="M122,196.23c3.47,19.18,16.5,37.79,17.55,46.93,1.1,9.54-.49,29.49,1.33,38.1.69,3.28,8.88-.53,9.39-3.31,1-5.27,2.47-33.26,1.47-42.63-1-9.08-10.17-24-12.38-37.62C138.53,192.67,121.08,191.21,122,196.23Z"/><path class="cls-51" d="M119.21,154.12c-4.56,2-5.91,2.95-8.57,16.68-1.39,7.18-2.72,35.89,2.9,76.38.61,4.38,44.18,6.18,42.69-.53-4.17-18.72-17.34-49.7-16.52-59s4.5-13.94,2.06-21.41c-.94-2.87-4.93-7.6-8.17-8.72C129.85,156.24,121.91,152.93,119.21,154.12Z"/><g class="cls-65"><path class="cls-66" d="M138.16,162.3c-5.33,2-7.5,5-6.5,13.47.62,5.27-3.47,7.48,1.26,15.77,1.42,2.48,2.82,4.82,4.07,6.89a1.92,1.92,0,0,0,3.54-1.29c-.56-3.71-1-7.36-.86-8.48.36-2.53,1.25-11.33,1.25-11.33Z"/></g><path class="cls-67" d="M134.3,166c-1,2.09-1.28,4,1.65,9.53,3.72,7,9.53,13.14,18.08,13.18,2.31,0,7.36-.92,10.55-7.38,1.51-3.06,4-11.44,5.79-17.33.34-1.16-4.35-3.76-5.49-2.14-1.94,2.75-3.57,14.64-9.83,16.33-5.42,1.45-13.4-13.31-15-15C137.4,160.55,135,164.53,134.3,166Z"/><path class="cls-61" d="M133.62,153s-2.43,3.23,0,4.49a14.47,14.47,0,0,1-10.85-3.45c1.85,0,3.12-3.83,6.65-9.68C131.1,141.58,133.62,153,133.62,153Z"/><path class="cls-61" d="M129.21,145.32c-.48,3.52,2.26,8.18,5.23,8.58s4.84-3.76,5.54-7.11-1.55-6.7-4.52-7.1S129.69,141.8,129.21,145.32Z"/><path class="cls-61" d="M164.88,162.06a29,29,0,0,1,.81-5c.53-3.25.31-5.11,1.11-5,1.23.14.16,5.72,3.34,3.14C171.83,153.8,164.88,162.06,164.88,162.06Z"/><path class="cls-60" d="M142.19,142.57a2.79,2.79,0,0,0-1.36-5.23h-.12a2.67,2.67,0,0,0,.12-.75h0a2.81,2.81,0,0,0-2.8-2.8,2.77,2.77,0,0,0-2.17,1.06,2.78,2.78,0,0,0-4.93,1.3A2.91,2.91,0,0,0,130,136h0a2.81,2.81,0,0,0-2.8,2.8,2.75,2.75,0,0,0,.42,1.44,2.81,2.81,0,0,0-2.28,2.74,2.66,2.66,0,0,0,.4,1.4,2.72,2.72,0,0,0-.4,1.4,2.81,2.81,0,0,0,2.8,2.8h.08a2.81,2.81,0,0,0,2.73,2.17h.1a2.77,2.77,0,0,0,4.52-1.77c.51-.28,1-.6,1.57-1,1.49-1,1.93-.35,2.8-.48a3,3,0,0,0,.52.05h0a2.79,2.79,0,0,0,1.69-5Z"/><path class="cls-61" d="M137,150.34h0a1.08,1.08,0,0,0,.81-1.27l-.32-1.43a1.07,1.07,0,0,0-1.28-.8h0a1.06,1.06,0,0,0-.81,1.27l.32,1.42A1.07,1.07,0,0,0,137,150.34Z"/><g class="cls-68"><g class="cls-68"><path class="cls-69" d="M127.41,271.24l52.34-38.51L202.3,245.8l-52.21,38.73-8.57,1.91s-7.69-2.57-12-2.57a40.37,40.37,0,0,0-9,1.27Z"/></g></g><g class="cls-70"><g class="cls-70"><polygon class="cls-71" points="260.66 280.91 203.09 319.09 207.99 325.26 190.73 338.82 204.76 346.87 227.28 334.02 244.03 345.06 301.85 308.73 260.66 280.91"/></g></g><path class="cls-59" d="M216.44,325.84s.07,4-1.56,4.7c-3.34,1.37-7.32-2.77-10-7.43-3.09-5.47,1.73-5.82,5.28-2.57C215.67,325.53,216.44,325.84,216.44,325.84Z"/><path class="cls-54" d="M216.45,324.76s.39,4-1.25,4.7c-3.34,1.37-7.64-2.77-10.28-7.44-3.1-5.46,1.72-5.81,5.28-2.56C215.68,324.45,216.45,324.76,216.45,324.76Z"/><path class="cls-61" d="M217.63,298.75c-1,6.57,0,19-1,26.47-.38,3-4.61,1.88-5.52-1.45C209,316,203,293,208.2,287.26c5.51-6,24.4,2.51,24.4,2.51a32.9,32.9,0,0,0-.95,7.57C232,308.1,219,289.77,217.63,298.75Z"/><path class="cls-62" d="M230.86,358.13a2,2,0,0,1-1.71-1l-17.69-22.28a.79.79,0,0,1,.12-1.1.78.78,0,0,1,1.1.12l17.73,22.33a.86.86,0,0,1,.07.1.45.45,0,0,0,.52.22.46.46,0,0,0,.36-.46l.15-32.23a.78.78,0,0,1,.78-.78.8.8,0,0,1,.78.79l-.15,32.23a2.05,2.05,0,0,1-2.06,2Z"/><path class="cls-62" d="M257.12,342.07a6.18,6.18,0,0,1-2-.33l-33-11.18-9.69,4.54a.78.78,0,0,1-.66-1.42l10-4.67a.76.76,0,0,1,.59,0l33.34,11.28a4.64,4.64,0,0,0,4.19-.62,4.58,4.58,0,0,0,1.94-3.76l.12-25.08a.78.78,0,1,1,1.56,0l-.11,25.07a6.22,6.22,0,0,1-6.22,6.19Z"/><polygon class="cls-72" points="232.27 326.81 199.87 307.9 232.45 289.29 264.86 308.2 232.27 326.81"/><polygon class="cls-72" points="232.26 330.27 199.85 311.36 199.87 307.9 232.27 326.81 232.26 330.27"/><polygon class="cls-62" points="232.26 330.27 264.84 311.67 264.86 308.2 232.27 326.81 232.26 330.27"/><path class="cls-62" d="M262.68,308.73h0a.78.78,0,0,1-.78-.78l.06-11.49a15.67,15.67,0,0,1,.56-4.15l3.93-14.48a.78.78,0,0,1,1.51.41L264,292.72a14.79,14.79,0,0,0-.51,3.74l0,11.49A.79.79,0,0,1,262.68,308.73Z"/><path class="cls-61" d="M203.72,256.64c-.27,0-1.14-.44-1.29.42-.1.55,1,1.08,1.25,1.18a.39.39,0,0,0-.61.36c-.07.8,3.12,2.63,4.75,3.51a7.19,7.19,0,0,0,3,1.81c-.41-2.4.43-4.88,3.62-3.62,0,0-3-4.33-4.49-5.29-2.66-1.71-5.65-1.73-5.94-.81-.2.63,1.39,1.07,1.39,1.07s-2.67-.69-2.89.09C202.35,256,203.48,256.51,203.72,256.64Z"/><path class="cls-73" d="M214.2,260c7.18,3.68,18.45,5.44,22-1.48,1.72-3.37,9.95.18,10.3,6.77.63,11.78-30.31,4.34-35.36-.95C208.37,261.47,211.48,258.62,214.2,260Z"/><path class="cls-59" d="M205.25,342.83s.4,3.2-.49,4c-2.68,2.52-7-.6-12.34-4.45-4.88-3.52-2.46-5.22,3.3-3.48C202.82,341.07,205.25,342.83,205.25,342.83Z"/><path class="cls-54" d="M205.26,341.88s.4,3.2-.49,4c-2.68,2.52-7-.6-12.34-4.45-4.89-3.52-2.46-5.21,3.29-3.48C202.82,340.12,205.26,341.88,205.26,341.88Z"/><path class="cls-61" d="M246.21,304.81c-3.08,16.18-36.6-.53-39.61,7.18-2.94,7.56.36,23.24-1.25,30.5-.61,2.77-5.23.88-5.64-1.47-.77-4.46-6.42-35.88-3.47-40.76,6.16-10.2,27.87-1.44,33.92-10.53C232.55,286.14,247,300.58,246.21,304.81Z"/><path class="cls-74" d="M248.39,301.78c-1.06,10.4-8.73,12-18.68,11s-18.64-3-21.46-2.36-14.95-5.44-12-10.14,13.43-14.27,20.44-14.54,13.23,2.88,17.52-.5S248.39,301.78,248.39,301.78Z"/><path class="cls-59" d="M203,245.81l7.62,21.58a1.63,1.63,0,0,1-.72,1.94l-26.13,14.95a1.71,1.71,0,0,1-1.17-1.22l-7-20.29a1.61,1.61,0,0,1,.73-1.93l25.08-14.46A3.83,3.83,0,0,1,203,245.81Z"/><path class="cls-60" d="M203.85,246.29l7.32,21.1a1.63,1.63,0,0,1-.73,1.94L184.5,284.28a.74.74,0,0,1-1.07-.4l-7.32-21.11a1.62,1.62,0,0,1,.72-1.93l25.95-14.95A.74.74,0,0,1,203.85,246.29Z"/><path class="cls-75" d="M202.82,248.17l6.59,19a1.45,1.45,0,0,1-.65,1.74l-23.34,13.45a.67.67,0,0,1-1-.36l-6.58-19a1.45,1.45,0,0,1,.65-1.74l23.34-13.45A.67.67,0,0,1,202.82,248.17Z"/><path class="cls-59" d="M212.62,270.27l18.9,10.4s.39,1.12-1.32,2.11l-24.8,14.29a2,2,0,0,1-2,0l-17.78-10.24c-1.52-.88-1.12-2-1.12-2l26.12-14.52A2,2,0,0,1,212.62,270.27Z"/><path class="cls-60" d="M212.62,269.24l18.53,10.68a.73.73,0,0,1,0,1.28L205.4,296a2,2,0,0,1-2,0l-18.54-10.68a.74.74,0,0,1,0-1.28l25.76-14.84A2,2,0,0,1,212.62,269.24Z"/><path class="cls-59" d="M214.84,281l6.56,3.78a.24.24,0,0,1,0,.42l-8.72,5a.7.7,0,0,1-.66,0l-6.56-3.79a.24.24,0,0,1,0-.42l8.72-5A.65.65,0,0,1,214.84,281Z"/><path class="cls-59" d="M188.38,285.3l6.47,3.73a2,2,0,0,0,2,0l22.33-12.84a.54.54,0,0,0,0-.93l-6.47-3.73a2,2,0,0,0-2,0l-22.34,12.85A.53.53,0,0,0,188.38,285.3Z"/><path class="cls-76" d="M249.08,266.2c3.44,9.06,12.22,18.56-.26,36.49-1.62,2.32-4.49-.41-5.59-1.8-2.44-3.08,3.53-3.55,1.43-8.39-3.59-8.28-2.94-15.86-3.44-17-.81-1.79-5.71-14.42-5.71-14.42s2.05-.11,6.61-3.46C245.15,255.41,248.1,263.62,249.08,266.2Z"/><path class="cls-61" d="M191.46,268.15c-.24-.1-.87-.84-1.4-.06-.34.5.5,1.44.66,1.61-.1-.11-.44-.39-.74.13-.42.75,1.78,3.71,2.92,5.17.9,1.81,1.12,2.13,2,2.88.68-2.49,2.57-4.6,5-2.19a33.15,33.15,0,0,0-2.26-5.3c-1.75-2.65-4.23-4.91-4.91-4.13-.47.54.25,1.41.25,1.41s-1.56-1.88-2.12-1.2C190.48,267,191.3,267.94,191.46,268.15Z"/><path class="cls-77" d="M241.93,255.61c3.83,1.73,5,2.55,7.11,14.17,1.12,6.08,5.19,12.07,1.26,31.88-1.06,5.33-29.66,7-28.13-1.9,1.24-7.26,2.78-8.1,2.17-16s-3.7-11.82-1.58-18.11c.82-2.42,4.23-6.38,7-7.31C232.91,257.32,239.65,254.59,241.93,255.61Z"/><path class="cls-66" d="M224.38,262.86c4.48,1.74,7.76,3.82,6.85,10.95-.57,4.45,2.88,6.36-1.19,13.32-.66,1.14-1.32,2.24-2,3.29a2,2,0,0,1-3.71-1.18c.07-.93.11-1.9.1-2.91,0-5.66-2.33-14.45-2.33-14.45Z"/><path class="cls-61" d="M229.76,254.59s2,2.75,0,3.79a12.16,12.16,0,0,0,9.19-2.83c-1.56,0-2.6-3.25-5.54-8.23C232,244.93,229.76,254.59,229.76,254.59Z"/><path class="cls-61" d="M233.54,248.1c.38,3-2,6.89-4.49,7.21s-4.06-3.21-4.62-6.05a4.94,4.94,0,0,1,3.87-6C230.82,243,233.16,245.12,233.54,248.1Z"/><path class="cls-60" d="M234.94,250.08c-1.86,0-3.39,2.16-4,2.17a10.71,10.71,0,0,1-4.17-1.93c-1.77-1.22-1.38-1.66-3.54-2.45s.34-7,6.58-6.29C234.18,242.08,235,246.57,234.94,250.08Z"/><path class="cls-61" d="M226.94,252.28h0a.89.89,0,0,1-.67-1.08l.28-1.2a.89.89,0,0,1,1.08-.67h0a.89.89,0,0,1,.67,1.08l-.28,1.2A.89.89,0,0,1,226.94,252.28Z"/><path class="cls-78" d="M200,275.13c5.17,6.19,7.37,14.62,12.81,7,4.31-6,6.06-14.86,12-19.85,2.89-2.43,9.08,4.06,6.83,10.26-4,11.09-14.38,20.81-18.91,23.35-10.06,5.65-15-10.82-17.57-17.66A2.87,2.87,0,0,1,200,275.13Z"/><path class="cls-61" d="M196.71,269.06c2.19,1.6,2.12-1.72,3.27-1.6,2.25.24-.28,4.89-.43,7.12Z"/><path class="cls-61" d="M207.39,256.39c1.05,1.28-.72,1.42-2.75,1.41s-2.31,1.34.66,1.5,4.32,2.14,5.58,1.11-.48-3.26-.63-3.31Z"/><path class="cls-62" d="M232.28,325.68a.79.79,0,0,1-.78-.79l.05-11.49a16.16,16.16,0,0,1,.57-4.15l3.93-14.47a.78.78,0,0,1,1-.55.79.79,0,0,1,.55,1l-3.93,14.47a14.8,14.8,0,0,0-.51,3.75l-.05,11.49A.8.8,0,0,1,232.28,325.68Z"/><polygon class="cls-72" points="241.24 282.24 238.15 280.5 270.73 261.89 273.82 263.63 241.24 282.24"/><polygon class="cls-72" points="235.48 303.8 232.39 302.06 238.15 280.5 241.24 282.24 235.48 303.8"/><polygon class="cls-62" points="235.48 303.8 268.06 285.19 273.82 263.63 241.24 282.24 235.48 303.8"/><path class="cls-60" d="M235.72,240.81a4.43,4.43,0,1,0-4.45,4.41A4.43,4.43,0,0,0,235.72,240.81Z"/><path class="cls-62" d="M81.72,95.41l-51.35-30a14.4,14.4,0,0,1-7.15-12.52l.22-47.14a5.8,5.8,0,0,1,8.72-5l51.36,30a14.42,14.42,0,0,1,7.15,12.52l-.22,47.14A5.8,5.8,0,0,1,81.72,95.41Z"/><polygon class="cls-57" points="30.47 16.95 30.45 20.16 77.82 47.61 77.84 44.4 30.47 16.95"/><polygon class="cls-57" points="80.73 46.09 80.72 49.3 84.38 51.44 84.4 48.23 80.73 46.09"/><polygon class="cls-57" points="30.4 32.59 30.38 35.8 46.47 45.19 46.48 41.98 30.4 32.59"/><polygon class="cls-57" points="48.93 43.44 48.91 46.65 84.38 67.35 84.4 64.14 48.93 43.44"/><polygon class="cls-57" points="30.4 49.1 30.38 52.31 46.47 61.7 46.48 58.49 30.4 49.1"/><polygon class="cls-62" points="65.67 85.95 77.97 108.32 78.04 93.17 65.67 85.95"/><g class="cls-79"><path class="cls-57" d="M41.2,313.79a1.19,1.19,0,0,1,0,2.26,4.28,4.28,0,0,1-3.91,0c-1.09-.62-1.09-1.63,0-2.26A4.34,4.34,0,0,1,41.2,313.79Z"/><path class="cls-57" d="M62.18,301.68a1.19,1.19,0,0,1,0,2.26,4.3,4.3,0,0,1-3.92,0,1.19,1.19,0,0,1,0-2.26A4.36,4.36,0,0,1,62.18,301.68Z"/><path class="cls-57" d="M83.15,289.57a1.19,1.19,0,0,1,0,2.26,4.3,4.3,0,0,1-3.92,0,1.19,1.19,0,0,1,0-2.26A4.36,4.36,0,0,1,83.15,289.57Z"/><path class="cls-57" d="M104.12,277.46a1.19,1.19,0,0,1,0,2.26,4.28,4.28,0,0,1-3.91,0,1.19,1.19,0,0,1,0-2.26A4.34,4.34,0,0,1,104.12,277.46Z"/><path class="cls-57" d="M62.18,325.9a1.19,1.19,0,0,1,0,2.26,4.3,4.3,0,0,1-3.92,0,1.19,1.19,0,0,1,0-2.26A4.36,4.36,0,0,1,62.18,325.9Z"/><path class="cls-57" d="M83.15,313.79a1.19,1.19,0,0,1,0,2.26,4.3,4.3,0,0,1-3.92,0,1.19,1.19,0,0,1,0-2.26A4.36,4.36,0,0,1,83.15,313.79Z"/><path class="cls-57" d="M104.12,301.68c1.09.63,1.09,1.64,0,2.26a4.28,4.28,0,0,1-3.91,0,1.19,1.19,0,0,1,0-2.26A4.34,4.34,0,0,1,104.12,301.68Z"/><path class="cls-57" d="M125.1,289.57a1.19,1.19,0,0,1,0,2.26,4.3,4.3,0,0,1-3.92,0,1.19,1.19,0,0,1,0-2.26A4.36,4.36,0,0,1,125.1,289.57Z"/><path class="cls-57" d="M83.15,338a1.19,1.19,0,0,1,0,2.26,4.28,4.28,0,0,1-3.91,0,1.19,1.19,0,0,1,0-2.26A4.34,4.34,0,0,1,83.15,338Z"/><path class="cls-57" d="M104.13,325.9a1.19,1.19,0,0,1,0,2.26,4.3,4.3,0,0,1-3.92,0,1.19,1.19,0,0,1,0-2.26A4.36,4.36,0,0,1,104.13,325.9Z"/><path class="cls-57" d="M125.1,313.79a1.19,1.19,0,0,1,0,2.26,4.3,4.3,0,0,1-3.92,0,1.19,1.19,0,0,1,0-2.26A4.36,4.36,0,0,1,125.1,313.79Z"/><path class="cls-57" d="M146.07,301.68a1.19,1.19,0,0,1,0,2.26,4.28,4.28,0,0,1-3.91,0,1.19,1.19,0,0,1,0-2.26A4.34,4.34,0,0,1,146.07,301.68Z"/><ellipse class="cls-57" cx="102.17" cy="351.25" rx="2.77" ry="1.6"/><path class="cls-57" d="M125.1,338a1.19,1.19,0,0,1,0,2.26,4.3,4.3,0,0,1-3.92,0,1.19,1.19,0,0,1,0-2.26A4.36,4.36,0,0,1,125.1,338Z"/><path class="cls-57" d="M146.07,325.9c1.09.63,1.09,1.64,0,2.26a4.28,4.28,0,0,1-3.91,0,1.19,1.19,0,0,1,0-2.26A4.34,4.34,0,0,1,146.07,325.9Z"/><path class="cls-57" d="M167.05,313.79a1.19,1.19,0,0,1,0,2.26,4.3,4.3,0,0,1-3.92,0,1.19,1.19,0,0,1,0-2.26A4.36,4.36,0,0,1,167.05,313.79Z"/><path class="cls-57" d="M125.1,362.23a1.19,1.19,0,0,1,0,2.26,4.28,4.28,0,0,1-3.91,0,1.19,1.19,0,0,1,0-2.26A4.34,4.34,0,0,1,125.1,362.23Z"/><path class="cls-57" d="M146.07,350.12c1.09.63,1.09,1.64,0,2.26a4.28,4.28,0,0,1-3.91,0,1.19,1.19,0,0,1,0-2.26A4.34,4.34,0,0,1,146.07,350.12Z"/><path class="cls-57" d="M167.05,338a1.19,1.19,0,0,1,0,2.26,4.3,4.3,0,0,1-3.92,0,1.19,1.19,0,0,1,0-2.26A4.36,4.36,0,0,1,167.05,338Z"/><path class="cls-57" d="M188,325.9a1.19,1.19,0,0,1,0,2.26,4.28,4.28,0,0,1-3.91,0,1.19,1.19,0,0,1,0-2.26A4.34,4.34,0,0,1,188,325.9Z"/><path class="cls-57" d="M188,325.9a1.19,1.19,0,0,1,0,2.26,4.28,4.28,0,0,1-3.91,0,1.19,1.19,0,0,1,0-2.26A4.34,4.34,0,0,1,188,325.9Z"/><path class="cls-57" d="M125.1,265.35a1.19,1.19,0,0,1,0,2.26,4.3,4.3,0,0,1-3.92,0,1.19,1.19,0,0,1,0-2.26A4.36,4.36,0,0,1,125.1,265.35Z"/><path class="cls-57" d="M146.07,253.24a1.19,1.19,0,0,1,0,2.26,4.28,4.28,0,0,1-3.91,0,1.19,1.19,0,0,1,0-2.26A4.34,4.34,0,0,1,146.07,253.24Z"/><path class="cls-57" d="M167.05,241.13a1.19,1.19,0,0,1,0,2.26,4.3,4.3,0,0,1-3.92,0,1.19,1.19,0,0,1,0-2.26A4.36,4.36,0,0,1,167.05,241.13Z"/><path class="cls-57" d="M146.07,277.46a1.19,1.19,0,0,1,0,2.26,4.28,4.28,0,0,1-3.91,0,1.19,1.19,0,0,1,0-2.26A4.34,4.34,0,0,1,146.07,277.46Z"/><path class="cls-57" d="M167.05,265.35a1.19,1.19,0,0,1,0,2.26,4.3,4.3,0,0,1-3.92,0,1.19,1.19,0,0,1,0-2.26A4.36,4.36,0,0,1,167.05,265.35Z"/><path class="cls-57" d="M188,253.24a1.19,1.19,0,0,1,0,2.26,4.28,4.28,0,0,1-3.91,0,1.19,1.19,0,0,1,0-2.26A4.34,4.34,0,0,1,188,253.24Z"/><path class="cls-57" d="M167.05,289.57a1.19,1.19,0,0,1,0,2.26,4.3,4.3,0,0,1-3.92,0,1.19,1.19,0,0,1,0-2.26A4.36,4.36,0,0,1,167.05,289.57Z"/><path class="cls-57" d="M188,277.46a1.19,1.19,0,0,1,0,2.26,4.28,4.28,0,0,1-3.91,0,1.19,1.19,0,0,1,0-2.26A4.34,4.34,0,0,1,188,277.46Z"/><path class="cls-57" d="M209,265.35a1.19,1.19,0,0,1,0,2.26,4.3,4.3,0,0,1-3.92,0,1.19,1.19,0,0,1,0-2.26A4.36,4.36,0,0,1,209,265.35Z"/><path class="cls-57" d="M188,301.68a1.19,1.19,0,0,1,0,2.26,4.28,4.28,0,0,1-3.91,0,1.19,1.19,0,0,1,0-2.26A4.34,4.34,0,0,1,188,301.68Z"/><path class="cls-57" d="M209,289.57a1.19,1.19,0,0,1,0,2.26,4.3,4.3,0,0,1-3.92,0,1.19,1.19,0,0,1,0-2.26A4.36,4.36,0,0,1,209,289.57Z"/><path class="cls-57" d="M230,277.46a1.19,1.19,0,0,1,0,2.26,4.28,4.28,0,0,1-3.91,0,1.19,1.19,0,0,1,0-2.26A4.34,4.34,0,0,1,230,277.46Z"/><path class="cls-57" d="M209,313.79a1.19,1.19,0,0,1,0,2.26,4.3,4.3,0,0,1-3.92,0,1.19,1.19,0,0,1,0-2.26A4.36,4.36,0,0,1,209,313.79Z"/><path class="cls-57" d="M230,301.68a1.19,1.19,0,0,1,0,2.26,4.28,4.28,0,0,1-3.91,0,1.19,1.19,0,0,1,0-2.26A4.34,4.34,0,0,1,230,301.68Z"/><path class="cls-57" d="M251,289.57a1.19,1.19,0,0,1,0,2.26,4.3,4.3,0,0,1-3.92,0,1.19,1.19,0,0,1,0-2.26A4.36,4.36,0,0,1,251,289.57Z"/><path class="cls-57" d="M146.08,374.34a1.19,1.19,0,0,1,0,2.26,4.3,4.3,0,0,1-3.92,0,1.19,1.19,0,0,1,0-2.26A4.36,4.36,0,0,1,146.08,374.34Z"/><path class="cls-57" d="M167.05,362.23a1.19,1.19,0,0,1,0,2.26,4.3,4.3,0,0,1-3.92,0,1.19,1.19,0,0,1,0-2.26A4.36,4.36,0,0,1,167.05,362.23Z"/><path class="cls-57" d="M188,350.12c1.09.63,1.09,1.64,0,2.26a4.28,4.28,0,0,1-3.91,0,1.19,1.19,0,0,1,0-2.26A4.34,4.34,0,0,1,188,350.12Z"/><path class="cls-57" d="M209,338a1.19,1.19,0,0,1,0,2.26,4.3,4.3,0,0,1-3.92,0,1.19,1.19,0,0,1,0-2.26A4.36,4.36,0,0,1,209,338Z"/><path class="cls-57" d="M167.05,386.45a1.19,1.19,0,0,1,0,2.26,4.28,4.28,0,0,1-3.91,0,1.19,1.19,0,0,1,0-2.26A4.34,4.34,0,0,1,167.05,386.45Z"/><path class="cls-57" d="M188,374.34a1.19,1.19,0,0,1,0,2.26,4.28,4.28,0,0,1-3.91,0,1.19,1.19,0,0,1,0-2.26A4.34,4.34,0,0,1,188,374.34Z"/><path class="cls-57" d="M209,362.23a1.19,1.19,0,0,1,0,2.26,4.3,4.3,0,0,1-3.92,0,1.19,1.19,0,0,1,0-2.26A4.36,4.36,0,0,1,209,362.23Z"/><path class="cls-57" d="M230,350.12a1.19,1.19,0,0,1,0,2.26,4.28,4.28,0,0,1-3.91,0,1.19,1.19,0,0,1,0-2.26A4.34,4.34,0,0,1,230,350.12Z"/><path class="cls-57" d="M230,325.9a1.19,1.19,0,0,1,0,2.26,4.28,4.28,0,0,1-3.91,0,1.19,1.19,0,0,1,0-2.26A4.34,4.34,0,0,1,230,325.9Z"/><path class="cls-57" d="M251,313.79a1.19,1.19,0,0,1,0,2.26,4.3,4.3,0,0,1-3.92,0,1.19,1.19,0,0,1,0-2.26A4.36,4.36,0,0,1,251,313.79Z"/><path class="cls-57" d="M271.92,301.68a1.19,1.19,0,0,1,0,2.26,4.28,4.28,0,0,1-3.91,0,1.19,1.19,0,0,1,0-2.26A4.34,4.34,0,0,1,271.92,301.68Z"/><path class="cls-57" d="M251,338a1.19,1.19,0,0,1,0,2.26,4.3,4.3,0,0,1-3.92,0,1.19,1.19,0,0,1,0-2.26A4.36,4.36,0,0,1,251,338Z"/><path class="cls-57" d="M271.92,325.9a1.19,1.19,0,0,1,0,2.26,4.28,4.28,0,0,1-3.91,0,1.19,1.19,0,0,1,0-2.26A4.34,4.34,0,0,1,271.92,325.9Z"/><path class="cls-57" d="M292.9,313.79a1.19,1.19,0,0,1,0,2.26,4.3,4.3,0,0,1-3.92,0,1.19,1.19,0,0,1,0-2.26A4.36,4.36,0,0,1,292.9,313.79Z"/></g><g class="cls-80"><polygon class="cls-81" points="146.3 428.69 139.38 424.88 139.38 433.36 146.3 437.17 146.3 428.69"/></g><g class="cls-82"><polygon class="cls-62" points="112.47 410.05 112.47 418.54 119.39 422.35 119.39 413.86 112.47 410.05"/></g><g class="cls-83"><polygon class="cls-81" points="99.01 402.64 99.01 411.12 105.93 414.93 105.93 406.45 99.01 402.64"/></g><g class="cls-84"><polygon class="cls-62" points="146.3 445.83 139.38 442.01 139.38 450.5 146.3 454.31 146.3 445.83"/></g><g class="cls-85"><polygon class="cls-81" points="112.47 427.19 112.47 435.68 119.39 439.49 119.39 431 112.47 427.19"/></g><g class="cls-86"><polygon class="cls-81" points="99.01 419.78 99.01 428.26 105.93 432.07 105.93 423.59 99.01 419.78"/></g><g class="cls-87"><polygon class="cls-62" points="146.3 462.97 139.38 459.16 139.38 467.64 146.3 471.45 146.3 462.97"/></g><g class="cls-88"><polygon class="cls-81" points="112.47 444.33 112.47 452.82 119.39 456.63 119.39 448.14 112.47 444.33"/></g><g class="cls-89"><polygon class="cls-81" points="146.3 480.11 139.38 476.3 139.38 484.78 146.3 488.59 146.3 480.11"/></g><g class="cls-90"><polygon class="cls-81" points="112.47 461.47 112.47 469.96 119.39 473.77 119.39 465.28 112.47 461.47"/></g><g class="cls-91"><polygon class="cls-62" points="112.47 478.61 112.47 487.1 119.39 490.91 119.39 482.42 112.47 478.61"/></g><g class="cls-92"><polygon class="cls-81" points="125.93 503.16 125.93 511.65 132.84 515.46 132.84 506.98 125.93 503.16"/></g><g class="cls-93"><polygon class="cls-81" points="125.93 520.3 125.93 528.79 132.84 532.6 132.84 524.12 125.93 520.3"/></g><g class="cls-94"><polygon class="cls-81" points="99.01 505.48 99.01 513.97 105.93 517.78 105.93 509.29 99.01 505.48"/></g><g class="cls-95"><polygon class="cls-81" points="99.01 522.62 99.01 531.11 105.93 534.92 105.93 526.43 99.01 522.62"/></g><g class="cls-96"><polygon class="cls-81" points="58.27 380.19 58.27 388.67 65.19 392.49 65.19 384 58.27 380.19"/></g><g class="cls-97"><polygon class="cls-81" points="4.45 350.54 4.45 359.02 11.36 362.83 11.36 354.35 4.45 350.54"/></g><g class="cls-98"><polygon class="cls-81" points="58.27 397.33 58.27 405.81 65.19 409.63 65.19 401.14 58.27 397.33"/></g><g class="cls-99"><polygon class="cls-81" points="4.45 384.82 4.45 393.3 11.36 397.11 11.36 388.63 4.45 384.82"/></g><g class="cls-100"><polygon class="cls-62" points="4.45 401.96 4.45 410.44 11.36 414.25 11.36 405.77 4.45 401.96"/></g><g class="cls-101"><polygon class="cls-81" points="4.45 419.1 4.45 427.58 11.36 431.39 11.36 422.91 4.45 419.1"/></g><path class="cls-102" d="M59.39,400.55c3.69-3.16,2.71-10.35-2.18-16.07s-11.85-7.79-15.54-4.63S39,390.2,43.85,395.92,55.7,403.71,59.39,400.55Z"/><path class="cls-103" d="M53.55,393.73c1.26-1.08.93-3.53-.74-5.48s-4.05-2.66-5.3-1.58-.93,3.53.74,5.48S52.29,394.81,53.55,393.73Z"/></g></g></g></svg>