<svg id="Layer_1" data-name="Layer 1" xmlns="http://www.w3.org/2000/svg" viewBox="0 0 401 350"><defs><style>.cls-1{fill:#fff;}</style></defs><path class="cls-1" d="M52.6,52.6,50,55.3V94.7l2.6,2.7,2.7,2.6H445.7l2.7-2.6,2.6-2.7V55.3l-2.6-2.7L445.7,50H55.3Z" transform="translate(-50 -50)"/><path class="cls-1" d="M178.6,202.6l-2.6,2.7v39.4l2.6,2.7,2.7,2.6H445.7l2.7-2.6,2.6-2.7V205.3l-2.6-2.7-2.7-2.6H181.3Z" transform="translate(-50 -50)"/><path class="cls-1" d="M117.6,352.6l-2.6,2.7v39.4l2.6,2.7,2.7,2.6H445.7l2.7-2.6,2.6-2.7V355.3l-2.6-2.7-2.7-2.6H120.3Z" transform="translate(-50 -50)"/></svg>